<mxfile host="app.diagrams.net" modified="2023-11-28T23:00:40.992Z" agent="Mozilla/5.0 (Windows NT 10.0; Win64; x64) AppleWebKit/537.36 (KHTML, like Gecko) Chrome/119.0.0.0 Safari/537.36" etag="b65ckSWaSeQA1pklJ7Of" version="21.7.5" type="device">
  <diagram name="PÃ¡gina-1" id="jrk7WrS9X2rgXihgieJb">
    <mxGraphModel dx="989" dy="521" grid="1" gridSize="10" guides="1" tooltips="1" connect="1" arrows="1" fold="1" page="1" pageScale="1" pageWidth="827" pageHeight="1169" math="0" shadow="0">
      <root>
        <mxCell id="0" />
        <mxCell id="1" parent="0" />
        <mxCell id="1uEtQ7aiUFXIfoO98c6w-318" value="" style="endArrow=none;dashed=1;html=1;rounded=0;" edge="1" parent="1">
          <mxGeometry width="50" height="50" relative="1" as="geometry">
            <mxPoint x="2100" y="520" as="sourcePoint" />
            <mxPoint x="2100" y="40" as="targetPoint" />
          </mxGeometry>
        </mxCell>
        <mxCell id="1uEtQ7aiUFXIfoO98c6w-319" value="" style="endArrow=none;dashed=1;html=1;rounded=0;" edge="1" parent="1">
          <mxGeometry width="50" height="50" relative="1" as="geometry">
            <mxPoint x="2220" y="520" as="sourcePoint" />
            <mxPoint x="2219.58" y="40" as="targetPoint" />
          </mxGeometry>
        </mxCell>
        <mxCell id="1uEtQ7aiUFXIfoO98c6w-324" value="" style="endArrow=none;dashed=1;html=1;rounded=0;" edge="1" parent="1">
          <mxGeometry width="50" height="50" relative="1" as="geometry">
            <mxPoint x="2340.08" y="522" as="sourcePoint" />
            <mxPoint x="2339.66" y="42" as="targetPoint" />
          </mxGeometry>
        </mxCell>
        <mxCell id="1uEtQ7aiUFXIfoO98c6w-317" value="" style="endArrow=none;dashed=1;html=1;rounded=0;" edge="1" parent="1">
          <mxGeometry width="50" height="50" relative="1" as="geometry">
            <mxPoint x="1980" y="520" as="sourcePoint" />
            <mxPoint x="1980" y="40" as="targetPoint" />
          </mxGeometry>
        </mxCell>
        <mxCell id="1uEtQ7aiUFXIfoO98c6w-1" value="" style="shape=image;verticalLabelPosition=bottom;labelBackgroundColor=default;verticalAlign=top;aspect=fixed;imageAspect=0;image=data:image/png,iVBORw0KGgoAAAANSUhEUgAAAR8AAAH/CAYAAABuE9nPAAAgAElEQVR4Ae2935NVx5XvWf/BvMzDPMyTIqwg9DBGMSGFRbSfBLcfPDEXhO25BoqRbLeostotLEASNrQtiZKwe3QbYqSAdiNbsqVuwfSEfwQSGI9lJKpAFIUEAlSFQVBYAnVbVcK+NlhS9401sfLsT55D7rPP3ufUOWf/qFUR39h19o/ce2eu/OY3V67MPXD++ogoTs5sdjh0aZ0oXjo95PD82CpRPL1/mcOW3UtEsWHXIoeh7QtFMfjEAocvfOcmaYXPf+YvRfG/Hxw3WB501QawrS17lojiqX3LHF4YGxTF3lNDDqPT60VxcnazA3Xgvf/+d6I4d33EwdeJ6XVyaHqd7D095EB6T+9bKgruZ3WivTo9QMb7jDby6WqFMJJtzyDnkl9GPv3L67mUE9fWyWd2k5yc3eQYXlke5fPC4VWieGr/UoctexaLYsMzixyGty0UxeDWBQ6tVI8ew0B4ANuWy2CKXF7YFur86X3LRIF6x6YPTa8XxcmZTQ4onVD5nJjZLIrR6XUOL50aEsXzhwcdntq/TBTc78FnFoliaNtCB+sNtLZtIx/r+lRG6Rn5tK7sRWs46uQT+XxClkf50IqM7F4iCvq3w9sXimL11gUOpnzKZQBFM8i5PE+cfGo+mecPrxLFS6eHHUYvrRMFyub8tRFRoHxirohIKXnlMzYoz48Nep9STPmYHzRTg2bkY8onk6HMhRT6da2RT7kavgFYn1ZA/T01z/6w7D09XO/fRiMHI3sWiyJUPta/LVfB94sQ+nkfyAd1/tS+paJ4YWyVA6NVjOgyyBL6fFA+J2Y2iaLeGxiWl04Nex+S9/lEo2vUiaHtt4rC6kTrOmHkY8qncsrHyKd1pe9ng9DqXrFuF60CMRG0GrQiFOyDuxaJwuJ8ylHQrYygKse88onUOTb7wuFBUeCzweeD8kHpJPp8LPykJw2UkY8pn54YVh6EZuRTroYwRj6jl9aLgv4xIwVEixLNifJhtMv6t+Uq+DzIodf3rJPPEhnRCOcoDoeI5FD54OdMVD4W+9bThsnIx5RPTw2s14TTmL6RT7kawAE8/fR/66NdNo+l0bDt/+IbNuRD3A2xacSqoXyw8ROzm0Vx7tqIQ5LPpz7aVYtwJj3Sxw/KaBe9AYt9a20zRj6mfCqnfIx8Wlf6ojSknnzo/4Ysb/NYylGQRTGoPJ8jpnyilRgY7cKPmTraFUU8UydQShr3ZrFv3asPRj6mfKqrfIx8Cl22MYczM37pH+scFpvH0j22z1MZVP3eKB8d6VKw3k5sVnsUt4OfM3G0K1jjymLfulsPjHxM+RS6dWyHMI18uksO7eR9J+d68rF5LOUquE4Ku+rXePKJVl4gNs0rn2g9ntDnw4hv4miXxb71pIEy8jHl0xPDyoPojHzK1YB68qH/y9wuVn2j1bA1nMtVsHlU/rzv6ckn8vmgfIhwxmfD6BVrOKcpH18nIuXE6NnT+5eKwkf9RysZEudjUf+t64yRjymf6ikfI59SlGmdfGweSykKLG91UeT7e+UT+XyIQGZlBuJ0UD7E8SQpH45zvu8NRCsjMnfMRzhH65rbGs6tFQ82ZORjyqcypGvkk63SU/nz3tbJx9ZwrkwlzNuo8ro/5OOnV0RBhkTp7z01LAqi+FE2aXE+nI/PCB8SymrL7sWi8F+vsDWcM9UlIx9TPpkMJS9Caee+Rj5lUz42j6Uyla+dilrFcz35RGsqo0wYnQrndhHblqR8UEbEBeHzwYfESomMdvEtO/P5ZCNBW8PZlE9lyNfIJ1ulL0rDE+t2EdNQ79/WVv6H5fHss5KhreFcrgIviuH14jkgH+Z2MRqFUsGmGb3ii6Wh8mF9Hx/7Fn3Rxc935Iul0dcx8DGhfIa33yoKi/NpXTeMfEz5VE75GPm0rvS9IP5O0oyRj63hXI6C66Swq34NygclglonSh/lgg8HZRMqH35zHKWEciI9Zs373oBFOLfVkBn5mPJpy2CKTGBGPuVqOOvkM7tZdK6LZ/nTtTWc6yy/THT0gFbFfD7lKugik0a3ng3yGdm9WBQoHz/adWpIVL1g4ygbvtqbOKt9ep2LDWK0DB8SPiXqBD4f/KCrn1ggii9856aW4Lm7lQ9lScfIx5RP5ZSPkU85Gka/jCqtwKFL60Xh+7eRZ59Z7TjzLJqzHAVcllawG8+JgiDuBmWCeke5xJTP9RFRPw/Kh7le1Al8RC+dHhYF37KjTnC/8OsVNtrVuo4Y+ZjyqZzygQyMfFpX/m4Q/lzSqHe7ZjaJxj2gfHw05+FVot8poiApWFie/q2xfLELei5GUpZrY8onisNB+cRHu2o2j9JB+aSOdtEb2LfUrRNNnaA3YOv5ZKsLRj6mfKqrfIx8Cl22nnyY58IMXloJWo2n9i8VBZ59RrtgefPsZ2P7sqiIMj5nkvLxo13RCC5R/KxkiNJJUj5hnSC90OeD8rG5XdnqgpGPKZ9Ct47tkKCRT7ZK306e9vJcTz549mkVvPIJVm3zyieK5jSWL1eB99KY8k4b8iHiGGWCUsGPyegVs9ZD5YMPiOO+TpweEk2DOJ+kCGdfJ7YukMGtFueTZBdGPqZ8Kqd8jHzK0SA2kA+jXetEmZ5WglXg+BKAVz677pAHd90hNtpVjoJOan2qtN8rH75YyueSx2orMxC7hpJB7YfKh98cx+fDGtAoqVidCOZ2mR+0dd0w8jHlUz3lY+RTijJtIJ/NokxPqxBGc/o4n2i9Wh/ns22haB/X4nxas3yVFEZR38UrH//F0qVufhfq3SufaH0elA1Kpz7a9bicv/64qw96Dj6iuh90UDRNlA/dPEaA6Q2Y8mldJ4x8TPmUopXMQnhGPq0re5Y87Oc5dfKJZrXTv8Xn4/u3+5e5KGcfzblrkSjTe8/+Ewuc+rEZvOUygH4aW6/vBflgo+FoVzi368TsZlGkzmq/tM6pH5QPo130Bvx8R+qEfb0iU4Nm5GPKJ5Oh9Jo4upG+kU+5Gr46+fDdrpDlmdsVharD8vh8iHA2n0+5Cr4blb1oacTIZ19tDSpmoaNc8OEQxxP6fIjzwSfELHiux4fEekEoLXw+Viey1QUjH1M+1VU+Rj6FLltPPrQCtAp+tGtslej8Ljz7nuWJcI76t+bZz8b2RVMLjc/zP/5P/7P0Ao336OX/XvnsXuLmIKJMUCr4fPBromxC5YMPiOOs9MD13g+6b5mrF8S+1VcyvFWGtt/qVjHUemF+0OZ1w8jHlI9vHXtBPJpmLwmnMW0jn+aVvDGPivR/w2JiUYQz3yiKVm3TtXxq6/lEs9qjr0HWWX6hi3I25VOugm9mhJCPdOmP9Ng2u2c399XJp/btdOZeoVRQLqh7VnKIKZ9oZUOUD0oJnw/poazoDYR1wvygreuEkY8pH69MIIkucU+sC9dNommWlpFP68reLM/y3Oe7XTGWj2bw0l+mFWG0yzz75SroLEZWFfIh4pg4HOJyUD5E8WPzofIJR7tQSvhBSQ/lk1QnrDfQuo4Y+ZjyqZzyMfJpXemzNET9OGcg7tmvzWqnlfA+n8Czj/JhHov1b8tR4K2MqjLKh4ml0RrL+GiwaeJ2UD4oHeZ28ZtvudeVT7Sez+FB0TSJoOZTPaHPx5RP6zph5GPKp3rKx8jHl2mrxibvY7FuF60CM4CfHxsUhV/DORrtalf5fPE7N4kCp2DeL273j7dKlVE+sS+W1kZssWlsHOWD+kf54APiOOcz2sW65t4PGs2iR/lYhHPctprVNyMfUz6+lTTy+Tv34UAjn2zk0YxQ2tnnyScW4XxqSJTpvc8nmNUOy+Pzsf5tfwqsncJt91zIJ+s2bUg+TKfd52n3fFQ1cTf4ZBidQvkQt4OywceTqHwuJazuSZ2IIqrDOmF+0NZ1wsjHlE9M+YSkkfTbyCdaZsbIx9tQOw3GwLlrI6KgFTg0vV4Ue08NOzAjmFaEVqXu87F5LO1keJHPhWTSSCXrcdJj2+t3D5VPGOeDz4bRq8zf7YpWemANZ18notE0H+cTzHfUL1fY1yuS1Y+Rjykf32pBElnJJe080mNr5HNT00mmkGav86do6ftuF60A0Z/ERHjP/v6l8vT+pZLI8raSoa/ERSvkrM8DSaSRStbjpMc263N0eh6VmLgb1DpR+qzOGfp8cDB7n8+1Ebe6Ib0BlBJ1wvtBgzWu6r2B2nxH8/kkqx4tYyMfUz6eNCGJrOSSdh7pse2UVLJeZ+TTurJnzcd+nVcnn2glQx/TEMztov9M6HqaZ5+4nnAtEwykXy9o98lukJBEGqlkPU56bHtdFtgWNsrcK5QPyiVN+TD6xQiwrxOMAEffASN93xuwNZx9Q5alrI18TPl4g4EkspJL2nmkxzaLQc7lHCOf7A3NXPK5W9c2LKlR+24X/VtGBmg1YPnYaJd9t8tX3m4VSl7pQBJppJL1OOmx7fV7JZJPtBoncT4oGZRNzOcTrOeDH5Q6wVwxfEooLdY197FvWxfIavtWe2L9MPIx5eONA5LISi5p55EeWyMfG+1qtAHf7aIVoFWos3xtXszT0WLcsLx59sslcRsLPel/SCKNVLIeJz22Sfft1n6Uz5boq7qoddR7qHwYzUpVPqzuGfh8mNvlewNhnI+NAPuGrVkZG/mY8vEGAklkJZe080iPbTMD7OY+I59yNYiJ3a4wwpnRLr9S/65Fon1cXaVfYTEN5Sr4ZpUekmiXVLgubdvsnt3cB/mgzlEmxKr5OJ8oYhm1z+iWj/MJfD6jl9aLguu9z4cIZ2a1UyciP6jNd2xdJ4x8TPm0rXzSSCbpeDeJpllaRj6tK3uzPMtzn+920f8lBoKYCGYEh8rH+3xstMtX3jwLshv3hjTSlE/W46THthvP2CoNyAd1HvP5nB4WnZ/Fd7iw+VD58NtH/Uc+H3xGXvnsX+ZWM/Q+H4vzaasuGPmY8vEGA0lkJZe080iPbSvi6MYxI5+SKR/P8kGEc135DMoLY4NC/xmWD2MazOdTroJvVtkhiTRSyXqc9Ng2u2c393nyiVbbDJUPI7io+0TlE630gE/Ix76FUf/M7Yp8Pg/aaJdvyLKUa8znw1C7kU/5ySSLATSeA0lkJZe080iPbeO9evG/kU+5bNaTj2f56XWiLQOtBDESMZ8PLG8+n7bYvheVrltpQhJppJL1OOmx7dZzJqUTJ5/at9T9aFcUp4PyweZT43z8SobDot/u8rPa/UqGtS+kWm+gPfIz8jGfjydPSCIruaSdR3psk0ijW/uNfNqr/N3K907TiTmcWcnQKx++XhF+twvls93WLuk084t2HSSRRipZj5Me216/L+TDLHPUOiO2xOkwVyur8kEp+dGuYFY7ftAHd90hCot9y0aCRj6mfCqnfIx8slX+XjcGael78jkxs0kUsPxLp4ZFQX+ZVgSWr/dvLcI5LZPLchyF0qttr/MB5cPcLkZosWEGUVA+fJE0yedDnWAQhm+1s4ZzWCdstKs90jPyMeUTUz5GPiOihGTk0x6ZtNu4ePIh5oFWgf4xrQZrlxA9Wlc+5vNpN9OLfn7ZySfsdqFU+PoE6h6bT1I+HKdO4PNhBBhlxf3qdcJ6A1ls3MjHlI9XPhiMkU9N+Rj59Ev5zG6Sk7ObpN6/HXKzeOsxDUvd99q37FksCtZwHt62UBT2jaLeFhTEYNvkfPY+nyjCGbXOaBfKBSVDt+r89cdFEc5qZzSMCGd8RsztIoKa3oCf7xiNANus9uSyUjuuKx8jn5gCsIre2niKlj9GPuUqrzr5RHO76A8T54PyCVcypH87vH2hKHStWluvtlyFXzTymOvzQD7hej4oFfyYKBm6VXGfT00JoXzoDaCc8IMy2sX9iPOhTth8x9b1wcjHfD6VUXxGPq0r+1zJvdvXD5yPvs4YY/lo7RM8+09FEc4jexaLIlQ+xvLlKvhuG1IR0oN8iEXzPp/Dg6LqB+WSrnyaO5zpDdTrxFJRvw/3ww/K1yusTrSuE0Y+pnwqp3wgAyOf1pU/7wYj1u1iJIBWgpECPPv1/u0iUe++sXyxCzhvA+vn/VE+4Vdyi/6b5+5nXhXhXkY+pnwqp3yKTjbh8xn5MNoVrdRPTAPRofh8kLTENJhn35RP3q0olbcq27zzs1/3jykfPhNi5GOk0i8jnOt9qkI6vMdc86Ms18fIB58Pnn1iJJ7ev1QUXvlE6/mY8jGSytvYqbRhd6Zsv3mPvPOzX/c38jGfT+l9PlTaspFN+Ly8R78qf9738eQTxvkQDep9PtF6tYx2+ZgGW8O59JU3byOc6/2ptG/N/q0ozv7xMYeLH28VBXO2Ln78hCim/viYA+cfvfyQKA6+8w2Hl898TRT/MvFlhx8dWiGKHQfucnjyZ58TxaP/fKfDxmc/K4r7d97uMBTVibu/d4soVox8yiEkm/A37zHX/CjL9UY+pnxKT55UWsjEyKccrgBPPsxzYW5XPc6H73YtE53fxSpxtmpbOQq4LK3gXJ4T8sGGUTYoHa98PtoqFz/a6pXRW7ObRXH08sMOdeUzLC+fGY4pn50H7hKFVz4vLpZHX1wsG3/4WYe1O24XRVz53CwrRm6WUOmEv3mPueRFma418jHlUxnlY+RTrgbRkw8+H+a94PMJI5wZ7TKfT7kKukwtYrvPimJAydDtmv7oCVGgfKY/fkIUZ//4qAPdtKNXHhJFXfkk+XyWy44DyxuUz53y6It3On+P+nwSlc+Wm2XFFlM+Ybka+ZjyqYzyMfIpV4M4cC76LjWSlbVLiPOJzeDdvUR05TaUz/D2W0VhM3jLVfBhK1Tm3yifk7ObRYHyufjRE6JA+eADOvunx0QBWR298rAoDr6z1iEc7Xru0EpRpPp8dt4ma3feJmu2LXS4+7u3iEJVjymfeP0w8jHlUxnlY+QTr+BFblR8tytUPox2sWqbX6l/9xLRWB9GuyzCuVwFXmRj7PTZUD5vzWwWRaLyiZTQ2T89Kgps3vt8LqyVgxfWyr4zX3MI43x2Hlguiid/+jmHx15cLIqNz/6Fw9odt4mC0a57vneLKFZs+ZRDOLoV/uY9Os2Hsl1n5GPKpzLKx8inXA1hjHx8nM/pIdHJpX60K4pwZqV+fD6s52Mr9Zer4MvWSrZ6XhTDydm/FcXUnx5zwMcT8/lEEdBx5fMNOXjhGy66uTHC+blDK0ThlU8U4Rwqn/t33C6KmPIZsTifZuVn5GPKpzLKx8inXA3gwLnrI6KgFajH+QyLfpuauV0sSenjfHYtcus4m8+nXAXerAUq+7668qmNdvkI59hoV22uF6NdkFV8blcQ4Ty6Un40qqNdkc+HuV1EOAc+nzXbPy2Ke757i4P5fJrXESMfUz4VUj5GPmVqSGLdLuJ8/GjX4UHRWB9Gu1A+NtrVnM3LVPhVeVaUD3E7iT4fRrsinw8O6vHLD4kiPcL5xlnt3ufD3K6dt8vanerz+bSDn9VucT5NGzgjH1M+TQ2jTMRk5FPOhjBGPox2EeFcX8lwmajfJ1Q+ePYtwrmcBlAmkkl6VsgH5YKSQdkkxv2wvk80OoZy4nyuJz3SDyOgk9b7aVcZ8R5J71m1/UY+pnwqo3wgB8gC8oBMkqZb0E0z8ulvA+odzsxq92s4nx4SndlOnA8+H1YyxOfjlc/WBTK4dYGtWWJk1ncyQzFUZVs1hZP0PkY+RhZ9J4skY+x0f1VIh/foNB/Kdl1it2tv9K12fD7+u13RrHaUD3E+FuHcX8laNkOz5zX7CG3AyMeUT+mVT2jU9rscRDdw/vrjoohFOJ8aEh3xqq/ns0xU/Xifz64bv9VuyqccBW4V08qpKDZg5GPKx5SP2UAuNhDvdl1aJzq/y8f5jK1yI15P8d2uPUtkZM8S4VvtzGq3OB9rUYvSotpzlMMWjXys1cul1TOCKAdB9LKc/FA7Ph/mdqF86j6fpfLUvoZvtUc+H0a7TPmYMfXSUC3t6tmXkY8pH1M+ZgO52MDA+WsjovDK59J6OXRpvVvF0K1keHhQNNYnjPOpr2R4qwxtv1VstKt6LZOpDSvTXtqAkY+1erm0er00aku7HKQZdzhPrxOd2Y7Ppx7hfKPPp658FoqOeJnPpxwFbhXTyqkoNmDkY8rHlI/ZQC42EHM4h2s4M6tdR7oUGuPTGOfDaJf5fKxFLUqLas9RDls08rFWL5dWzwiiHATRy3JqIJ9NcnJmk4tudhHOrOcTjXbx9YqR3YtFEfp8TPmYMfXSUC3t6tmXkY8pH1M+ZgO52EDM4RyLcB5bJfq99nAlQ5QPPh8b7apey2Rqw8q0lzZg5GOtXi6tXi+N2tIuB2nGyefSOtF1nHX9ZoWf25XyrXZTPuUocKuYVk5FsQEjH1M+pnzMBnKxgRj5EOfDGs7+W+37ljq/j4/zeWaR6DrOfj0f+3pFLgVYlFbMnsMUVbs2YORjrZ6RptlALjYQm1haVz5Dbmb7C4dXiSIpwtkrnycWuPldX/jOTS2/3TXfPg/Sbmtg55uCmC82YORjrV4urd58qWD2nsmNiQ8y9F8snV4nGuvjZ7WzhnPC3C5TPsmZa4ZneWM2kGwDRj6mfEz5mA3kYgMxh7P/Vnv03S7W86nP7Vrivt21YdciUaB8Vm9dIArz+SQzvbWCljdmA3UbMPKxVi+XVs8qYb0Szte8iJNPgs+HuV1b9iwRBd9qR/lYhLMZ03ytRPbendm+kY8pH1M+ZgO52ECMfEYvrRcFc7u8z4cI592Bz2fbQhnattC+XmEGnIsBm+roTHUUId+MfIw0jDTMBnKxAT/UfnJ2syhYz2fvqSFReOWzf5noiJf3+URfLDWfT3lbniK0fvYM89d+jHys1cul1TPSmb+kQ9kPnLs2IgoinJnbhc/Hr+dDhHPk87HRLjMejMi2Zgud2ICRjykfUz5mA7nYQMzh7COcTw/LS6eH3Yx2N6vdr2S4WLbo1yuCCGeL87HWr5PWz66Zv3Zj5GOtXi6tnpHO/CUdyj5GPvqddoUf7QpmtddHu+6QB3fdIUPbb3Uw5WPGhFHZ1mwhiw0Y+ZjyMeVjNpCLDXjyOTGzSRTE+ai/R8Eazk/h87G5XbkUVJaWxM4xxVEmGzDysVbPyNRsIBcb8ORzcmazKBjtwudDnA+z2vl6RX20y3w+ZWpt7FlNHRXFBox8rNXLpdUrSgWw58iPjD35hBHOe0/z9YpBN7+Lr1ds2b1EFA8Gc7tWP7HAzWy3lQzzK0yrSJb3ZbIBIx9TPqZ8zAZysYGB89cfFwXKh9Eu7/MZWyXPj60SRrtGmNu1qxbnM7x9oSgszsda3TK1uvas+durkY+1erm0elb586/8eZeB73aFo118t4vRLu/zieJ8NjyzSBS2no8ZUd5GbPcvpw0a+ZjyMeVjNpCLDQykjU51+7h9q72crZSpCyu3btuAkY+1erm0et02ZEuvfOQ4gBLJa2tGUz6jsTKzMuuGDRj5mPIx5WM2kIsN9L3bhQ8JpdUNBrU0rCU2GyifDRj5WKuXS6tnZFE+suh2mQ28fOZroviXiS87/OjQClHsOHCXw5M/+5woHv3nOx02PvtZUdy/83YH/Vqp4u7v3eKwYuRTokDhJG1N+ZjxdduYLb1y2ZSRjykfUz5mA7nYwMDLZ4ZFESqfnQfuEoVXPi8ulkdfXCwbf/hZh7U7bhdFXPncLCtGbjblYwadi0Gb+imP+jHyMZIwkjAbyMUGWnS7lsuOA8sblM+d8uiLdzp/j/p8EpXPlptlxRZTPtYCl6cFtrLKp6yMfKzVy6XVswqfT4UvUr7HyOe5QytFkerz2XmbrN15m6zZttDh7u/eIgpVPaZ8zLCKZOT2LMW0RyMfUz6mfMwGcrGBgX1nviaK+GjXctmpPp+ffs7hsRcXi2Ljs3/hsHbHbaJgtOue790iihVbPuWQFN/DfovzKWZrZCrByqVfNmDkY61eLq1evwzc7lNcMm3S7Vohzx1a4VSPUz5RhHOofO7fcbsoYspnxOJ8zOCLa/BWNsUpGyMfUz6mfMwGcrGBeJDh6Er50aiOdkU+H+Z2EeEc+HzWbP+0KO757i0O5vMpTstirbyVRZFtwMjHWr1cWr0iVwp7tv6QdqzblTSr3ft8mNu183ZZu1N9Pp928LPaLc7HKrMRutlABhsw8smQSdYS9qcltHyeX/k8cPaPj4nirZnNDuOXHxLFwXe+4ZB1vZ92lZHF+cwvQzNisfIObcDIx5SPdRHMBnKxAVtA3gwvF8MLW0H7Pf+UkZFPE/JZ/pn/JCGscsy/ymFl3tsyH7AMjmdwSDxpvy0P43loeWJ5kmYDRj4Hx2Mq5z/W/Q8SohUBpWWyHbeKaDYQt4F5TT5JhBISD785/5NPPpFG6H4zrrhxWZ5YnrSyASOfz/ynmMr5j88MyA2IlFAr8jECsorWqqLZsbh9zEvygURQNLFtQD6c36h2wv+NfOLGZRXO8qSVDRj5qKoJyCb8nYV8lIw4r1WG2zGrkGYDNRuYV+QDOYTkkvab6yavTIiimeox8jFSMVJpzwbmDflAIGlEEx7nOogniXz0PEiJa8wY2zNGy6/5lV/zjnwghsZtSDiNvzkP8oFg2HI8/G0VaX5VJCvv9su78uSj5KCGAUmkbRuJh//1GiOf9o3LKqTlWSsbmBfko+SBMmm2bSQkCCfcck4zEmpMn/NaZbods0ppNjAuRj5NAgaVQNohn0ZCM/IxYjFiyWYD84Z8mimWRtLgf8gjJB9+c7xxy7W6Zb8ZYDYDtHyav/lk5BMpH8gJ8oBswi3Hs26tcs3fymVl37rsK08+GEArslDFkkY+XP/Rvv9VQnCs2Zb727a1IVr+zL/8mRfk04wUmu079ekBCaHnqfrh/JB40n7rdVax5l/FsjJPL/N5QT4YAgTSSDDs023jfv2fYxAMv8Mtx8Nt43k8g23TjdLyaH7k0bwnn5Bwmv2GVBrJJMv/VonmRyWycu6snOcV+WAkjTIVg2cAACAASURBVMTRjGzCfZwPCYVbjodb7mfbzozT8q3a+TbvyUcJIySb8DekEpJO0m/Ot8pT7cpj5Tu38p2X5NNoNFnIBzKCVMJtSEIcb7yP/T83Q7X8q17+zXvyUaOGLJptIR7dNjvebJ9VlOpVFCvT7pepkU8K+TSSS5IBNp6j/yedZ/u7b8CWp+XNUyOfJt/tajToRmJp3G//l9foreyKUXZGPinkY4ZaDEO1cqheORj5GPlYN9FsIBcbMPIxw8vF8EzJVE/JtFumRj5GPkY+ZgO52ICRjxleLobXbitp51dPKRn5GPkY+ZgN5GIDRj5meLkYnimZ6imZdsvUyMfIx8jHbCAXGzDyMcPLxfDabSXt/OopJSMfIx8jH7OBXGzAyMcMLxfDMyVTPSXTbpka+Rj5GPmYDeRiA0Y+Zni5GF67raSdXz2lZORj5GPkYzaQiw0Y+Zjh5WJ4pmSqp2TaLVMjHyMfIx+zgVxswMjHDC8Xw2u3lbTzq6eUjHyMfIx8zAZysQEjHzO8XAzPlEz1lEy7ZWrkY+Rj5GM2kIsNGPmY4eVieO22kq3O//xn/lKqhFbvWqVjRj5GPkY+BSOvKhFMq3cx8jHyqQz5HHznG6IYv/yQw1szm0Vx9o+POVz86AlRvPff/87h4sdPiGLqT485vDW7WRScz/WkR/ovn/maKP5l4ssOPzq0QhQ7Dtzl8OTPPieKx15c7LDxh58VxdqdtzsMbfu0KO7+3i0OK7bcLArUW6sKW6VjRj5GPkY+Rj652ICRj5FPLobXzRYcxYByQcmgbLzSiZRPXsrmC9+5SVqB9+hm3hQ5LSMfIx8jn6ib1utuVSvi0WNGPlYZS18Zi9za9eLZqLQnZzeLYuqPjznEfTxb5eLHW+Xsnx5zODn7t6I4evkhhzr5DMvLZ4brPp3RlfKj0ZWy88ByB3w6j764WBQbn/0Lh7U7bhPFmu2fdrjnu7eIYsWWTzkY+dwY22TKx8i29GRr5HNjpe4FwfciTSMfI58KkU9NyST6fKLRLXw+J2c2i+LolYccDl74hijC0aznDq0QRah8/GhWpHzu33G7KIa2LXS453u3iGLFyM0OpnxuJEkjHyMfIx8jn1xswMjHyCcXw+umjKfbRVwOyibm82G060+Pytk/PepUz43KZ60cvLBW9p35mkMYx+OVz08/J0/+tCGOJ/D5xJSP+Xya2piRj5FPU8PoJjn0Oi0jnxu7M73O726lb+Rj5FMZ8mG0K1H54POJRruICzp65WFRHHxnrUPc57NSnjuko113OcRGu3wE822ydudtsmbbQoe7v3uLKIhgNp/PjSRp5GPkY+Rj5JOLDRj5GPnkYnjdku6aju92BXOzpj96QhREOE9//IQozv7xUYe3Zv9WFH60K5obFiqf+tyt5bLjwHI3b0vVz6Mv3umw8dnPimLtjtsd8PmEc7dM+ZjyKX1l62bFrUJaRj43VuqylKkpH1M+pSdjyIe4HR/hHPl4UD4XP9oqCnxC3udz+WE5ell9PrVZ8RrdfEOEczRrPdXnk6R8LM6nqY0Z+Rj5NDWMsrSe+pxGPqZ8Sm/EZapw9qz1Cgf54MNB2eg8LoVXPqzfE8394vz43K5s6/U8+s93igKfz/07bxdFzOcz8ilZMfKpljPa1R/Ee8yXsjXlY8qn9I0GlRYyMfKpE3ORiczIx8inMuSTNppU9OOQaJEJo5vPZuRj5GPkk7LIV79Iy8jHKmPpK2M3W6cypEWlrcq2DHnejWc05WNkW3qyrQrp8B7dqNhlSMPIx8in9ORDRaPy9qub1K378Ny8x3zZGvkY+Rj55OzzMfKxSliZSjhfWs7wPanEW/YsEcXT+5c5vHB4UBR7Tw05jF5aJwoios9fHxEF8UD85vihS+tE8dKpIYfnDw+K4ql9Sx2434ZnFoliaPtCh8EnFogiTSHx3OH7VP23KR8j3cqQLpUYMjDyKXa8j5GPkU/lyGdk9xJRPL1vqQPK56XTQ6JIVz6Py/nrj8uJmc0Oh6bXiQLl9PzYKlE8tX+ZA/d7cNcdohjevtDBlE9r8jPyMfIx8ol1u4x8+tHlM/Ix8qkc+cS6XWOr5IWxVV654MM5MbNJFKpyFKHPB+WDUtp7ekgUKCnv89m9RLbsXiIP7lrkgM9n9RMLRGE+n+YKyMjHyMfIx8gnFxsw8jHyycXweiHrcTiP7FkiCnwyzx9eJYq9p4cdRqfXiYLRLEa3QuXDcZSS9/lEo134lLjfhl2LRDG0/VYH8/k0VzyUvZGPkY+RT8znUxt6N/JpTR6QSKdbIx8jn8qRz5bdi0WBMmF0Cp8NSubkzCZRJCkffEKMdr10elgUKCmUFT6mB59ZJAp8PqZ8WpOXkY+Rj5FPgvIx8mlNHp0qHq4z8jHyqRz54INBmehIl4I4H5QPo1lJyoduFz4ifD6k50e7oohq4nzM55ONtIx8jHyMfBKUj5FPNhJBybS7NfIx8qkc+eCDeWrfMlHg82FuFkomq/JBKeHzeeHwKlGgrPAx1Ue7bG5XFiIy8jHyMfJJUT5GPr1RQEY+Rj4VJp/arHNmoYfKh27VuesjoiDO59y1EVGgjIhwxmdEevh8/NwuG+1qy5aMfIx82jKYLHI6r3MIMqx3u4x88iqLLPc18jHyqR75RHOtUCYoFSKcD11aL4pE5RMpoZOzm0VBnI8f7YrWB2LJDsgunNtlcT6tu2tGPkY+Rj5ht8vIpy82YeRj5NMXQ8siw+d6Dt0ufDBhhDM+G3w4+HRCnw9xPyij0UvrRcH1zGonfe7nR7u2LXRfLbVZ7aZ8KlO55lo5q369kU/ryl608jflY8qnMuQM+RB3E/P5RGs448NB2aB0GO3iN8c5n9EyIpxRPt7nY6NdbdmSkY+RT1sGU7TWs/F5jHxM+VTGmBsN2/4vvmFDPvhgvPKJ1lxmtAolg88HpZOofIKvV3ifT/R1DO7nfT7R1ytWb10gClvJsLntmPIx5VOZxsLIp3klL2rDaeRj5FN98olWHmQ9H+Z24dMJlQ+jXygjlFLo80FZMYve4nzaIz8jHyMfI59gbpeRT3sk0qmyMvIx8qkg+SyWEV3JMPLJEOFMnE6a8jl/bUQUKCPiglBOflZ79MVSUz6dkZWRj5GPkU+gfIx8OiOTdhWQkY+RT+XIh7gb1tshLgefDUqGuVuhz4ffceVT+/oFazgT5+OVTxjns3WBDNpoV6J9GfkY+SQaR7stWd7nM9pl5NMf5TLX8jbyMfKpLPng80H5EOcT+nxwMKfG+UTfeseHhLLSr5UqNjyzyMG+XpGN/Ix8jHyMfIJZ7WG3q76S4ZCbXGrkk41c0pSRkY+RT+XIR0e6FMThMDqF8iFuB58ODuZE5TO9zq3pg8+INaG9z2f3EtEoZ5TP8PaForD1fFqTlJGPkY+RTzS0buTTmizSlEy7x418jHyqRz7Rt9pRJszFIk4nVD6hz4fffNGU0THihEgPnxJKC+WDz8fW82lNZkY+Rj5GPoHPx8inNWm0q3CSzjfyMfKpHvlEPhhGo/xo1+khUfWDA9n7fIIgwzr5bHZRznXlU/tWO+nhU/JxPrsWic7vwudjyqc1iRn5GPkY+Rj55GIDRj5GPrkYXpIUn8t+H2S4e7HoaoZJPh+UzImZTaJgaD3J4UxcEKNd+HxQPgQ1hj4fG+0y5VOZyjWXijkfrjXyaV3Zi2YDpnxM+VSGnOvkU4s4RpkQFMhoF0omyedD3A/H+c4X19eVT+1b8PEI51tlaPutYj6f1mRo5GPkY+QT+HyMfFqTRrcUlJGPkU/1yGfPElE/zNP7ljkwCx2fTd3ns9l9jz30+YSjXcQFcT1KCmWFz4eVDBntMp9PaxLLRD7/+dVxUSx99ZjDsteOicOhY7KsEdF+zuO6bjGlpdO6MPPOH8qb8u+3nfhul5FPKRoUIx9TPl0z1MKRT7SSIT4afDYomROzm0VBNytxtOvSOlG1hPLxcT77l4nGEoVxPkQ4m/Jp3Vg2JR+MiJbrrtEJUXzpcA3/55EJUXw5APs5j+tIh3TzbqHt/q2NImv+UJ6UL+VN+WMPaXayfHRCFHcdOuaAciL9rM8TUz5GPl1rWLKWQTvnGfmY8unYQCGHopEP39HCJ4OPJnFWe+hwvv64nL/+eGwNZ5QP6T21rzbaxf3w+aB8bLSrdSPnyCfJiFYfmRDF8PhxhzN/mhTF1PUazv15ShrBfs7jOtKhZcRYuW87bFnkc3kfWm7e8wa/mPrISuob4/14fsqT8qW8KX/sodFG9H/2c95948dF8ZXXJxxQTqTP/bh/aAPkN8oHMigb+VTFTsLySfpt5NNF5UPloDJQaapiVLwf7wU5FI58mNVOt2tslaifxiuf6AukxPGEo1385jhxQXtP19ZwxoeE8iHO58FoDWdGu9pVPlWxkySyCfcPaEW565D2tydk1ZEaaMEmr02K4vyfpxwufTwlinc/qeHyJ2elEeznPK4jHdLlPtyXyho+XNF/J1VGWu6sPg8qMZWadLv1/qRHPnOfNGNf6kY466OclBflR3lSvpQ35Y89NNqI/s9+zrvw0ZQofnN90gFFRPqQm88nRlgjBYnPyCufkpJPmm/Mv3/03pRr3naS9Tk4DzscoMDy2qpB8zDdysR+pUNmUpkxDiOf9hqprpNPNKud9XZQKqzHkzXOx3+xlG+1R2s4M9rF3DG6eSifoW0LRaFfrmjn6xVGPp/5S+knEX319dpIh7ZeRSehJLKhZaalpuXGt5Hm8+A60oHEIDXum5VUOZ/rSa9dUvzC6IQovjRWw72vHxcF74fS+e3HU6K4/EkN7//7WVH863/U8G//cVYawX7Ou/LvZ0Xx3idTDigi0kdZkU/3HJkQBfnFfuwWMigb+ZTVTrAv7A37+88Hx0VBvUY5f3FsQhQDZ//4mCjemtnsMH75IVEcfOcbDi+f+Zoo/mXiyw4/OrRCFDsO3OXw5M8+J4rHXlzssPGHnxXF2p23Owxt+7Qo7v7eLQ4rttwsCgzFyGfSO/SpTEmFaeRTG/hIIx8ijnE4o3x8nA8+n9nNot/uwseTGOczvU7U78NoF+lBbtwvpnyeWODWcf7Cd26SVqAuGPn0mXymrk261lRbVPruMGXWytbr83gemLvbPo+kFp77cF+eI3xfWhpaHsgLMkMZoFiyKrL7jx0XxdoIXDf90ZQosiqdRtXT6v9QEZE+yop84jkeOn5cFFRaKjFkUDbySfON8f6hEszbTrAv7I16jB2idFDOJ/84KYqBXimbVkyvxzAUI5+aM18Nq2hGVRXy4WsTKBd8PqzRzFyuJOVDRDSjZcT54POB7FA+jHa1G+Fs5NOlblVW8tH+vRKQQrtgClp6WvSwpe/Xb5QGTM7zoSBoiWiZaanxZdCSh609+zmP60iHdLkP9+U5eC625BctIC0RZEZ6+FIYbUoz9osfTYkCpcN1PDfvEb5ft36TPvcjn3gO8gtfEQ0aZIDyKQv5hPmW9P68N+Wat53wHNgbcVtD48dF8TfHakCxYlcDL58ZFoX36YyulB+NrpSdB5Y74NN59MXFotj47F84rN1xmyjWbP+0wz3fvUUUK7Z8ysHIJ7vDlUpVNKPCSEpLPtHcK8jH+3yi73ARxxP6fFBCHEcpvXS6toYzs+RDn8+GXYtE0anyMfLpM/loq4Zxw+C04PgwkpQOyggFwPlp8Stcl5Qu6aE06Kui0HheSIOWmZYqNKK031xHOqTLfbjvmvHjomD0iS3PR/7REkFmpEf63C98LvZzXtKW88Lre/2b+7Ll+fgdUz4lJ58wP3lP3ptyzdtOeA7sjdAJ7JBGDMXK6GbM5/PcoRWiCJWPH82KlM/9O24XBTEN93zvFlGsGLnZIavy0Ywk86g8Rj41Zy75YuRTG6qn8rGlEvIb8uE7WnS7GJ3CZ4MPB2WTOqs9Gu1CORHnw9cxiHAO13BuN8I5JJvwN+/Je1Pp87YTnqN05KMZysPDlPgs8JYTaYtiQeFwvN34Fa4jHdLlPvhQ8LVQ+fGZUPgYQ2gkc/1NutyH+569PikKRp/Y0pfGCMlPrie9uT5X0a+vOvmE+U+5Us552Un4HCibK5+cFYcojovn5PyBfWe+Jgrv84kczl75/PRz8uRPG+J4Ap9PTPm06fPRB6GyGPnc2MJTWHkZVWjsRf8N+aBEUD74fOKjXbXvcoU+H36jjFBKKCfSY7SLoMa5jna1m79U4rztJHyO0pCPZjiZh2zDa064Ob4XtsQToJDorqEAiPtgy37O4zrSIV22BLGduTYpChQFz0lmt2ss7Z7PfbgvfWaehy37OY/r2r1f2c+fb+RDeVHelD/2gH2wZT/ncR3p9HvbxOezUp47pKNddznERrt8BPNtsnbnbbJm20KHu797iyiIYM7q89EXJjOMfFpPQ8B4MCa27Ccf8zaqfhsx94N8WFkQnww+GpQLSoY4H5QOcT7nro2IIlQ+KCfifFBWKC18PsPbbxVFu3E+vEe7W8qb8scesA+27Oc8rmv3ft06vxDkQybQ/cJbvn7iuCiIG2CLMqKbRreEzE2LX+E60iFdttyX5+C5eM5uZX7WdLgvRpO05bys6VbtvPlKPpQj5Z9kH+znPK7Laxsjn/rcreWy48ByN29L1c+jL97psPHZz4pi7Y7bHfD5hHO32lE+ZAaVnEoPCUAKbCENSMTIp/VEzryMq9/3hXwIMuTrFX60K/pWO3E7aV8sZVY75zMrHiXllU+0YD3KhzrRL+VDPlOPIJmkLedxXV7bQpAPL09mQULIxQt/nhKHaN0Xumecx3VJmcp+zuM60oHsuA/35Tyu4zlte2P3sCj5Md/JpyjlkPU54hHOfrQrxeeTpHzajPNpfFAqOZUeEoAUIAlIg/O4DpJpTFP/Zz/ncR3pkC734b6cx3Vhuva7WCTkyWd37YulRCDjo9l7algUrEyIsgl9PvzG58P5+IxeGBsUBcpKvwuvYLSLNZz7rXzKZo+FIp+QJLIO2bWb6f26T7vPZefPjcyMfOaWf/22vxbdrhvX63n0n+8UBT6f+3feLgr6t97nM/IpWTHyqZbrl6g/CENpfOF+kUK/7tP4bvZ/7ysGNkXcDcoEHw1rMDPahfJhLhejXSgfjnM+Ph/mdjGaxv3y9vmUzcYKRT5zzTxI5V//fUoU78dQH9bXrhTKim4VW9KZ6/PkfT3vMV/yw8inM4LPy04G0kalenUcQ+lmBc0rE7v5Dt1Ma77lBzbl43yi72rho8Fng5LRVQwVScoHn88h1nA+NeRWM2T07On9S0XB6Bo+n27Nau+mLbRKKy87qQT5kHkonSufTIricoR3P5kUBQ7mcPvux2dF8d4nNZRdAc3X/DDyaU/55G0nuX+9ohUjZz2WdyZmfc5+nTdf88OTT/T1Cr6rxVwsIpSJ20HZpCmf0UvrRcGsdu/ziZSVVz67Fol+tbQsyidvO6kE+aBUGBp/5d+OiOLA+zX84v0jonju/GRT/PidKVH804UaQgXUL9Lo1n3ma34Y+bSnfPK2k753uzCQblU0TSfvTOzmu3QjrfmaH9gWPh9mnXvlE313Cx8OyofRrXC0i+Ocj8+I0TMinBntCr/VXvQ4n7ztJDfyYQSm1TatIiIbr3wyJYpLH086oHhOfHhUFG/O1vDD82+Lgv0nZo+K4uTVcQcUED4gCiftOTo93urdmx1Lu0/Z84P3a/burfZxXVXJp9W7NztGfiRti2InA7B+yPL0j4kOheXp3/qYhu0LRSM622X5ZpkW7kvKPPYXJRN5nna34fum/U5Lv+z5wful5UN4nOsgH2aZE+HM6BQ+m9DnQx3wyufaiOjqhmGcD3FC9TqxTNSvNLJnsUO313DmvcL3TfvNdUnbothJbuTz2/92Un77hxMOl/5wQhTTfzgZ4S2Z/sNbTs3UVE3zFdGYvc7oFcrl2fOToth17ozDD86dkRpOyw/OnZaTHx5x2HdlVBQnP3zdAZ8Q0ytC3w+FllSoqfv//az8m37JM4pD+tdPpkTh8mI+5gdfMu1SvlSGfLqUH0krCRal3gycv/64KGIsf2pItI9LfzmM5nxw1x2i6NSzb+RTIx4jnxohd4OUY+Szb5mbf/XC4VWiQM0T53NidrMoWL/HK5/rI+4rpvQGmNvF9aRHBDU+n1D5rN66QBRpsXI8t2+8jHx6Sz5O6fz+TZn+/Zty4fcnHM5fPSE1nJTzV0/Kbz+aqiH6FjgK57cfnxXFpQgoFZQLvpw3Z18XBUrn5NUjojh99bDDqauHRXHy6usOKKZ3/jwliumPdHH7ucf/eKUTKZ5EpTNP8oNK1u18oRL7blfJyKfb+VGvL1NRjFux6o3vdqF86A/TP6a/7H0+0Yzh0LPf7kr9Rj5Nup1GPrUuaNgdz5gvkA+jXah1IpxRLtg4Nh/z+aB8ZjfJydlNglJibhfK56n9S0WxZc9iB/ygw9sWimJw6wKHrMrHyOfSOtHC6Tn5qOK5WsP5D98UxfPnJx1+fH5SbsA7k/LjdxpidN6ZkucU52tgUTGUCz6c/VdGRYHSOfD+a6I48/vDDgeujIrixOwRh13n1E+kmHL4wfkpUfz4nbMOKC76zIyGsY35hAL5HFM8v39TLjWg8vmR4OPpVr5UhXy6lR9aZ4pYb5hT6ZUP/dswpgHPPjETtCr0b4e23yqKdke7tNJVvrIZ+bi1lOhm+W2P8qVOPrXRJ9Q66j1UPth8ovKZqX3dgjqB8sEPymga3bx6nZjbCLCRDw7nw4OiBNRt8lHiwcczNXtCFM+em3R4c3ZcaqjF5+DDeWP2qCj2Xj7igEI5d31KFCifU1dfF8WB90cdUDq/fP81UfCb4yif7//mbVH85L0jDsdmjonih+enHC7+eUoU+JjoU/tRsU/Oyvuf6GgWqM2uTzIm9Xc5nxcKMPJ5VSU/GG0hP9Sp3OhY7na+lJ18up0fRas3lz6aEgX1xisf1rOt929v/C41/WfifJjB2+mqbUY+NeIx8mnwfUVd0E5J2ZOPn9u1VFT9EJGMKwElg/JJmttFnaiPdg3LS6eGYyPA1Im68umsN2DkM73OOdheOt1b8lEfz9nZEw6TMydE8YNzkw7HZ46K4qXLYw6MWk3MvC6Kn793xOH75yZF8ZvrUw4/PD8pCpQPo1kondO/HxUFvzleVz5n5Pu/OSM7z77t8P2zk6LguRhNY/v8O1Oi+KcI7308JYr3P6nBx/HgQE2qXJHPq2r58e7HU6Lw+RHGN3U5X0pPPl3Oj6LVG3xQz78zKQqvfGgFYPmkeSywPHE+nfp8jHziPi8jn6Ab2iYpQz74YHAVMAudBjU22hVFNCfF+RyaXi8KfEbPjw2Kglnz3G+uvQEfdFvRRqow5KOjWfh4UBY/OPe21HBjRLJGJStUlTice1u+f+5t+YffTDokKR98OiidNJ/PP547I4qfvzfmQMtBnBCKirigkx8eFQUjc+d/f1IUGp2teP+TSYfQqEJHO9dXLj+u1uK1iFynW9GrfKka+VTNTqg/p6++LoqY8qE/TCtRj2lYJur3YaX+ev+2M8++kU8tvEAVoJFPLeRgrpUtTj61CGdGpxitQsnwxdLQ58Nv4oDoDXjlEw3CeD8osW/PLHJfsGBd83ZHgKveSBWGfJ47N+lnm5+YfV1qqMXboDTwxbw5e0QUP39v1OFn742J4h/OTjpMXZsUBQrq1NUjokD5TP7+sCh+9f5rDvzmOPfZde60KPZeHnU48eERUeAbIl6I9Iknwgd07uoJURCxndbCn5t9UxSaF5XMjw9PyLkP6/lB5epVvlSVfKpiJ9QfeiIDzGvxLB8FGdJKEOdDzATzWObav61kZTPyuWGCrhJPLuQTfUEUnwwRzvgxR6fXi4I1nMM4H5QPflBGgBktIz18SvhB59obgJwJPEUJGvnsqw1bdot8nj33th/NQukcuPKaKFAav7gyKooTs4cdfvbeqCh+8t6Yw46zk6I48cEJByKUUSYwLUon3HKc++NbeunyqCh4DnxFXI9i4j4/Pv+2KNpVPr+ZfVMUmheVzI8P35RzH9bn7lG50pRPp/nilU/FyKfT/ChavXnl/ddEQT0a8CwfreTvWT4KMiQ61EdzRgUbzu1qt39bycrWpvKpilElknFe5BN9QdQrn8ODonbsv1garcnslU/KaBc+n7ryWeVih2I+n2gN5277fKpiJ4Uhn+fOv+3W0tH1dEKFgSL5xZXXRIFPJvT57JiaFAURyf/4m7dFgZIhHZg23HKc80Plc9LNeD/soqKbRUafUn/Qh7o29NsOnSofrmd9ocrkxxzJp9188cqnouTTbn4Urd6EPtfYaBcr9ePz8cpn31I3xYJul+/fblvovlra7qx2zcjKVbYOlU/Zjcorn5CMcyIf5h/ik/FxPtF3t1Ay+HR01UIFcT6+NxDN7SIuCOVEeqHy8XWiw/mOdEtDnw/Kp+x2UijygZlp6YlARpFwHEXi43zOnpHvnz0jO86+7eAjkqO5WVxHpUDxhC/PcUa1uA8+H5TP6as6Mz4eGd1t5cNzVyY/IB8dAbxaW7VSK1hWnw+VLWu+oHyqTj5Z8wN7Lkq9YZSL+hhTPvh8iGlgXgytCJ79OY926ULu0VIWlalsc1Q+lcuPnMkHZYJ6x2cTUz7R+j0oH0a/GAGO1YloZcRwJcO5+kGzKp+y2kmhyCep2wUZcRwGPz7zujjMHpHjipkaiPshQpnCQdnw0oxa8ZvjnE+cT6h8kq6LKZ9gaPn9jydFcekPb9YQhc0zhJpVTpc3P6LRrkj5kA+9ypdQ+ZSNfMifTrtdRbeTsOcRVz6J36VeJjriFfP5RF+vaHe92lY+n6JnIqRl5BMtyhYtXRLPj3zIB3XOSoPE5XjlE8WyoWxQOiifJJ8PvYEw9o37eeUT+UHbHQE28ukT+ehQ+77Low7Ey6Aw+I0C4SsURDq/HDvq0QAAIABJREFUdPk1URyfHXX4yXuvimLn2ZMOx2dGRXHyw8MO+JDYonzw6bw5e1gU3//NKYefvfeqKN6cPeTwiysHRYHvx8cjJTlYaekjpUNLxhblc3b2DVH84Nwph72XXxVFeN+TH+q7jMrLl2tAoTn1N6trG9Wum5g5JAryg/fh/SB13h8fG7853jUlGEVwn7/6higuXD3u8M7VCWkE+zmvXUX48pVRUaB8IIPSkU9gL+3bSc3e6/WmFrFPD6HfdnLg/VdFcerqIYcDVw6Kgt8+zodWINa/HYtiGggy3LNE1KHnWb7D73YZ+eiSIkY+SkI9I5/oW+r1uV21ZWKwcT/aleDz4TjnMwLslc/+2nxH3xt4ZpHoOs5Ja1x98Ts3iSJc0xnSpHFia+TTI/LR72jhwyHOBsXDb47/47nTopiYGXX4+eVXRHF0poY97x4QxfapCYcjHxwUxc/ee8XhxOwhUey/8prDqasaW6RRzK86HJt5TRT/99RxB9I7MvMrUUzMvOJwYvag1FBL7+TsEVE8d/6Mg0bzuojeaGVCjIjt9NU3RHFudsLhzMy4KHaefcPhyAeviOLozK8cJmZfEYeZV2XCoaZs/uHsCVGMz7zm8JP3fimKIx/8yoHnf2rquCgmZl5zePnKQVGg4H75/quiQPnQnUxTPlzPdSgmyu3Zc6dFMTkzEWFcJmfGZXL2iMPpmTFpBPvdOTPj8vbMhAO+Pp6H+6DY+I0iphJ75VNS8uncTmrlfGzmkCjoCfTLTvZefk0UKPc3Zw+K4vjsKw7HZn4lNfxSjs38UgaIcYDlfUzD6SG3iLyf1d5l5WPkM+GIx8hnzJNS18gnFmQYfbcr+lY7No7Nhz4ffhMBzUoP+IxQUk/vXyoKhvbnOgI890bKyCcmKxtlJq3TjqmT8g9nTzm8MXtEFD88d8rh+MxhUeyYOuXw1NQJUYx+8GuHQx8cEMXQ8W873DOxWRSrI3x14hFR/P3UEYcjM6+I4vvn3nCYmDkoiqfPTjiQHteR3lcnNovivuPfdjg8c0AUKA18LPhspmbfEMX5D2vAr3H+w2Oi+M3sUYdTM2OiOP671xyGJx4RBfe79/hmUXBfnu/Fd38hir+fGnf49e8OiOLeiW87fGVisyh4/nsnHhHF6AcHHH7y3i9EQYu0/8pBUaAE9115TRRvzB52wGdEi4aPDN/cGbcqpM6/q0Wivzk7Korvnz3h8OYHR0TBe6594xFR3OfeTd+vBvZz3hu/OyIKFN7PL78qCnxf+BJQtD97T1XuwbrPp6TkM1c7efWDA6LAPp6cHBdFt+zk9NVDoth/5VWHN2ZHRYHC+n/ffUUUKPDDHxwQxV8f/7bDmuObRHHv8W86xEa7aBXq36VeJRrRSZxPIsu3+Y0iIx8jn16RD99O90PtY4OiI14oF+J88HOidPxo17UR9xVTlBHr/4QRzsnzHWtrOLcb9W/k47/bNSxKQISSd5t8vjc5Ln8/edzhyAeviWLH2TcdDn9wUBT/1+SEw9a3j4ri7vFHHFYf+6Yo7r34kMNXLm4QxT0RvnrxYVGsnvimw73Hvy2KVz/YfwNQDJzHdaTHds3Fh0Rxz8RGB6479LtfiuLpqeMOpz44KoozMzW8PXNEFKdmRh3e+N2rovj6xCMOX5n4pijWXHzY4asXN4jD9Ab56vQGGZ5+yGH1hL7Lw+6d9b1XjtewYvxhUXz1wkMOPC/bv7r4sCjuntjosGZisyhokcZnfiWK465fflCOzdSAzwyf0U/ee0UUb8wecqgrptooxt7Lr4gCH9zfTx0VBcrrnolvieJr0xsd7p3eII1gP+ehQJ+cOiqK/+fdXzqgWPde/v9Ewf1QhKjqspJPp3ayZvphUayaqGHl+LdEsSLCfxl/WBRztZM3Zn8tCsrhyAe/FgVK6/nfviyKr0582+GeiYdFQf35q4sbRPGV6Rpiyof+bZJnn/Vq+Tpjkme/savV+D8GYuTziCMeI58NnpS6RT44nIlADiOcsXF8OqHy4TfKiN4AcT7eDxqNdnG/sE60q3yMfIjziZxz4bBit8jnvxz9lqw++ojDr/9tvzh4H0bNV7FyfLMovji+0eHz4xtEsfrCeoeVF9aKw8W1srIBg9MPiOLuixscUEgrJx6URtAS3HNxvSga09D/V1y834H73H3hAVF85cJDDiiQrxx7RBT/deqIw9HfHRTF3xx/xGHo+GZR0BKsGF8vinsu1ED64f1XT68Vh4sPyGqH9bL64npZPr42wt/I8vG/qeWB5gV5ML1WVk6vlcGLNfB+vO/dxx4WxZqJbzu8+rv9onhy6rDDmonHRIFy+ad3XxbFkZlfOtRHLWqjFygpfHChkrxneoMoVl96wGHw0lppBPs57ysXHxbFSlV5x77pW1KU66EPXhZF/X7fktUT36r7fKJlX8pGPl2zkwtaRzbM3U7GH5a7xx+WNcc2Oxz63cui+Kd39zqsOf5tUaw+tskBhfX58XWiWH3hAYfQvqlXceXDp3OiGcDesx/Oao9iGoa3LxRFu9GcRj5GPhBQ78inthIDEc6oeeJ28OmgdPD58JvjnM9KiP7rFf5b7UtE1U+7sW/E/dAbMPLpE/ksP7pWPn90ncOK8QdFgSq59+LDosCHM3jxAVGsuFDDXeN/LQ7H7pO7jt1XVyjT98tKxaUa6sa9VlZfWhuphxobKyuTzpcu3C81fF2+dOHrPj1N22H8PrmrEUe/Lncd/boMvrPe4Z4LD4tixbEa8NEMT28UxV9Nb3C45+IDokCR+PRT3oP3ce82fb986WKE6Ll5NlqUcMv73TX+dVF8fvx+h/9jfJ0oVh57sIZIGd57Uf1p35S/urjRAV/CV49/SxRUkl9/sFcUdd/VRllzcaPcfXG9Awp05aW1UkO9bPw7RWXlfkeKDQWHwkVprpp4UBSrI6yZfkgU2AmVmG4QfsqykE9h7OToX8tdR/9alr9+v8MXjq4TxUqtoy3qaU2dP+CVeJJ9Y58+wpmV/H3/Nup20V/Gsz+ye7Eo5tq/NfJZWyM2CK4FifqKGpGrkU+NgNLIx0+viGaho1ywcb5IitLxyida38crn8gVwWiZ9/lEQYy4ItpVPvhCIU0jn2AB+V6Rz11H73PsqgxL3/Dui+qnUb9ATamgXHzlo5WMKiEMetfEfdII9ofXsV/VjaL2DPfJl975ugMKgi2KIazs/nqvhmqKAoVGC0B3otP3WHnxfnHgvdlG+3m++vPW3iv+fDXlxv4VF+4XhVcY3qcU+ZamH5DVishHc7f6z6YfcCNwOgqHD23FxDpRfOHYNxwoR//cKNFwy3sFW18+kbLjvZYf+7ooyFeeJ7QTKjHKp2zkk7uduDp5n3zp/NcdqB9aRxWDFx5woBzC/A/rG0qdcvV1NGpwG5TPZlGmp1Xw3+1KmV6Bz6ddz76RT9RFnK45tbWAfOFEZOorMaTD1sjHkWFo/JAPc628wzmyYUar/GhXtFJhTPlEc71QPsQF4TNiEIZunY99i9Zwpk606wc18vHKpzYJj8XE/KdzgomlZHS75EMrrNuwkg3+dq0oVgdg/+Cl+0UB08KsKBT6muwPt7SofhsxPkxffzZ8QTduuY77kT7Pw/PxvFnfg3wgPciI32FLEiofnivchu8Tppf03Dw/lYItlX71RfWjRSOOF9be6Bcbv8/7prgf70P5hFuek+fnN9fz/v55AzspO/nkZicoHnoAwW/KAftMyn+ev243N9ZTX35R4xkb7fIsH4120e2CfJC0oc+nXZbnhXQ715fCOCEDjJr94Rbj9lsjH0fkIWnWjSgcGseBX1Tyqfkl+XoFI7b4bIhYTorzqa/ns0nUF8pol+8NRD4kunVJdaLdBpnKy7ae/0Eljiovdg2p85tKzu/URiogG98IR2REXZ1rPeW5SCdX8iFzPJNGiobMT9tSOLyUJ5/IF0OmQUZhIXF/rvOF1OAE1mvZz5b0yET//EFLnPb8HPfvgZqLjIv7cF+2vAdbnp/3YevPD96H4+Rbu88fPi/pcT+2ntyjbiTnJW15X66j/DjfP2eCndSVTzXIB/tgG+Y79ke+ke9ssQ+2yXYS+UC9DzPwERLvFtknjRTPlbaNPXeUTmxW+6FL60VBK1FXPstEWxI8+3Xl09k8FjWsrEaV9HL+pYJRoNB4KRwKgfuypVB8oQWVlf1sSY/C95XCyOcGoqYckvKd/GdLvnJd5+SzxK246ed2MdoVrdSAksGnk+TziUU4n665IlBSKCuUTzirfa7KJ7R7b+9db6TmGflgkLqlBYZRyeQw88PfnEfl90YcMDj7uQ/nJ27D0TTIKErXp0dL0CHptP0+0XP4+zOKhDEmbcP3CUYHyZes+R/mOyTsySN8zkjJJeZ39Ny8F9tGG8liJ3XlU03ywV7C/Pf5hd2H+Z/RTkiHbbv5z/OFW54X+8IOYqNdtAqMDODZD30+xDTgcG7X59P4Yu0aPy/HS/EyPtMohJAsMhYCz+PTM/K5wfkf5nthySeKwyEuBzXPiG6SzwclhDLifOoE6VEnGO3iu12d1gnsOm0b5r+3U+zeyOempuv60Dq5Ch61iMuP3ycKSITMbbcQlk/cJwoKg61PN/IVJKXPfs/QCYoBcuK8tOds9zjpch+I2r9P9Fycx3OH92E/55EPpAtptJv/pEt6/noUTkDy3J/revWc2BZD7XSLIIuqkA/5R75SnkWzE/+cUc8gtJe4w5mhdka7iPNhvdpgqL3TWe0uw4x8blAUvrAIJYgqcdGMChIJjQkyozJwnErCdbwnW/ZzHtf5dDLaCeSDDwafDz4a4nTSRru88pndLKqO/AhwEPVP+tyP3kCn32onP7JufX4V1E54D8qXcqWxyo18NON4GLZkJg/LwydtOY/rSIct+zkvKZ2k/cS1kB7buaabdD/287zch/uy5bk4P+s2Pd3akC7nJaXL8eTny5ZOt9Ofd+QTKYrkcqiFSCTlc9L+bpdvUnoD568/Loqk/m3d51Mb7ULSepbnu11PLBD17jNfJWmLgWiGUZnYkok8bFLmsJ/zuI502LKf87gu65ZKTnps55pu2v15Xu7DfdnyXGnphMfT081GGt1KJ3w+fneaPrbFiCzzEVkQj7ld+DWz+nyIiCbOh/S88omWbcXn0zflY+Sz0H0qpJNhRW9kZGK0xQizbruVTtL9ep1+Xved63vN9fqk9w73Z73PfCMf8ilr/nB+u9tupe/TidZzine7pte5Pi5rOCfF+RDTgGffyCc+HaTdQg7P94U1R3IO0+X3XNOf6/U8R9o2633q5LNYtuxe7OLS1OmMwxmfD6NXqH0imv2sdj+3K4pwTlpgLzar/Q55cNcdid/tSusNpOVD0vGs+ZN0fdr+bqXv0ykC+aS9tB3vPqFVOU/nK/mUtUx9nA/RnPX+7ZBoS8HEUj+Dd3ctgAvl4/u3bX69oqwZZs9dXEL05BMto4pPBvWO8vGjXRlntfs6weqeh2tfdCF9fEyxOvHEArfCZ5LiYT/PPd9sy8gnmDk/3wygSu9LJWboG3Iw8ilmg5Ho86lHcw6KFh4jBxSssXwxC7RKZNLuu4Tkg82GPh+UDKt3EtcT+nxY6dDH+aB8xlaJxg75We27l7g5j4wAz8UP2u47l/l8Ix9TPk0DHcto1EY+5WoQY+RDDAQxEcT54PMJlQ8s3+7crjIatz1zsY3bk0+kRFAmxOUwvQIbx8+ZpHxQRqz0gM8IJUW3jjrh43yi2DerE63txcjHlE/1lI+RTynK1DuciXkgBiKM5qT/HLK8KZ/W7G5qqX/5U1c+QZxP9K12bHr00npRYPNhnA+/OY7yifUG9i9zvlBmtXs/qCmfTORn5GPKJ5OhlIFEjXz6R/TdsIdYtwvPPv1j4nx8/zaStPWVDDufXtGNF7A0ymVwvSwvTz57FsuWPfUIZ2a1Y9OMdqX6fKJZ7fiIuJ70+DqGj/OJvl7R6UoPvcybIqZt5GPKp3rKx8inFGUaIx/P8qeGRPu4dZavfffaz2p/ZpFoH9d8PqY8itKqonywURYTw4aJXcOviU8HH08Y58NxfERe+RDhzNyuKKI6jPOx0a7WdcPIx5RPKVrJLARn5NO6smfJw36eM3Du2ogoYHmUD60EcT6sV0v/Fp/P8PZbRWEsX66C76eR9etennyi1TaJTfPKJ1qJEJ8PNp8c51P7ii/nM9rl/aD7lorWC5QWysd8PtnqQm7kg6HY9i/F8qC7ecDQd9nIZ77Zge924fmnP+yjOVnDOWJ5H+fzzCJR9eNntbc5g3e+ZbS9b3cJplV+os6JTWNiKT4bbDxR+VwbkfPXRoQ6QW+ANa7qvYFodc89i2Vkz2IhwrlTP2ird6risdzIB+eebf9OLA+6kwdU0LKSz3yzA08+tAI+zica7Xohig6txzTUokfnGs053zLa3rc7BNMqH2Pks2+ZqN0yFws/JkrmxOxmUeD3JG18QGGd4HrSo07g8wmVz+qtC0TBuj1JW56b+8+XbW7ks+7X/4uE2HXlS9IOwuvTfreTtp6bll543NKPl2ljHvU6f6jEXvmUjHx6nT9FS9+TT9i/xefDjGAinD3Lz9Hn02iU/F+0zOG5sm7t+YtBPjicsVnUO8oFnw82j9JBcfD75OwmUaCUqBMoH2bNazS1wo8Ab1sow9sWymCbq3vON/spBPnMt0zPSmacZ/mTjdRQPlUnH+wi67ao9uPJh/4tMQ20EowUPL1/qSgY7cLn06lnvzHjipo5jc/Y6n97/mzkkDWfWuV1s2OkWyef2ugTsWnYMDaN8sHmUTox5ROt8ezrRBQnRNwQo2l08/D5dBrnw3ukbZvlQat9aemFx1ul1exYeH3ab9LIlXzSHjI8zkNn3YbXp/3Omi7npaUXHue6rNvw+rTfWdPlvLT0wuNcl3UbXp/2O2u6nBemV3Xy4b2zbsP8SfudNV3OS0svPM51bGPk0695LPoA4cOl/eahs27T0guPZ02X88Lr035zXdZtWnrh8azpcl54fdpvrsu6TUsvPJ41Xc4Lr/fkE31hxSufKFaNOB+UDMonaW5XfA3nYXnp1LCf74hPid5AXfncKkMdRP2H7xP+5r2zbsPr035nTZfz0tILj3Md29zIJ3ywVr952KzbVmk1O5Y1Xc5rlkarfVyXddsqrWbHsqbLec3SaLWP67JuW6XV7FjWdDmvWRq6r6rkw3tn3SblT9L+rOlyXlI6Sfu5LtzGyIdWodfzWJIetNn+8KHTfjdLo9W+tPTC463SanYsvD7td7M0Wu1LSy883iqtZsfC69N+N0uj1b609MLjSWlBPvhg/PSKaBZ6fSXDdaJ+Hz/aFUU0J/p8pteLfusLn9HzY4OiYNY898MP2m2fT/j+ab+T8idpf1p64fGkdJL2h9fzu9Dkw0Nm3Sa9fNL+rOlyXlI6Sfu5Lus2KZ2k/VnT5bykdJL2c13WbVI6Sfuzpst5Semwv2rkw3tn3ZIPWbdZ0+W8rOlyHtclbQd0Dkse81h4wFbbpIdO2t8qrWbHktJJ2t8sjVb7ktJJ2t8qrWbHktJJ2t8sjVb7ktJJ2t8qrWbHktJJ2t8sjcZ9cfKpRTgzOkWcTv2LpbVvsYc+H36jjIj698rn8KDo/C7v8+G7XdEaV53Od2x8F/0/KR+S9ofXp/1OSidpf1p64fGkdNhfSPLh4bJuw5dO+501Xc5LSy88znVZt+H1ab+zpst5aemFx7ku6za8Pu131nQ5Ly09jleFfHjvrFveP+s2a7qclzVdzuO6tG2s2xWyPNGc3Z7HwoM226Y9dHi8WRqt9oXXp/1ulVazY2nphcebpdFqX3h92u9WaTU7lpZeeLxZGq32hden/W6VVuMxTz58qz1aaZAIZ/yYo9PrRXEyWqM5jPNB+TAaRoQzo2Wkh08pPtpVW9e83TWueJe0/AiPc13WbXh92u+s6XJeWnocLxT58FBZt7xs1m3WdDkva7qcx3VZt1yXdZs1Xc7Lmi7ncV3WLddl3WZNl/Oypst5ZScf3jvrlvfOus2aLudlTZfzuC7rtk4+BZjHkvWhOY+XzrrluqzbrOlyXtZ0OY/rsm65Lus2a7qclzVdzuO6rFuuy7rNmi7nQT7MP2Q0yvt8om+thxHOKJ2k0a5+xr5lzRs9j/fOum0n7X6knxv5JC0vYPtvSl2CwfKoeR6VnXzmW7nWyafP81jmW0bb+zYnjG7miyefkq7h3M28KENauZHP5Iv/mxgsD7ppA2Unn27mRRnS8uTT73ksZcgce8ZykSPkQ8Qxs86Z1c5oVejzCUe78op9m2/2lhv5XJh6WgyWB920gbKTTzfzogxpefKpxzT0Zx5LGTLHnrFc5Bgjn5Itozrf7M3IxxRYZRSokU+5GosBYhz6PY9lvrG8vW/vKwbkU9ZlVOebjRj5mPKpnPIx8uk90XeDKD351H0+69xq/YwM9GoeSzce3tIoh5H1q5zqyqecazj3K5+Kch8jH1M+FVQ+Rj5FIZhWzxFzODOrva58VskLY6via5fsWiQP7ur8W+2tHsqOmaLpxAa88inpGs6dvHOZrzHyMeVTPeVj5FOKMo11u4j+3HtqWBThF0uJHp3rSv1lZmx79mIqM5QPNsp6O9hw0ddwnm92ZeRjyqcUrWSWimnkU8xGIansfLeLOB9WbWO92qSVDNXf43w+2ztbtS3pgWx/uQyoSOUVJ59yreFcpLzsx7MY+ZjyqbDyMfLpB4l0eo/EbhfKR1fpdyv171sq+gVI1qv1ymfbQtHV+ttdr7bTB7brTBkl2YBXPiVdwznpvaq638jHlE/1lI+RTynK1He7wghnvnHklc/+ZS7Wh/VxNzyzSBRJX2f84nduEkW4ohqtU1XZ3N4rP2WGbW3ZvVgUrOHs1/OJRnBZk9l/vSLli6UW+9abMjXyMeVTilYyC6kb+fSGJLLkfSfn1Mkn+oaR/1b76SHRKGdW/n96/1JRMGlvrt+l7uRh7ZpyGVe/ywvywUZjcT58vWJ6naiaQe2zciFfr2ClB45b7Ftv7M7Ix5RP5ZSPkU9vyKLbjcnAuWsjooDl+Y51GOHMerix0a7tt8rQ9ltl9RMLHEIfT/ib1qnbL2LplcPgellO2Bbkw7fUvc8nUvP4cLD52BrO10dE91nsW29tysjHlE9llY+RT2/JY64Nie92wfL0b4nzIcKZgkT5hKNdpnyKXdBzNZQyXI/ywUaf2r9UFKxJxUoN2Dg2HyqfJJ8PdcKPAFvs25waLiMfUz5zMqAikZKRT7kaQE8+9H+Z27X31JAonh8bdKAVoVXxEc4Z53YR94OBFMlo7VnKZbRJ5YVtYaPE+TBiy6x2bBybD5UPvznO+Rb71l07MfIx5VNd5bNvmQs0NPLpLmkkkX+7+weIcfAsf2mdaKwP/WPv84kKkrVS2lU+jHrROrX7oHZ+MQ2oSOWCbcUjnFeJ2jHKBZ8PNo/SIc6H30RAW+xbb2zPyMeUT/WUT2x6hZFPkRoJniXW7SIGglYCzz7RosRQoHyGty8Uhc1q703rQEHZNj1/UT4je6IF5KP5iLHRrijCOXG0y2Lf+tIgGfmY8umLofWDPI180gm6H+WQ9R4NS2pskpMzm9w3u9S7z8iA9/lEMROMJFicT7kKOqtBlPk8yAcbfdp/q31QNMoZPyY+HHw6+HhCnw/KCB8RcT71OlFb6YH7WZ1or04Y+ZjyqZzygQyMfNojg343PL7bFWP508NO/TBMScwEBRvOarcI52IXdL8NK4/7xZXPUlFfJT4f/JjE7aSOds1sdnMeOd9i37pr40Y+pnwqrHyMfPJoBLLe05MPrUBi/zaax8JoF9/tstGu7rYGWQvOzovne6h8iMrHR4NywcZPzGwSRcznE61sSJ3AR4TPiPR8b2D3EtH4N0aAk1b3JNYt3PLc861MjXxM+VRW+Rj5xAm6SARXJ59oJcMwzoe1UMJZ7Z7l7esVlam8RTLMTp4FBcE6497hPLZKXhhbJYxWoWRQNjHlE63nw/GwTljsW3dIzcjHlE9lyNPIpzuk0Anxd3JNnXzw7Edzu4jz4TvXXvlEoev4fPSbXfbdrnIVeieGUoZr6uSzWEYavl7BiC0+G1brTIrzqa/nY7FvvSx3Ix9TPhVUPkY+vSSNbqXdQD4Ry3vlM+RmAdO/jXv275AHd92R+N2u0KPPb1qnbr2ApWOqCxvAtvD5oNYZnaorn3Uukh+fTpLPx2LfemtbRj6mfCqofJaIEpCRT2/JA9LvdNtAPlE0J8on+sZR3OcTxTQ8s0g0ytl8PsUu4E4No4zXxZRPtAZVqHyI80ny+aCEUEacz2gZ6T1lsW9zariMfEz5zMmAikRSRj7lagg9+RDt6WMaUD5jq9xXSwnYClcyJMLZ5naVq+CLRBrdehbIh/mHdLsY7arP7VovOuKVqnws9q2nDZORjymfnhpYt4glSzpGPuVqAD356Fo+bj2fS+vl0KX1fr1b37+NVoWjVfFxPhm/XmGjXeUyjCyVvWjnePKJ5lrxlV38lsztYpZ6qvKx2LeeNkxGPqZ8empg/SQoI59yNXANi4kx2lVTPrQSxPnQijCrPVzPx9ZwLlfB95MU+nWvOvksFv2CBbFpqHd8PoxeMZpFRHO4kmG9N1D7ogvXUydIv+4Htdi3dsrayMeUTwWVj5FPOySQ17n1blfk2ac/TDQoIwXMEK6z/CK3fomtXWKKJy/jDe/rlc+eJaK+SUa7WJkB5eLndkU+HeJ64sqH3kCkfBgBPrxK1I9E+r5OWOxbWw2ZkY8pn7YMJqzwRfpt5FOuhrBOPlErMHppvSi88oHl+WJp1Kqwng9xPubzKVfBF4k0uvUsIfngpwx9PvX1fGojvEnKx2LfemvTRj6mfCqrfIx8eksec200YuRDq8Bol64Ap/DzWHbXJu2hfMznU+wCnquBlOl6r3yiOB+i8n2cz+kOyeaHAAAEB0lEQVQhp+jxazJrPUn51Ee7LPatF3Zg5GPKp3rKx8inFGU6cD5aqZ9WgFZh7+lhUYQxDXwHmwhn8/mY8ulFq9hJmqHy0W92KVA+rM5JnA82Tx1IHO2ars0FY1b782ODoojF+TDaZVH/mcjPyMeUTyZD6YQM+n2NkU+5GsJYtyuc1c5IAXE+rBIXKp/VWxeIgjlcSVsMpN+Gafcrl2F2Ul7YFnE32CyxavE4n9poVxjhzG+UUVgnfG+A+Y58twvlY+uaZ2rQjHxM+WQylE7IoN/XGPmUq4Gpk8/sJjk5u8mtbat+H1oJlA8jB1v2LBbFhmcWOQxvWyiKwa0LHJIUD/sxkH4bpt2vXIbZSXlhW6y8gE+Gb7Uzgjs6vV4USbPaUT7M/ar7QWujZaSHT4n70RuwEeBstmbkY8qnesqH6RUsozo2KEoYRj7ZSKET4u/kmjr5xNYuib5eEa1kSMAW/Wlj+WIVZCeFX7VrUD74JVE+3ucTzc1itAtlg9JJGu2yqP/e2LqRjymfyikfI5/ekEW3GytPPvF5LMPy0qlht36zthx+Bm8kaevK51YZ2n6r2NyuchR4tw2oSOl55bNniei6U/hkvPI5XVPzRPGjfJIjnG+c1U63zaL+u2PrRj6mfKqnfIx8SlGmnnxoBVjrxKI5u8PuRVIGVX8WlA9+SfyUrOfDSg2hzyemfCzqvy/kZeRjyqcvhtYP4jPyKVeD6ZdRtWjOchVcPypz2e4RIx+b21XohsXIx5RPoQ20HQI08ilXA+rJp+7zWeeinOkfWzRnuQq0ncpatXPj5LNMdH5XbLQrmqXOej1hnA+/rTfQW9s38jHlU2HlY+RT5AYm5nC2aM7esn2RjaHsz+aVj02vKEWDYuRjyqcUhpqFGI18ytVwxsiH6E+L5ixXQWapnFU/B/Kx6RXlsF0jH1M+lVM+Rj5lIR+L5qxM5au6skl7P698bHpFKWza1nA25VMKQ00jHj1u5FMOxUNZxrpd4Xq1rGTIerhIWma18/UKW8O5XAWPAVRpC/nY3K5y2KKRjymfyikfI5+ykY+t4VyZSlglNdPOu8SUz75akCHqnZUaWJP5xOxmUZy7NuKQuJLh9DrRHgHXk571BuZGcnXlY+Rj5FNyFWjkMzcyaIfou3FunXxsDWcjn4qQj65iqGD1TeYnolxYz4e5W7H1fK6PiO7Tr7nYF116R2hGPiWvcN1ogaqSBsrHyKd3hNFNW/HkY2s4l6PAuln4VUurTj6LZWTPYnlq31IHVjIMlQ8rOSQqH+sN9LQ3YORjyqenBtZPgjPyKVcD6smHVsDWcC5XAfazchf9Xp58di8RjUfzymdslegXJ1ijivmL2Dzr94SjXdYb6G1d+P8BHBCQfXsM5lQAAAAASUVORK5CYII=;" vertex="1" parent="1">
          <mxGeometry x="120" y="120" width="287" height="511" as="geometry" />
        </mxCell>
        <mxCell id="1uEtQ7aiUFXIfoO98c6w-2" value="" style="ellipse;whiteSpace=wrap;html=1;aspect=fixed;fillColor=#FF0000;" vertex="1" parent="1">
          <mxGeometry x="187" y="320" width="10" height="10" as="geometry" />
        </mxCell>
        <mxCell id="1uEtQ7aiUFXIfoO98c6w-3" value="" style="ellipse;whiteSpace=wrap;html=1;aspect=fixed;fillColor=#FF0000;" vertex="1" parent="1">
          <mxGeometry x="343" y="355" width="10" height="10" as="geometry" />
        </mxCell>
        <mxCell id="1uEtQ7aiUFXIfoO98c6w-4" value="" style="ellipse;whiteSpace=wrap;html=1;aspect=fixed;fillColor=#FF0000;" vertex="1" parent="1">
          <mxGeometry x="343" y="232" width="10" height="10" as="geometry" />
        </mxCell>
        <mxCell id="1uEtQ7aiUFXIfoO98c6w-6" value="" style="endArrow=none;dashed=1;html=1;rounded=0;strokeColor=#FF0000;" edge="1" parent="1">
          <mxGeometry width="50" height="50" relative="1" as="geometry">
            <mxPoint x="120" y="359" as="sourcePoint" />
            <mxPoint x="298" y="359" as="targetPoint" />
          </mxGeometry>
        </mxCell>
        <mxCell id="1uEtQ7aiUFXIfoO98c6w-7" value="" style="endArrow=classic;startArrow=classic;html=1;rounded=0;entryX=0.5;entryY=1;entryDx=0;entryDy=0;fillColor=#f8cecc;strokeColor=#FF0000;" edge="1" parent="1" target="1uEtQ7aiUFXIfoO98c6w-2">
          <mxGeometry width="50" height="50" relative="1" as="geometry">
            <mxPoint x="192" y="359" as="sourcePoint" />
            <mxPoint x="260" y="340" as="targetPoint" />
          </mxGeometry>
        </mxCell>
        <mxCell id="1uEtQ7aiUFXIfoO98c6w-8" value="" style="endArrow=none;dashed=1;html=1;rounded=0;strokeColor=#FF0000;" edge="1" parent="1">
          <mxGeometry width="50" height="50" relative="1" as="geometry">
            <mxPoint x="348" y="359" as="sourcePoint" />
            <mxPoint x="348" y="237" as="targetPoint" />
          </mxGeometry>
        </mxCell>
        <mxCell id="1uEtQ7aiUFXIfoO98c6w-9" value="" style="endArrow=classic;startArrow=classic;html=1;rounded=0;fillColor=#f8cecc;strokeColor=#FF0000;entryX=1;entryY=0.5;entryDx=0;entryDy=0;" edge="1" parent="1" target="1uEtQ7aiUFXIfoO98c6w-2">
          <mxGeometry width="50" height="50" relative="1" as="geometry">
            <mxPoint x="348" y="325" as="sourcePoint" />
            <mxPoint x="200" y="325" as="targetPoint" />
          </mxGeometry>
        </mxCell>
        <mxCell id="1uEtQ7aiUFXIfoO98c6w-10" value="" style="endArrow=classic;startArrow=classic;html=1;rounded=0;fillColor=#f8cecc;strokeColor=#FF0000;exitX=0.5;exitY=0;exitDx=0;exitDy=0;" edge="1" parent="1" source="1uEtQ7aiUFXIfoO98c6w-2">
          <mxGeometry width="50" height="50" relative="1" as="geometry">
            <mxPoint x="219" y="291" as="sourcePoint" />
            <mxPoint x="192" y="120" as="targetPoint" />
          </mxGeometry>
        </mxCell>
        <mxCell id="1uEtQ7aiUFXIfoO98c6w-11" value="&lt;b&gt;&lt;font color=&quot;#ff0000&quot;&gt;B&lt;span style=&quot;font-size: 10px;&quot;&gt;&lt;sub&gt;Y&lt;/sub&gt;&lt;/span&gt;&lt;/font&gt;&lt;/b&gt;" style="text;html=1;strokeColor=none;fillColor=none;align=center;verticalAlign=middle;whiteSpace=wrap;rounded=0;" vertex="1" parent="1">
          <mxGeometry x="172" y="222" width="60" height="30" as="geometry" />
        </mxCell>
        <mxCell id="1uEtQ7aiUFXIfoO98c6w-12" value="&lt;b&gt;&lt;font color=&quot;#ff0000&quot;&gt;Bp&lt;/font&gt;&lt;/b&gt;&lt;b style=&quot;border-color: var(--border-color);&quot;&gt;&lt;font style=&quot;border-color: var(--border-color);&quot; color=&quot;#ff0000&quot;&gt;&lt;sub style=&quot;border-color: var(--border-color);&quot;&gt;&lt;font style=&quot;border-color: var(--border-color); font-size: 8.33333px;&quot;&gt;X&lt;/font&gt;&lt;/sub&gt;&lt;/font&gt;&lt;/b&gt;&lt;b&gt;&lt;font color=&quot;#ff0000&quot;&gt;&amp;nbsp;/ Tp&lt;/font&gt;&lt;/b&gt;&lt;b style=&quot;border-color: var(--border-color);&quot;&gt;&lt;font style=&quot;border-color: var(--border-color);&quot; color=&quot;#ff0000&quot;&gt;&lt;sub style=&quot;border-color: var(--border-color);&quot;&gt;&lt;font style=&quot;border-color: var(--border-color); font-size: 8.33333px;&quot;&gt;X&lt;/font&gt;&lt;/sub&gt;&lt;/font&gt;&lt;/b&gt;" style="text;html=1;strokeColor=none;fillColor=none;align=center;verticalAlign=middle;whiteSpace=wrap;rounded=0;" vertex="1" parent="1">
          <mxGeometry x="241" y="300" width="60" height="30" as="geometry" />
        </mxCell>
        <mxCell id="1uEtQ7aiUFXIfoO98c6w-13" value="&lt;b&gt;&lt;font color=&quot;#ff0000&quot;&gt;Bp&lt;/font&gt;&lt;/b&gt;&lt;b style=&quot;border-color: var(--border-color);&quot;&gt;&lt;font style=&quot;border-color: var(--border-color);&quot; color=&quot;#ff0000&quot;&gt;&lt;sub style=&quot;border-color: var(--border-color);&quot;&gt;&lt;font style=&quot;border-color: var(--border-color); font-size: 8.33333px;&quot;&gt;Y&lt;/font&gt;&lt;/sub&gt;&lt;/font&gt;&lt;/b&gt;" style="text;html=1;strokeColor=none;fillColor=none;align=center;verticalAlign=middle;whiteSpace=wrap;rounded=0;" vertex="1" parent="1">
          <mxGeometry x="181" y="332" width="60" height="30" as="geometry" />
        </mxCell>
        <mxCell id="1uEtQ7aiUFXIfoO98c6w-14" value="" style="endArrow=none;dashed=1;html=1;rounded=0;strokeColor=#FF0000;" edge="1" parent="1">
          <mxGeometry width="50" height="50" relative="1" as="geometry">
            <mxPoint x="223" y="237" as="sourcePoint" />
            <mxPoint x="348" y="237" as="targetPoint" />
          </mxGeometry>
        </mxCell>
        <mxCell id="1uEtQ7aiUFXIfoO98c6w-15" value="" style="endArrow=classic;startArrow=classic;html=1;rounded=0;fillColor=#f8cecc;strokeColor=#FF0000;" edge="1" parent="1">
          <mxGeometry width="50" height="50" relative="1" as="geometry">
            <mxPoint x="223" y="325" as="sourcePoint" />
            <mxPoint x="223" y="237" as="targetPoint" />
          </mxGeometry>
        </mxCell>
        <mxCell id="1uEtQ7aiUFXIfoO98c6w-16" value="&lt;b&gt;&lt;font color=&quot;#ff0000&quot;&gt;Tp&lt;sub&gt;&lt;font style=&quot;font-size: 8.33333px;&quot;&gt;Y&lt;/font&gt;&lt;/sub&gt;&lt;/font&gt;&lt;/b&gt;" style="text;html=1;strokeColor=none;fillColor=none;align=center;verticalAlign=middle;whiteSpace=wrap;rounded=0;" vertex="1" parent="1">
          <mxGeometry x="210" y="260" width="60" height="30" as="geometry" />
        </mxCell>
        <mxCell id="1uEtQ7aiUFXIfoO98c6w-31" style="rounded=0;orthogonalLoop=1;jettySize=auto;html=1;endArrow=none;endFill=0;" edge="1" parent="1" source="1uEtQ7aiUFXIfoO98c6w-17" target="1uEtQ7aiUFXIfoO98c6w-23">
          <mxGeometry relative="1" as="geometry" />
        </mxCell>
        <mxCell id="1uEtQ7aiUFXIfoO98c6w-17" value="" style="ellipse;whiteSpace=wrap;html=1;aspect=fixed;" vertex="1" parent="1">
          <mxGeometry x="480" y="120" width="40" height="40" as="geometry" />
        </mxCell>
        <mxCell id="1uEtQ7aiUFXIfoO98c6w-18" value="" style="ellipse;whiteSpace=wrap;html=1;aspect=fixed;" vertex="1" parent="1">
          <mxGeometry x="480" y="202" width="40" height="40" as="geometry" />
        </mxCell>
        <mxCell id="1uEtQ7aiUFXIfoO98c6w-19" value="" style="ellipse;whiteSpace=wrap;html=1;aspect=fixed;" vertex="1" parent="1">
          <mxGeometry x="600" y="160" width="40" height="40" as="geometry" />
        </mxCell>
        <mxCell id="1uEtQ7aiUFXIfoO98c6w-20" value="" style="ellipse;whiteSpace=wrap;html=1;aspect=fixed;" vertex="1" parent="1">
          <mxGeometry x="480" y="280" width="40" height="40" as="geometry" />
        </mxCell>
        <mxCell id="1uEtQ7aiUFXIfoO98c6w-21" value="" style="ellipse;whiteSpace=wrap;html=1;aspect=fixed;" vertex="1" parent="1">
          <mxGeometry x="480" y="362" width="40" height="40" as="geometry" />
        </mxCell>
        <mxCell id="1uEtQ7aiUFXIfoO98c6w-22" value="" style="ellipse;whiteSpace=wrap;html=1;aspect=fixed;" vertex="1" parent="1">
          <mxGeometry x="480" y="440" width="40" height="40" as="geometry" />
        </mxCell>
        <mxCell id="1uEtQ7aiUFXIfoO98c6w-23" value="" style="ellipse;whiteSpace=wrap;html=1;aspect=fixed;" vertex="1" parent="1">
          <mxGeometry x="600" y="80" width="40" height="40" as="geometry" />
        </mxCell>
        <mxCell id="1uEtQ7aiUFXIfoO98c6w-24" value="" style="ellipse;whiteSpace=wrap;html=1;aspect=fixed;" vertex="1" parent="1">
          <mxGeometry x="600" y="240" width="40" height="40" as="geometry" />
        </mxCell>
        <mxCell id="1uEtQ7aiUFXIfoO98c6w-25" value="" style="ellipse;whiteSpace=wrap;html=1;aspect=fixed;" vertex="1" parent="1">
          <mxGeometry x="600" y="320" width="40" height="40" as="geometry" />
        </mxCell>
        <mxCell id="1uEtQ7aiUFXIfoO98c6w-26" value="" style="ellipse;whiteSpace=wrap;html=1;aspect=fixed;" vertex="1" parent="1">
          <mxGeometry x="600" y="400" width="40" height="40" as="geometry" />
        </mxCell>
        <mxCell id="1uEtQ7aiUFXIfoO98c6w-27" value="" style="ellipse;whiteSpace=wrap;html=1;aspect=fixed;" vertex="1" parent="1">
          <mxGeometry x="600" y="480" width="40" height="40" as="geometry" />
        </mxCell>
        <mxCell id="1uEtQ7aiUFXIfoO98c6w-28" value="" style="ellipse;whiteSpace=wrap;html=1;aspect=fixed;" vertex="1" parent="1">
          <mxGeometry x="720" y="200" width="40" height="40" as="geometry" />
        </mxCell>
        <mxCell id="1uEtQ7aiUFXIfoO98c6w-29" value="" style="ellipse;whiteSpace=wrap;html=1;aspect=fixed;" vertex="1" parent="1">
          <mxGeometry x="720" y="280" width="40" height="40" as="geometry" />
        </mxCell>
        <mxCell id="1uEtQ7aiUFXIfoO98c6w-30" value="" style="ellipse;whiteSpace=wrap;html=1;aspect=fixed;" vertex="1" parent="1">
          <mxGeometry x="720" y="360" width="40" height="40" as="geometry" />
        </mxCell>
        <mxCell id="1uEtQ7aiUFXIfoO98c6w-33" style="rounded=0;orthogonalLoop=1;jettySize=auto;html=1;endArrow=none;endFill=0;" edge="1" parent="1" source="1uEtQ7aiUFXIfoO98c6w-17" target="1uEtQ7aiUFXIfoO98c6w-19">
          <mxGeometry relative="1" as="geometry">
            <mxPoint x="529" y="144" as="sourcePoint" />
            <mxPoint x="611" y="116" as="targetPoint" />
          </mxGeometry>
        </mxCell>
        <mxCell id="1uEtQ7aiUFXIfoO98c6w-34" style="rounded=0;orthogonalLoop=1;jettySize=auto;html=1;endArrow=none;endFill=0;" edge="1" parent="1" source="1uEtQ7aiUFXIfoO98c6w-17" target="1uEtQ7aiUFXIfoO98c6w-24">
          <mxGeometry relative="1" as="geometry">
            <mxPoint x="539" y="154" as="sourcePoint" />
            <mxPoint x="621" y="126" as="targetPoint" />
          </mxGeometry>
        </mxCell>
        <mxCell id="1uEtQ7aiUFXIfoO98c6w-35" style="rounded=0;orthogonalLoop=1;jettySize=auto;html=1;endArrow=none;endFill=0;" edge="1" parent="1" source="1uEtQ7aiUFXIfoO98c6w-17" target="1uEtQ7aiUFXIfoO98c6w-25">
          <mxGeometry relative="1" as="geometry">
            <mxPoint x="549" y="164" as="sourcePoint" />
            <mxPoint x="631" y="136" as="targetPoint" />
          </mxGeometry>
        </mxCell>
        <mxCell id="1uEtQ7aiUFXIfoO98c6w-36" style="rounded=0;orthogonalLoop=1;jettySize=auto;html=1;endArrow=none;endFill=0;" edge="1" parent="1" source="1uEtQ7aiUFXIfoO98c6w-17" target="1uEtQ7aiUFXIfoO98c6w-26">
          <mxGeometry relative="1" as="geometry">
            <mxPoint x="559" y="174" as="sourcePoint" />
            <mxPoint x="641" y="146" as="targetPoint" />
          </mxGeometry>
        </mxCell>
        <mxCell id="1uEtQ7aiUFXIfoO98c6w-37" style="rounded=0;orthogonalLoop=1;jettySize=auto;html=1;endArrow=none;endFill=0;" edge="1" parent="1" source="1uEtQ7aiUFXIfoO98c6w-17" target="1uEtQ7aiUFXIfoO98c6w-27">
          <mxGeometry relative="1" as="geometry">
            <mxPoint x="569" y="184" as="sourcePoint" />
            <mxPoint x="651" y="156" as="targetPoint" />
          </mxGeometry>
        </mxCell>
        <mxCell id="1uEtQ7aiUFXIfoO98c6w-38" style="rounded=0;orthogonalLoop=1;jettySize=auto;html=1;endArrow=none;endFill=0;" edge="1" parent="1" source="1uEtQ7aiUFXIfoO98c6w-18" target="1uEtQ7aiUFXIfoO98c6w-23">
          <mxGeometry relative="1" as="geometry">
            <mxPoint x="579" y="194" as="sourcePoint" />
            <mxPoint x="661" y="166" as="targetPoint" />
          </mxGeometry>
        </mxCell>
        <mxCell id="1uEtQ7aiUFXIfoO98c6w-39" style="rounded=0;orthogonalLoop=1;jettySize=auto;html=1;endArrow=none;endFill=0;" edge="1" parent="1" source="1uEtQ7aiUFXIfoO98c6w-18" target="1uEtQ7aiUFXIfoO98c6w-19">
          <mxGeometry relative="1" as="geometry">
            <mxPoint x="589" y="204" as="sourcePoint" />
            <mxPoint x="671" y="176" as="targetPoint" />
          </mxGeometry>
        </mxCell>
        <mxCell id="1uEtQ7aiUFXIfoO98c6w-40" style="rounded=0;orthogonalLoop=1;jettySize=auto;html=1;endArrow=none;endFill=0;" edge="1" parent="1" source="1uEtQ7aiUFXIfoO98c6w-18" target="1uEtQ7aiUFXIfoO98c6w-24">
          <mxGeometry relative="1" as="geometry">
            <mxPoint x="599" y="214" as="sourcePoint" />
            <mxPoint x="681" y="186" as="targetPoint" />
          </mxGeometry>
        </mxCell>
        <mxCell id="1uEtQ7aiUFXIfoO98c6w-41" style="rounded=0;orthogonalLoop=1;jettySize=auto;html=1;endArrow=none;endFill=0;" edge="1" parent="1" source="1uEtQ7aiUFXIfoO98c6w-18" target="1uEtQ7aiUFXIfoO98c6w-25">
          <mxGeometry relative="1" as="geometry">
            <mxPoint x="609" y="224" as="sourcePoint" />
            <mxPoint x="550" y="370" as="targetPoint" />
          </mxGeometry>
        </mxCell>
        <mxCell id="1uEtQ7aiUFXIfoO98c6w-42" style="rounded=0;orthogonalLoop=1;jettySize=auto;html=1;endArrow=none;endFill=0;" edge="1" parent="1" source="1uEtQ7aiUFXIfoO98c6w-18" target="1uEtQ7aiUFXIfoO98c6w-26">
          <mxGeometry relative="1" as="geometry">
            <mxPoint x="619" y="234" as="sourcePoint" />
            <mxPoint x="701" y="206" as="targetPoint" />
          </mxGeometry>
        </mxCell>
        <mxCell id="1uEtQ7aiUFXIfoO98c6w-43" style="rounded=0;orthogonalLoop=1;jettySize=auto;html=1;endArrow=none;endFill=0;" edge="1" parent="1" source="1uEtQ7aiUFXIfoO98c6w-18" target="1uEtQ7aiUFXIfoO98c6w-27">
          <mxGeometry relative="1" as="geometry">
            <mxPoint x="629" y="244" as="sourcePoint" />
            <mxPoint x="711" y="216" as="targetPoint" />
          </mxGeometry>
        </mxCell>
        <mxCell id="1uEtQ7aiUFXIfoO98c6w-44" style="rounded=0;orthogonalLoop=1;jettySize=auto;html=1;endArrow=none;endFill=0;" edge="1" parent="1" source="1uEtQ7aiUFXIfoO98c6w-20" target="1uEtQ7aiUFXIfoO98c6w-23">
          <mxGeometry relative="1" as="geometry">
            <mxPoint x="639" y="254" as="sourcePoint" />
            <mxPoint x="721" y="226" as="targetPoint" />
          </mxGeometry>
        </mxCell>
        <mxCell id="1uEtQ7aiUFXIfoO98c6w-45" style="rounded=0;orthogonalLoop=1;jettySize=auto;html=1;endArrow=none;endFill=0;" edge="1" parent="1" source="1uEtQ7aiUFXIfoO98c6w-20" target="1uEtQ7aiUFXIfoO98c6w-19">
          <mxGeometry relative="1" as="geometry">
            <mxPoint x="649" y="264" as="sourcePoint" />
            <mxPoint x="731" y="236" as="targetPoint" />
          </mxGeometry>
        </mxCell>
        <mxCell id="1uEtQ7aiUFXIfoO98c6w-46" style="rounded=0;orthogonalLoop=1;jettySize=auto;html=1;endArrow=none;endFill=0;" edge="1" parent="1" source="1uEtQ7aiUFXIfoO98c6w-20" target="1uEtQ7aiUFXIfoO98c6w-24">
          <mxGeometry relative="1" as="geometry">
            <mxPoint x="659" y="274" as="sourcePoint" />
            <mxPoint x="741" y="246" as="targetPoint" />
          </mxGeometry>
        </mxCell>
        <mxCell id="1uEtQ7aiUFXIfoO98c6w-47" style="rounded=0;orthogonalLoop=1;jettySize=auto;html=1;endArrow=none;endFill=0;" edge="1" parent="1" source="1uEtQ7aiUFXIfoO98c6w-20" target="1uEtQ7aiUFXIfoO98c6w-25">
          <mxGeometry relative="1" as="geometry">
            <mxPoint x="669" y="284" as="sourcePoint" />
            <mxPoint x="751" y="256" as="targetPoint" />
          </mxGeometry>
        </mxCell>
        <mxCell id="1uEtQ7aiUFXIfoO98c6w-48" style="rounded=0;orthogonalLoop=1;jettySize=auto;html=1;endArrow=none;endFill=0;" edge="1" parent="1" source="1uEtQ7aiUFXIfoO98c6w-20" target="1uEtQ7aiUFXIfoO98c6w-26">
          <mxGeometry relative="1" as="geometry">
            <mxPoint x="679" y="294" as="sourcePoint" />
            <mxPoint x="761" y="266" as="targetPoint" />
          </mxGeometry>
        </mxCell>
        <mxCell id="1uEtQ7aiUFXIfoO98c6w-49" style="rounded=0;orthogonalLoop=1;jettySize=auto;html=1;endArrow=none;endFill=0;" edge="1" parent="1" source="1uEtQ7aiUFXIfoO98c6w-20" target="1uEtQ7aiUFXIfoO98c6w-27">
          <mxGeometry relative="1" as="geometry">
            <mxPoint x="689" y="304" as="sourcePoint" />
            <mxPoint x="771" y="276" as="targetPoint" />
          </mxGeometry>
        </mxCell>
        <mxCell id="1uEtQ7aiUFXIfoO98c6w-50" style="rounded=0;orthogonalLoop=1;jettySize=auto;html=1;endArrow=none;endFill=0;" edge="1" parent="1" source="1uEtQ7aiUFXIfoO98c6w-21" target="1uEtQ7aiUFXIfoO98c6w-23">
          <mxGeometry relative="1" as="geometry">
            <mxPoint x="699" y="314" as="sourcePoint" />
            <mxPoint x="781" y="286" as="targetPoint" />
          </mxGeometry>
        </mxCell>
        <mxCell id="1uEtQ7aiUFXIfoO98c6w-51" style="rounded=0;orthogonalLoop=1;jettySize=auto;html=1;endArrow=none;endFill=0;" edge="1" parent="1" source="1uEtQ7aiUFXIfoO98c6w-21" target="1uEtQ7aiUFXIfoO98c6w-19">
          <mxGeometry relative="1" as="geometry">
            <mxPoint x="709" y="324" as="sourcePoint" />
            <mxPoint x="791" y="296" as="targetPoint" />
          </mxGeometry>
        </mxCell>
        <mxCell id="1uEtQ7aiUFXIfoO98c6w-52" style="rounded=0;orthogonalLoop=1;jettySize=auto;html=1;endArrow=none;endFill=0;" edge="1" parent="1" source="1uEtQ7aiUFXIfoO98c6w-21" target="1uEtQ7aiUFXIfoO98c6w-24">
          <mxGeometry relative="1" as="geometry">
            <mxPoint x="719" y="334" as="sourcePoint" />
            <mxPoint x="801" y="306" as="targetPoint" />
          </mxGeometry>
        </mxCell>
        <mxCell id="1uEtQ7aiUFXIfoO98c6w-53" style="rounded=0;orthogonalLoop=1;jettySize=auto;html=1;endArrow=none;endFill=0;" edge="1" parent="1" source="1uEtQ7aiUFXIfoO98c6w-21" target="1uEtQ7aiUFXIfoO98c6w-25">
          <mxGeometry relative="1" as="geometry">
            <mxPoint x="729" y="344" as="sourcePoint" />
            <mxPoint x="811" y="316" as="targetPoint" />
          </mxGeometry>
        </mxCell>
        <mxCell id="1uEtQ7aiUFXIfoO98c6w-54" style="rounded=0;orthogonalLoop=1;jettySize=auto;html=1;endArrow=none;endFill=0;" edge="1" parent="1" source="1uEtQ7aiUFXIfoO98c6w-21" target="1uEtQ7aiUFXIfoO98c6w-26">
          <mxGeometry relative="1" as="geometry">
            <mxPoint x="739" y="354" as="sourcePoint" />
            <mxPoint x="821" y="326" as="targetPoint" />
          </mxGeometry>
        </mxCell>
        <mxCell id="1uEtQ7aiUFXIfoO98c6w-56" style="rounded=0;orthogonalLoop=1;jettySize=auto;html=1;endArrow=none;endFill=0;" edge="1" parent="1" source="1uEtQ7aiUFXIfoO98c6w-21" target="1uEtQ7aiUFXIfoO98c6w-27">
          <mxGeometry relative="1" as="geometry">
            <mxPoint x="749" y="364" as="sourcePoint" />
            <mxPoint x="831" y="336" as="targetPoint" />
          </mxGeometry>
        </mxCell>
        <mxCell id="1uEtQ7aiUFXIfoO98c6w-57" style="rounded=0;orthogonalLoop=1;jettySize=auto;html=1;endArrow=none;endFill=0;" edge="1" parent="1" source="1uEtQ7aiUFXIfoO98c6w-22" target="1uEtQ7aiUFXIfoO98c6w-27">
          <mxGeometry relative="1" as="geometry">
            <mxPoint x="524" y="406" as="sourcePoint" />
            <mxPoint x="616" y="496" as="targetPoint" />
          </mxGeometry>
        </mxCell>
        <mxCell id="1uEtQ7aiUFXIfoO98c6w-58" style="rounded=0;orthogonalLoop=1;jettySize=auto;html=1;endArrow=none;endFill=0;" edge="1" parent="1" source="1uEtQ7aiUFXIfoO98c6w-22" target="1uEtQ7aiUFXIfoO98c6w-26">
          <mxGeometry relative="1" as="geometry">
            <mxPoint x="534" y="416" as="sourcePoint" />
            <mxPoint x="626" y="506" as="targetPoint" />
          </mxGeometry>
        </mxCell>
        <mxCell id="1uEtQ7aiUFXIfoO98c6w-59" style="rounded=0;orthogonalLoop=1;jettySize=auto;html=1;endArrow=none;endFill=0;" edge="1" parent="1" source="1uEtQ7aiUFXIfoO98c6w-22" target="1uEtQ7aiUFXIfoO98c6w-25">
          <mxGeometry relative="1" as="geometry">
            <mxPoint x="544" y="426" as="sourcePoint" />
            <mxPoint x="636" y="516" as="targetPoint" />
          </mxGeometry>
        </mxCell>
        <mxCell id="1uEtQ7aiUFXIfoO98c6w-60" style="rounded=0;orthogonalLoop=1;jettySize=auto;html=1;endArrow=none;endFill=0;" edge="1" parent="1" source="1uEtQ7aiUFXIfoO98c6w-22" target="1uEtQ7aiUFXIfoO98c6w-24">
          <mxGeometry relative="1" as="geometry">
            <mxPoint x="554" y="436" as="sourcePoint" />
            <mxPoint x="646" y="526" as="targetPoint" />
          </mxGeometry>
        </mxCell>
        <mxCell id="1uEtQ7aiUFXIfoO98c6w-61" style="rounded=0;orthogonalLoop=1;jettySize=auto;html=1;endArrow=none;endFill=0;" edge="1" parent="1" source="1uEtQ7aiUFXIfoO98c6w-22" target="1uEtQ7aiUFXIfoO98c6w-19">
          <mxGeometry relative="1" as="geometry">
            <mxPoint x="564" y="446" as="sourcePoint" />
            <mxPoint x="656" y="536" as="targetPoint" />
          </mxGeometry>
        </mxCell>
        <mxCell id="1uEtQ7aiUFXIfoO98c6w-62" style="rounded=0;orthogonalLoop=1;jettySize=auto;html=1;endArrow=none;endFill=0;" edge="1" parent="1" source="1uEtQ7aiUFXIfoO98c6w-22" target="1uEtQ7aiUFXIfoO98c6w-23">
          <mxGeometry relative="1" as="geometry">
            <mxPoint x="574" y="456" as="sourcePoint" />
            <mxPoint x="666" y="546" as="targetPoint" />
          </mxGeometry>
        </mxCell>
        <mxCell id="1uEtQ7aiUFXIfoO98c6w-63" style="rounded=0;orthogonalLoop=1;jettySize=auto;html=1;endArrow=none;endFill=0;" edge="1" parent="1" source="1uEtQ7aiUFXIfoO98c6w-23" target="1uEtQ7aiUFXIfoO98c6w-28">
          <mxGeometry relative="1" as="geometry">
            <mxPoint x="584" y="466" as="sourcePoint" />
            <mxPoint x="676" y="556" as="targetPoint" />
          </mxGeometry>
        </mxCell>
        <mxCell id="1uEtQ7aiUFXIfoO98c6w-64" style="rounded=0;orthogonalLoop=1;jettySize=auto;html=1;endArrow=none;endFill=0;" edge="1" parent="1" source="1uEtQ7aiUFXIfoO98c6w-23" target="1uEtQ7aiUFXIfoO98c6w-29">
          <mxGeometry relative="1" as="geometry">
            <mxPoint x="644" y="124" as="sourcePoint" />
            <mxPoint x="736" y="216" as="targetPoint" />
          </mxGeometry>
        </mxCell>
        <mxCell id="1uEtQ7aiUFXIfoO98c6w-65" style="rounded=0;orthogonalLoop=1;jettySize=auto;html=1;endArrow=none;endFill=0;" edge="1" parent="1" source="1uEtQ7aiUFXIfoO98c6w-19" target="1uEtQ7aiUFXIfoO98c6w-30">
          <mxGeometry relative="1" as="geometry">
            <mxPoint x="654" y="134" as="sourcePoint" />
            <mxPoint x="746" y="226" as="targetPoint" />
          </mxGeometry>
        </mxCell>
        <mxCell id="1uEtQ7aiUFXIfoO98c6w-66" style="rounded=0;orthogonalLoop=1;jettySize=auto;html=1;endArrow=none;endFill=0;" edge="1" parent="1" source="1uEtQ7aiUFXIfoO98c6w-23" target="1uEtQ7aiUFXIfoO98c6w-30">
          <mxGeometry relative="1" as="geometry">
            <mxPoint x="630" y="197" as="sourcePoint" />
            <mxPoint x="730" y="363" as="targetPoint" />
          </mxGeometry>
        </mxCell>
        <mxCell id="1uEtQ7aiUFXIfoO98c6w-67" style="rounded=0;orthogonalLoop=1;jettySize=auto;html=1;endArrow=none;endFill=0;" edge="1" parent="1" source="1uEtQ7aiUFXIfoO98c6w-19" target="1uEtQ7aiUFXIfoO98c6w-29">
          <mxGeometry relative="1" as="geometry">
            <mxPoint x="640" y="207" as="sourcePoint" />
            <mxPoint x="740" y="373" as="targetPoint" />
          </mxGeometry>
        </mxCell>
        <mxCell id="1uEtQ7aiUFXIfoO98c6w-68" style="rounded=0;orthogonalLoop=1;jettySize=auto;html=1;endArrow=none;endFill=0;" edge="1" parent="1" source="1uEtQ7aiUFXIfoO98c6w-19" target="1uEtQ7aiUFXIfoO98c6w-28">
          <mxGeometry relative="1" as="geometry">
            <mxPoint x="650" y="217" as="sourcePoint" />
            <mxPoint x="750" y="383" as="targetPoint" />
          </mxGeometry>
        </mxCell>
        <mxCell id="1uEtQ7aiUFXIfoO98c6w-69" style="rounded=0;orthogonalLoop=1;jettySize=auto;html=1;endArrow=none;endFill=0;" edge="1" parent="1" source="1uEtQ7aiUFXIfoO98c6w-24" target="1uEtQ7aiUFXIfoO98c6w-28">
          <mxGeometry relative="1" as="geometry">
            <mxPoint x="660" y="227" as="sourcePoint" />
            <mxPoint x="760" y="393" as="targetPoint" />
          </mxGeometry>
        </mxCell>
        <mxCell id="1uEtQ7aiUFXIfoO98c6w-70" style="rounded=0;orthogonalLoop=1;jettySize=auto;html=1;endArrow=none;endFill=0;" edge="1" parent="1" source="1uEtQ7aiUFXIfoO98c6w-24" target="1uEtQ7aiUFXIfoO98c6w-29">
          <mxGeometry relative="1" as="geometry">
            <mxPoint x="670" y="237" as="sourcePoint" />
            <mxPoint x="770" y="403" as="targetPoint" />
          </mxGeometry>
        </mxCell>
        <mxCell id="1uEtQ7aiUFXIfoO98c6w-71" style="rounded=0;orthogonalLoop=1;jettySize=auto;html=1;endArrow=none;endFill=0;" edge="1" parent="1" source="1uEtQ7aiUFXIfoO98c6w-24" target="1uEtQ7aiUFXIfoO98c6w-30">
          <mxGeometry relative="1" as="geometry">
            <mxPoint x="649" y="276" as="sourcePoint" />
            <mxPoint x="731" y="304" as="targetPoint" />
          </mxGeometry>
        </mxCell>
        <mxCell id="1uEtQ7aiUFXIfoO98c6w-72" style="rounded=0;orthogonalLoop=1;jettySize=auto;html=1;endArrow=none;endFill=0;" edge="1" parent="1" source="1uEtQ7aiUFXIfoO98c6w-25" target="1uEtQ7aiUFXIfoO98c6w-28">
          <mxGeometry relative="1" as="geometry">
            <mxPoint x="659" y="286" as="sourcePoint" />
            <mxPoint x="741" y="314" as="targetPoint" />
          </mxGeometry>
        </mxCell>
        <mxCell id="1uEtQ7aiUFXIfoO98c6w-73" style="rounded=0;orthogonalLoop=1;jettySize=auto;html=1;endArrow=none;endFill=0;" edge="1" parent="1" source="1uEtQ7aiUFXIfoO98c6w-25" target="1uEtQ7aiUFXIfoO98c6w-29">
          <mxGeometry relative="1" as="geometry">
            <mxPoint x="644" y="336" as="sourcePoint" />
            <mxPoint x="736" y="244" as="targetPoint" />
          </mxGeometry>
        </mxCell>
        <mxCell id="1uEtQ7aiUFXIfoO98c6w-74" style="rounded=0;orthogonalLoop=1;jettySize=auto;html=1;endArrow=none;endFill=0;" edge="1" parent="1" source="1uEtQ7aiUFXIfoO98c6w-25" target="1uEtQ7aiUFXIfoO98c6w-30">
          <mxGeometry relative="1" as="geometry">
            <mxPoint x="654" y="346" as="sourcePoint" />
            <mxPoint x="746" y="254" as="targetPoint" />
          </mxGeometry>
        </mxCell>
        <mxCell id="1uEtQ7aiUFXIfoO98c6w-75" style="rounded=0;orthogonalLoop=1;jettySize=auto;html=1;endArrow=none;endFill=0;" edge="1" parent="1" source="1uEtQ7aiUFXIfoO98c6w-26" target="1uEtQ7aiUFXIfoO98c6w-28">
          <mxGeometry relative="1" as="geometry">
            <mxPoint x="664" y="356" as="sourcePoint" />
            <mxPoint x="756" y="264" as="targetPoint" />
          </mxGeometry>
        </mxCell>
        <mxCell id="1uEtQ7aiUFXIfoO98c6w-76" style="rounded=0;orthogonalLoop=1;jettySize=auto;html=1;endArrow=none;endFill=0;" edge="1" parent="1" source="1uEtQ7aiUFXIfoO98c6w-26" target="1uEtQ7aiUFXIfoO98c6w-29">
          <mxGeometry relative="1" as="geometry">
            <mxPoint x="640" y="413" as="sourcePoint" />
            <mxPoint x="740" y="247" as="targetPoint" />
          </mxGeometry>
        </mxCell>
        <mxCell id="1uEtQ7aiUFXIfoO98c6w-78" style="rounded=0;orthogonalLoop=1;jettySize=auto;html=1;endArrow=none;endFill=0;" edge="1" parent="1" source="1uEtQ7aiUFXIfoO98c6w-26" target="1uEtQ7aiUFXIfoO98c6w-30">
          <mxGeometry relative="1" as="geometry">
            <mxPoint x="650" y="423" as="sourcePoint" />
            <mxPoint x="750" y="257" as="targetPoint" />
          </mxGeometry>
        </mxCell>
        <mxCell id="1uEtQ7aiUFXIfoO98c6w-79" style="rounded=0;orthogonalLoop=1;jettySize=auto;html=1;endArrow=none;endFill=0;entryX=0;entryY=1;entryDx=0;entryDy=0;" edge="1" parent="1" source="1uEtQ7aiUFXIfoO98c6w-27" target="1uEtQ7aiUFXIfoO98c6w-30">
          <mxGeometry relative="1" as="geometry">
            <mxPoint x="649" y="424" as="sourcePoint" />
            <mxPoint x="731" y="396" as="targetPoint" />
          </mxGeometry>
        </mxCell>
        <mxCell id="1uEtQ7aiUFXIfoO98c6w-80" style="rounded=0;orthogonalLoop=1;jettySize=auto;html=1;endArrow=none;endFill=0;" edge="1" parent="1" source="1uEtQ7aiUFXIfoO98c6w-27" target="1uEtQ7aiUFXIfoO98c6w-29">
          <mxGeometry relative="1" as="geometry">
            <mxPoint x="644" y="496" as="sourcePoint" />
            <mxPoint x="736" y="404" as="targetPoint" />
          </mxGeometry>
        </mxCell>
        <mxCell id="1uEtQ7aiUFXIfoO98c6w-81" style="rounded=0;orthogonalLoop=1;jettySize=auto;html=1;endArrow=none;endFill=0;" edge="1" parent="1" source="1uEtQ7aiUFXIfoO98c6w-27" target="1uEtQ7aiUFXIfoO98c6w-28">
          <mxGeometry relative="1" as="geometry">
            <mxPoint x="640" y="493" as="sourcePoint" />
            <mxPoint x="740" y="327" as="targetPoint" />
          </mxGeometry>
        </mxCell>
        <mxCell id="1uEtQ7aiUFXIfoO98c6w-82" value="" style="ellipse;whiteSpace=wrap;html=1;aspect=fixed;" vertex="1" parent="1">
          <mxGeometry x="840" y="280" width="40" height="40" as="geometry" />
        </mxCell>
        <mxCell id="1uEtQ7aiUFXIfoO98c6w-83" style="rounded=0;orthogonalLoop=1;jettySize=auto;html=1;endArrow=none;endFill=0;" edge="1" parent="1" source="1uEtQ7aiUFXIfoO98c6w-82" target="1uEtQ7aiUFXIfoO98c6w-28">
          <mxGeometry relative="1" as="geometry">
            <mxPoint x="644" y="124" as="sourcePoint" />
            <mxPoint x="736" y="216" as="targetPoint" />
          </mxGeometry>
        </mxCell>
        <mxCell id="1uEtQ7aiUFXIfoO98c6w-84" style="rounded=0;orthogonalLoop=1;jettySize=auto;html=1;endArrow=none;endFill=0;" edge="1" parent="1" source="1uEtQ7aiUFXIfoO98c6w-82" target="1uEtQ7aiUFXIfoO98c6w-29">
          <mxGeometry relative="1" as="geometry">
            <mxPoint x="860" y="299" as="sourcePoint" />
            <mxPoint x="767" y="241" as="targetPoint" />
          </mxGeometry>
        </mxCell>
        <mxCell id="1uEtQ7aiUFXIfoO98c6w-85" style="rounded=0;orthogonalLoop=1;jettySize=auto;html=1;endArrow=none;endFill=0;" edge="1" parent="1" source="1uEtQ7aiUFXIfoO98c6w-82" target="1uEtQ7aiUFXIfoO98c6w-30">
          <mxGeometry relative="1" as="geometry">
            <mxPoint x="850" y="310" as="sourcePoint" />
            <mxPoint x="770" y="310" as="targetPoint" />
          </mxGeometry>
        </mxCell>
        <mxCell id="1uEtQ7aiUFXIfoO98c6w-86" style="rounded=0;orthogonalLoop=1;jettySize=auto;html=1;endArrow=none;endFill=0;strokeWidth=2;strokeColor=#FF0000;" edge="1" parent="1" source="1uEtQ7aiUFXIfoO98c6w-87" target="1uEtQ7aiUFXIfoO98c6w-93">
          <mxGeometry relative="1" as="geometry" />
        </mxCell>
        <mxCell id="1uEtQ7aiUFXIfoO98c6w-87" value="" style="ellipse;whiteSpace=wrap;html=1;aspect=fixed;strokeWidth=2;" vertex="1" parent="1">
          <mxGeometry x="1120" y="120" width="40" height="40" as="geometry" />
        </mxCell>
        <mxCell id="1uEtQ7aiUFXIfoO98c6w-88" value="" style="ellipse;whiteSpace=wrap;html=1;aspect=fixed;strokeWidth=2;" vertex="1" parent="1">
          <mxGeometry x="1120" y="202" width="40" height="40" as="geometry" />
        </mxCell>
        <mxCell id="1uEtQ7aiUFXIfoO98c6w-89" value="" style="ellipse;whiteSpace=wrap;html=1;aspect=fixed;strokeWidth=2;" vertex="1" parent="1">
          <mxGeometry x="1240" y="160" width="40" height="40" as="geometry" />
        </mxCell>
        <mxCell id="1uEtQ7aiUFXIfoO98c6w-90" value="" style="ellipse;whiteSpace=wrap;html=1;aspect=fixed;strokeWidth=2;" vertex="1" parent="1">
          <mxGeometry x="1120" y="280" width="40" height="40" as="geometry" />
        </mxCell>
        <mxCell id="1uEtQ7aiUFXIfoO98c6w-91" value="" style="ellipse;whiteSpace=wrap;html=1;aspect=fixed;strokeWidth=2;" vertex="1" parent="1">
          <mxGeometry x="1120" y="362" width="40" height="40" as="geometry" />
        </mxCell>
        <mxCell id="1uEtQ7aiUFXIfoO98c6w-92" value="" style="ellipse;whiteSpace=wrap;html=1;aspect=fixed;strokeWidth=2;" vertex="1" parent="1">
          <mxGeometry x="1120" y="440" width="40" height="40" as="geometry" />
        </mxCell>
        <mxCell id="1uEtQ7aiUFXIfoO98c6w-93" value="" style="ellipse;whiteSpace=wrap;html=1;aspect=fixed;strokeWidth=2;" vertex="1" parent="1">
          <mxGeometry x="1240" y="80" width="40" height="40" as="geometry" />
        </mxCell>
        <mxCell id="1uEtQ7aiUFXIfoO98c6w-94" value="" style="ellipse;whiteSpace=wrap;html=1;aspect=fixed;strokeWidth=2;" vertex="1" parent="1">
          <mxGeometry x="1240" y="240" width="40" height="40" as="geometry" />
        </mxCell>
        <mxCell id="1uEtQ7aiUFXIfoO98c6w-95" value="" style="ellipse;whiteSpace=wrap;html=1;aspect=fixed;strokeWidth=2;" vertex="1" parent="1">
          <mxGeometry x="1240" y="320" width="40" height="40" as="geometry" />
        </mxCell>
        <mxCell id="1uEtQ7aiUFXIfoO98c6w-96" value="" style="ellipse;whiteSpace=wrap;html=1;aspect=fixed;strokeWidth=2;" vertex="1" parent="1">
          <mxGeometry x="1240" y="400" width="40" height="40" as="geometry" />
        </mxCell>
        <mxCell id="1uEtQ7aiUFXIfoO98c6w-97" value="" style="ellipse;whiteSpace=wrap;html=1;aspect=fixed;strokeWidth=2;" vertex="1" parent="1">
          <mxGeometry x="1240" y="480" width="40" height="40" as="geometry" />
        </mxCell>
        <mxCell id="1uEtQ7aiUFXIfoO98c6w-98" value="" style="ellipse;whiteSpace=wrap;html=1;aspect=fixed;strokeWidth=2;" vertex="1" parent="1">
          <mxGeometry x="1360" y="200" width="40" height="40" as="geometry" />
        </mxCell>
        <mxCell id="1uEtQ7aiUFXIfoO98c6w-99" value="" style="ellipse;whiteSpace=wrap;html=1;aspect=fixed;strokeWidth=2;" vertex="1" parent="1">
          <mxGeometry x="1360" y="280" width="40" height="40" as="geometry" />
        </mxCell>
        <mxCell id="1uEtQ7aiUFXIfoO98c6w-100" value="" style="ellipse;whiteSpace=wrap;html=1;aspect=fixed;strokeWidth=2;" vertex="1" parent="1">
          <mxGeometry x="1360" y="360" width="40" height="40" as="geometry" />
        </mxCell>
        <mxCell id="1uEtQ7aiUFXIfoO98c6w-101" style="rounded=0;orthogonalLoop=1;jettySize=auto;html=1;endArrow=none;endFill=0;strokeWidth=2;strokeColor=#FF0000;" edge="1" parent="1" source="1uEtQ7aiUFXIfoO98c6w-87" target="1uEtQ7aiUFXIfoO98c6w-89">
          <mxGeometry relative="1" as="geometry">
            <mxPoint x="1169" y="144" as="sourcePoint" />
            <mxPoint x="1251" y="116" as="targetPoint" />
          </mxGeometry>
        </mxCell>
        <mxCell id="1uEtQ7aiUFXIfoO98c6w-102" style="rounded=0;orthogonalLoop=1;jettySize=auto;html=1;endArrow=none;endFill=0;strokeWidth=2;strokeColor=#FF0000;" edge="1" parent="1" source="1uEtQ7aiUFXIfoO98c6w-87" target="1uEtQ7aiUFXIfoO98c6w-94">
          <mxGeometry relative="1" as="geometry">
            <mxPoint x="1179" y="154" as="sourcePoint" />
            <mxPoint x="1261" y="126" as="targetPoint" />
          </mxGeometry>
        </mxCell>
        <mxCell id="1uEtQ7aiUFXIfoO98c6w-103" style="rounded=0;orthogonalLoop=1;jettySize=auto;html=1;endArrow=none;endFill=0;strokeWidth=2;strokeColor=#FF0000;" edge="1" parent="1" source="1uEtQ7aiUFXIfoO98c6w-87" target="1uEtQ7aiUFXIfoO98c6w-95">
          <mxGeometry relative="1" as="geometry">
            <mxPoint x="1189" y="164" as="sourcePoint" />
            <mxPoint x="1271" y="136" as="targetPoint" />
          </mxGeometry>
        </mxCell>
        <mxCell id="1uEtQ7aiUFXIfoO98c6w-104" style="rounded=0;orthogonalLoop=1;jettySize=auto;html=1;endArrow=none;endFill=0;strokeWidth=2;strokeColor=#FF0000;" edge="1" parent="1" source="1uEtQ7aiUFXIfoO98c6w-87" target="1uEtQ7aiUFXIfoO98c6w-96">
          <mxGeometry relative="1" as="geometry">
            <mxPoint x="1199" y="174" as="sourcePoint" />
            <mxPoint x="1281" y="146" as="targetPoint" />
          </mxGeometry>
        </mxCell>
        <mxCell id="1uEtQ7aiUFXIfoO98c6w-105" style="rounded=0;orthogonalLoop=1;jettySize=auto;html=1;endArrow=none;endFill=0;strokeWidth=2;strokeColor=#FF0000;" edge="1" parent="1" source="1uEtQ7aiUFXIfoO98c6w-87" target="1uEtQ7aiUFXIfoO98c6w-97">
          <mxGeometry relative="1" as="geometry">
            <mxPoint x="1209" y="184" as="sourcePoint" />
            <mxPoint x="1291" y="156" as="targetPoint" />
          </mxGeometry>
        </mxCell>
        <mxCell id="1uEtQ7aiUFXIfoO98c6w-106" style="rounded=0;orthogonalLoop=1;jettySize=auto;html=1;endArrow=none;endFill=0;strokeColor=#00CC00;strokeWidth=2;" edge="1" parent="1" source="1uEtQ7aiUFXIfoO98c6w-88" target="1uEtQ7aiUFXIfoO98c6w-93">
          <mxGeometry relative="1" as="geometry">
            <mxPoint x="1219" y="194" as="sourcePoint" />
            <mxPoint x="1301" y="166" as="targetPoint" />
          </mxGeometry>
        </mxCell>
        <mxCell id="1uEtQ7aiUFXIfoO98c6w-107" style="rounded=0;orthogonalLoop=1;jettySize=auto;html=1;endArrow=none;endFill=0;strokeColor=#00CC00;strokeWidth=2;" edge="1" parent="1" source="1uEtQ7aiUFXIfoO98c6w-88" target="1uEtQ7aiUFXIfoO98c6w-89">
          <mxGeometry relative="1" as="geometry">
            <mxPoint x="1229" y="204" as="sourcePoint" />
            <mxPoint x="1311" y="176" as="targetPoint" />
          </mxGeometry>
        </mxCell>
        <mxCell id="1uEtQ7aiUFXIfoO98c6w-108" style="rounded=0;orthogonalLoop=1;jettySize=auto;html=1;endArrow=none;endFill=0;strokeColor=#00CC00;strokeWidth=2;" edge="1" parent="1" source="1uEtQ7aiUFXIfoO98c6w-88" target="1uEtQ7aiUFXIfoO98c6w-94">
          <mxGeometry relative="1" as="geometry">
            <mxPoint x="1239" y="214" as="sourcePoint" />
            <mxPoint x="1321" y="186" as="targetPoint" />
          </mxGeometry>
        </mxCell>
        <mxCell id="1uEtQ7aiUFXIfoO98c6w-109" style="rounded=0;orthogonalLoop=1;jettySize=auto;html=1;endArrow=none;endFill=0;strokeColor=#00CC00;strokeWidth=2;" edge="1" parent="1" source="1uEtQ7aiUFXIfoO98c6w-88" target="1uEtQ7aiUFXIfoO98c6w-95">
          <mxGeometry relative="1" as="geometry">
            <mxPoint x="1249" y="224" as="sourcePoint" />
            <mxPoint x="1190" y="370" as="targetPoint" />
          </mxGeometry>
        </mxCell>
        <mxCell id="1uEtQ7aiUFXIfoO98c6w-110" style="rounded=0;orthogonalLoop=1;jettySize=auto;html=1;endArrow=none;endFill=0;strokeColor=#00CC00;strokeWidth=2;" edge="1" parent="1" source="1uEtQ7aiUFXIfoO98c6w-88" target="1uEtQ7aiUFXIfoO98c6w-96">
          <mxGeometry relative="1" as="geometry">
            <mxPoint x="1259" y="234" as="sourcePoint" />
            <mxPoint x="1341" y="206" as="targetPoint" />
          </mxGeometry>
        </mxCell>
        <mxCell id="1uEtQ7aiUFXIfoO98c6w-111" style="rounded=0;orthogonalLoop=1;jettySize=auto;html=1;endArrow=none;endFill=0;strokeColor=#00CC00;strokeWidth=2;" edge="1" parent="1" source="1uEtQ7aiUFXIfoO98c6w-88" target="1uEtQ7aiUFXIfoO98c6w-97">
          <mxGeometry relative="1" as="geometry">
            <mxPoint x="1269" y="244" as="sourcePoint" />
            <mxPoint x="1351" y="216" as="targetPoint" />
          </mxGeometry>
        </mxCell>
        <mxCell id="1uEtQ7aiUFXIfoO98c6w-112" style="rounded=0;orthogonalLoop=1;jettySize=auto;html=1;endArrow=none;endFill=0;strokeColor=#0000FF;strokeWidth=2;" edge="1" parent="1" source="1uEtQ7aiUFXIfoO98c6w-90" target="1uEtQ7aiUFXIfoO98c6w-93">
          <mxGeometry relative="1" as="geometry">
            <mxPoint x="1279" y="254" as="sourcePoint" />
            <mxPoint x="1361" y="226" as="targetPoint" />
          </mxGeometry>
        </mxCell>
        <mxCell id="1uEtQ7aiUFXIfoO98c6w-113" style="rounded=0;orthogonalLoop=1;jettySize=auto;html=1;endArrow=none;endFill=0;strokeColor=#0000FF;strokeWidth=2;" edge="1" parent="1" source="1uEtQ7aiUFXIfoO98c6w-90" target="1uEtQ7aiUFXIfoO98c6w-89">
          <mxGeometry relative="1" as="geometry">
            <mxPoint x="1289" y="264" as="sourcePoint" />
            <mxPoint x="1371" y="236" as="targetPoint" />
          </mxGeometry>
        </mxCell>
        <mxCell id="1uEtQ7aiUFXIfoO98c6w-114" style="rounded=0;orthogonalLoop=1;jettySize=auto;html=1;endArrow=none;endFill=0;strokeColor=#0000FF;strokeWidth=2;" edge="1" parent="1" source="1uEtQ7aiUFXIfoO98c6w-90" target="1uEtQ7aiUFXIfoO98c6w-94">
          <mxGeometry relative="1" as="geometry">
            <mxPoint x="1299" y="274" as="sourcePoint" />
            <mxPoint x="1381" y="246" as="targetPoint" />
          </mxGeometry>
        </mxCell>
        <mxCell id="1uEtQ7aiUFXIfoO98c6w-115" style="rounded=0;orthogonalLoop=1;jettySize=auto;html=1;endArrow=none;endFill=0;strokeColor=#0000FF;strokeWidth=2;" edge="1" parent="1" source="1uEtQ7aiUFXIfoO98c6w-90" target="1uEtQ7aiUFXIfoO98c6w-95">
          <mxGeometry relative="1" as="geometry">
            <mxPoint x="1309" y="284" as="sourcePoint" />
            <mxPoint x="1391" y="256" as="targetPoint" />
          </mxGeometry>
        </mxCell>
        <mxCell id="1uEtQ7aiUFXIfoO98c6w-116" style="rounded=0;orthogonalLoop=1;jettySize=auto;html=1;endArrow=none;endFill=0;strokeColor=#0000FF;strokeWidth=2;" edge="1" parent="1" source="1uEtQ7aiUFXIfoO98c6w-90" target="1uEtQ7aiUFXIfoO98c6w-96">
          <mxGeometry relative="1" as="geometry">
            <mxPoint x="1319" y="294" as="sourcePoint" />
            <mxPoint x="1401" y="266" as="targetPoint" />
          </mxGeometry>
        </mxCell>
        <mxCell id="1uEtQ7aiUFXIfoO98c6w-117" style="rounded=0;orthogonalLoop=1;jettySize=auto;html=1;endArrow=none;endFill=0;strokeColor=#0000FF;strokeWidth=2;" edge="1" parent="1" source="1uEtQ7aiUFXIfoO98c6w-90" target="1uEtQ7aiUFXIfoO98c6w-97">
          <mxGeometry relative="1" as="geometry">
            <mxPoint x="1329" y="304" as="sourcePoint" />
            <mxPoint x="1411" y="276" as="targetPoint" />
          </mxGeometry>
        </mxCell>
        <mxCell id="1uEtQ7aiUFXIfoO98c6w-118" style="rounded=0;orthogonalLoop=1;jettySize=auto;html=1;endArrow=none;endFill=0;strokeColor=#FFFF00;strokeWidth=2;" edge="1" parent="1" source="1uEtQ7aiUFXIfoO98c6w-91" target="1uEtQ7aiUFXIfoO98c6w-93">
          <mxGeometry relative="1" as="geometry">
            <mxPoint x="1339" y="314" as="sourcePoint" />
            <mxPoint x="1421" y="286" as="targetPoint" />
          </mxGeometry>
        </mxCell>
        <mxCell id="1uEtQ7aiUFXIfoO98c6w-119" style="rounded=0;orthogonalLoop=1;jettySize=auto;html=1;endArrow=none;endFill=0;strokeColor=#FFFF00;strokeWidth=2;" edge="1" parent="1" source="1uEtQ7aiUFXIfoO98c6w-91" target="1uEtQ7aiUFXIfoO98c6w-89">
          <mxGeometry relative="1" as="geometry">
            <mxPoint x="1349" y="324" as="sourcePoint" />
            <mxPoint x="1431" y="296" as="targetPoint" />
          </mxGeometry>
        </mxCell>
        <mxCell id="1uEtQ7aiUFXIfoO98c6w-120" style="rounded=0;orthogonalLoop=1;jettySize=auto;html=1;endArrow=none;endFill=0;strokeColor=#FFFF00;strokeWidth=2;" edge="1" parent="1" source="1uEtQ7aiUFXIfoO98c6w-91" target="1uEtQ7aiUFXIfoO98c6w-94">
          <mxGeometry relative="1" as="geometry">
            <mxPoint x="1359" y="334" as="sourcePoint" />
            <mxPoint x="1441" y="306" as="targetPoint" />
          </mxGeometry>
        </mxCell>
        <mxCell id="1uEtQ7aiUFXIfoO98c6w-121" style="rounded=0;orthogonalLoop=1;jettySize=auto;html=1;endArrow=none;endFill=0;strokeColor=#FFFF00;strokeWidth=2;" edge="1" parent="1" source="1uEtQ7aiUFXIfoO98c6w-91" target="1uEtQ7aiUFXIfoO98c6w-95">
          <mxGeometry relative="1" as="geometry">
            <mxPoint x="1369" y="344" as="sourcePoint" />
            <mxPoint x="1451" y="316" as="targetPoint" />
          </mxGeometry>
        </mxCell>
        <mxCell id="1uEtQ7aiUFXIfoO98c6w-122" style="rounded=0;orthogonalLoop=1;jettySize=auto;html=1;endArrow=none;endFill=0;strokeColor=#FFFF00;strokeWidth=2;" edge="1" parent="1" source="1uEtQ7aiUFXIfoO98c6w-91" target="1uEtQ7aiUFXIfoO98c6w-96">
          <mxGeometry relative="1" as="geometry">
            <mxPoint x="1379" y="354" as="sourcePoint" />
            <mxPoint x="1461" y="326" as="targetPoint" />
          </mxGeometry>
        </mxCell>
        <mxCell id="1uEtQ7aiUFXIfoO98c6w-123" style="rounded=0;orthogonalLoop=1;jettySize=auto;html=1;endArrow=none;endFill=0;strokeColor=#FFFF00;strokeWidth=2;" edge="1" parent="1" source="1uEtQ7aiUFXIfoO98c6w-91" target="1uEtQ7aiUFXIfoO98c6w-97">
          <mxGeometry relative="1" as="geometry">
            <mxPoint x="1389" y="364" as="sourcePoint" />
            <mxPoint x="1471" y="336" as="targetPoint" />
          </mxGeometry>
        </mxCell>
        <mxCell id="1uEtQ7aiUFXIfoO98c6w-124" style="rounded=0;orthogonalLoop=1;jettySize=auto;html=1;endArrow=none;endFill=0;strokeWidth=2;" edge="1" parent="1" source="1uEtQ7aiUFXIfoO98c6w-92" target="1uEtQ7aiUFXIfoO98c6w-97">
          <mxGeometry relative="1" as="geometry">
            <mxPoint x="1164" y="406" as="sourcePoint" />
            <mxPoint x="1256" y="496" as="targetPoint" />
          </mxGeometry>
        </mxCell>
        <mxCell id="1uEtQ7aiUFXIfoO98c6w-125" style="rounded=0;orthogonalLoop=1;jettySize=auto;html=1;endArrow=none;endFill=0;strokeWidth=2;" edge="1" parent="1" source="1uEtQ7aiUFXIfoO98c6w-92" target="1uEtQ7aiUFXIfoO98c6w-96">
          <mxGeometry relative="1" as="geometry">
            <mxPoint x="1174" y="416" as="sourcePoint" />
            <mxPoint x="1266" y="506" as="targetPoint" />
          </mxGeometry>
        </mxCell>
        <mxCell id="1uEtQ7aiUFXIfoO98c6w-126" style="rounded=0;orthogonalLoop=1;jettySize=auto;html=1;endArrow=none;endFill=0;strokeWidth=2;" edge="1" parent="1" source="1uEtQ7aiUFXIfoO98c6w-92" target="1uEtQ7aiUFXIfoO98c6w-95">
          <mxGeometry relative="1" as="geometry">
            <mxPoint x="1184" y="426" as="sourcePoint" />
            <mxPoint x="1276" y="516" as="targetPoint" />
          </mxGeometry>
        </mxCell>
        <mxCell id="1uEtQ7aiUFXIfoO98c6w-127" style="rounded=0;orthogonalLoop=1;jettySize=auto;html=1;endArrow=none;endFill=0;strokeWidth=2;" edge="1" parent="1" source="1uEtQ7aiUFXIfoO98c6w-92" target="1uEtQ7aiUFXIfoO98c6w-94">
          <mxGeometry relative="1" as="geometry">
            <mxPoint x="1194" y="436" as="sourcePoint" />
            <mxPoint x="1286" y="526" as="targetPoint" />
          </mxGeometry>
        </mxCell>
        <mxCell id="1uEtQ7aiUFXIfoO98c6w-128" style="rounded=0;orthogonalLoop=1;jettySize=auto;html=1;endArrow=none;endFill=0;strokeWidth=2;" edge="1" parent="1" source="1uEtQ7aiUFXIfoO98c6w-92" target="1uEtQ7aiUFXIfoO98c6w-89">
          <mxGeometry relative="1" as="geometry">
            <mxPoint x="1204" y="446" as="sourcePoint" />
            <mxPoint x="1296" y="536" as="targetPoint" />
          </mxGeometry>
        </mxCell>
        <mxCell id="1uEtQ7aiUFXIfoO98c6w-129" style="rounded=0;orthogonalLoop=1;jettySize=auto;html=1;endArrow=none;endFill=0;strokeWidth=2;" edge="1" parent="1" source="1uEtQ7aiUFXIfoO98c6w-92" target="1uEtQ7aiUFXIfoO98c6w-93">
          <mxGeometry relative="1" as="geometry">
            <mxPoint x="1214" y="456" as="sourcePoint" />
            <mxPoint x="1306" y="546" as="targetPoint" />
          </mxGeometry>
        </mxCell>
        <mxCell id="1uEtQ7aiUFXIfoO98c6w-130" style="rounded=0;orthogonalLoop=1;jettySize=auto;html=1;endArrow=none;endFill=0;strokeColor=#FF8000;strokeWidth=2;" edge="1" parent="1" source="1uEtQ7aiUFXIfoO98c6w-93" target="1uEtQ7aiUFXIfoO98c6w-98">
          <mxGeometry relative="1" as="geometry">
            <mxPoint x="1224" y="466" as="sourcePoint" />
            <mxPoint x="1316" y="556" as="targetPoint" />
          </mxGeometry>
        </mxCell>
        <mxCell id="1uEtQ7aiUFXIfoO98c6w-131" style="rounded=0;orthogonalLoop=1;jettySize=auto;html=1;endArrow=none;endFill=0;strokeColor=#FF8000;strokeWidth=2;" edge="1" parent="1" source="1uEtQ7aiUFXIfoO98c6w-93" target="1uEtQ7aiUFXIfoO98c6w-99">
          <mxGeometry relative="1" as="geometry">
            <mxPoint x="1284" y="124" as="sourcePoint" />
            <mxPoint x="1376" y="216" as="targetPoint" />
          </mxGeometry>
        </mxCell>
        <mxCell id="1uEtQ7aiUFXIfoO98c6w-132" style="rounded=0;orthogonalLoop=1;jettySize=auto;html=1;endArrow=none;endFill=0;strokeColor=#808080;strokeWidth=2;" edge="1" parent="1" source="1uEtQ7aiUFXIfoO98c6w-89" target="1uEtQ7aiUFXIfoO98c6w-100">
          <mxGeometry relative="1" as="geometry">
            <mxPoint x="1294" y="134" as="sourcePoint" />
            <mxPoint x="1386" y="226" as="targetPoint" />
          </mxGeometry>
        </mxCell>
        <mxCell id="1uEtQ7aiUFXIfoO98c6w-133" style="rounded=0;orthogonalLoop=1;jettySize=auto;html=1;endArrow=none;endFill=0;strokeColor=#FF8000;strokeWidth=2;" edge="1" parent="1" source="1uEtQ7aiUFXIfoO98c6w-93" target="1uEtQ7aiUFXIfoO98c6w-100">
          <mxGeometry relative="1" as="geometry">
            <mxPoint x="1270" y="197" as="sourcePoint" />
            <mxPoint x="1370" y="363" as="targetPoint" />
          </mxGeometry>
        </mxCell>
        <mxCell id="1uEtQ7aiUFXIfoO98c6w-134" style="rounded=0;orthogonalLoop=1;jettySize=auto;html=1;endArrow=none;endFill=0;strokeColor=#808080;strokeWidth=2;" edge="1" parent="1" source="1uEtQ7aiUFXIfoO98c6w-89" target="1uEtQ7aiUFXIfoO98c6w-99">
          <mxGeometry relative="1" as="geometry">
            <mxPoint x="1280" y="207" as="sourcePoint" />
            <mxPoint x="1380" y="373" as="targetPoint" />
          </mxGeometry>
        </mxCell>
        <mxCell id="1uEtQ7aiUFXIfoO98c6w-135" style="rounded=0;orthogonalLoop=1;jettySize=auto;html=1;endArrow=none;endFill=0;strokeColor=#808080;strokeWidth=2;" edge="1" parent="1" source="1uEtQ7aiUFXIfoO98c6w-89" target="1uEtQ7aiUFXIfoO98c6w-98">
          <mxGeometry relative="1" as="geometry">
            <mxPoint x="1290" y="217" as="sourcePoint" />
            <mxPoint x="1390" y="383" as="targetPoint" />
          </mxGeometry>
        </mxCell>
        <mxCell id="1uEtQ7aiUFXIfoO98c6w-136" style="rounded=0;orthogonalLoop=1;jettySize=auto;html=1;endArrow=none;endFill=0;strokeColor=#990099;strokeWidth=2;" edge="1" parent="1" source="1uEtQ7aiUFXIfoO98c6w-94" target="1uEtQ7aiUFXIfoO98c6w-98">
          <mxGeometry relative="1" as="geometry">
            <mxPoint x="1300" y="227" as="sourcePoint" />
            <mxPoint x="1400" y="393" as="targetPoint" />
          </mxGeometry>
        </mxCell>
        <mxCell id="1uEtQ7aiUFXIfoO98c6w-137" style="rounded=0;orthogonalLoop=1;jettySize=auto;html=1;endArrow=none;endFill=0;strokeColor=#990099;strokeWidth=2;" edge="1" parent="1" source="1uEtQ7aiUFXIfoO98c6w-94" target="1uEtQ7aiUFXIfoO98c6w-99">
          <mxGeometry relative="1" as="geometry">
            <mxPoint x="1310" y="237" as="sourcePoint" />
            <mxPoint x="1410" y="403" as="targetPoint" />
          </mxGeometry>
        </mxCell>
        <mxCell id="1uEtQ7aiUFXIfoO98c6w-138" style="rounded=0;orthogonalLoop=1;jettySize=auto;html=1;endArrow=none;endFill=0;strokeColor=#990099;strokeWidth=2;" edge="1" parent="1" source="1uEtQ7aiUFXIfoO98c6w-94" target="1uEtQ7aiUFXIfoO98c6w-100">
          <mxGeometry relative="1" as="geometry">
            <mxPoint x="1289" y="276" as="sourcePoint" />
            <mxPoint x="1371" y="304" as="targetPoint" />
          </mxGeometry>
        </mxCell>
        <mxCell id="1uEtQ7aiUFXIfoO98c6w-139" style="rounded=0;orthogonalLoop=1;jettySize=auto;html=1;endArrow=none;endFill=0;strokeColor=#42858C;strokeWidth=2;" edge="1" parent="1" source="1uEtQ7aiUFXIfoO98c6w-95" target="1uEtQ7aiUFXIfoO98c6w-98">
          <mxGeometry relative="1" as="geometry">
            <mxPoint x="1299" y="286" as="sourcePoint" />
            <mxPoint x="1381" y="314" as="targetPoint" />
          </mxGeometry>
        </mxCell>
        <mxCell id="1uEtQ7aiUFXIfoO98c6w-140" style="rounded=0;orthogonalLoop=1;jettySize=auto;html=1;endArrow=none;endFill=0;strokeColor=#42858C;strokeWidth=2;" edge="1" parent="1" source="1uEtQ7aiUFXIfoO98c6w-95" target="1uEtQ7aiUFXIfoO98c6w-99">
          <mxGeometry relative="1" as="geometry">
            <mxPoint x="1284" y="336" as="sourcePoint" />
            <mxPoint x="1376" y="244" as="targetPoint" />
          </mxGeometry>
        </mxCell>
        <mxCell id="1uEtQ7aiUFXIfoO98c6w-141" style="rounded=0;orthogonalLoop=1;jettySize=auto;html=1;endArrow=none;endFill=0;strokeColor=#42858C;strokeWidth=2;" edge="1" parent="1" source="1uEtQ7aiUFXIfoO98c6w-95" target="1uEtQ7aiUFXIfoO98c6w-100">
          <mxGeometry relative="1" as="geometry">
            <mxPoint x="1294" y="346" as="sourcePoint" />
            <mxPoint x="1386" y="254" as="targetPoint" />
          </mxGeometry>
        </mxCell>
        <mxCell id="1uEtQ7aiUFXIfoO98c6w-142" style="rounded=0;orthogonalLoop=1;jettySize=auto;html=1;endArrow=none;endFill=0;strokeColor=#666600;strokeWidth=2;" edge="1" parent="1" source="1uEtQ7aiUFXIfoO98c6w-96" target="1uEtQ7aiUFXIfoO98c6w-98">
          <mxGeometry relative="1" as="geometry">
            <mxPoint x="1304" y="356" as="sourcePoint" />
            <mxPoint x="1396" y="264" as="targetPoint" />
          </mxGeometry>
        </mxCell>
        <mxCell id="1uEtQ7aiUFXIfoO98c6w-143" style="rounded=0;orthogonalLoop=1;jettySize=auto;html=1;endArrow=none;endFill=0;strokeColor=#666600;strokeWidth=2;" edge="1" parent="1" source="1uEtQ7aiUFXIfoO98c6w-96" target="1uEtQ7aiUFXIfoO98c6w-99">
          <mxGeometry relative="1" as="geometry">
            <mxPoint x="1280" y="413" as="sourcePoint" />
            <mxPoint x="1380" y="247" as="targetPoint" />
          </mxGeometry>
        </mxCell>
        <mxCell id="1uEtQ7aiUFXIfoO98c6w-144" style="rounded=0;orthogonalLoop=1;jettySize=auto;html=1;endArrow=none;endFill=0;strokeColor=#666600;strokeWidth=2;" edge="1" parent="1" source="1uEtQ7aiUFXIfoO98c6w-96" target="1uEtQ7aiUFXIfoO98c6w-100">
          <mxGeometry relative="1" as="geometry">
            <mxPoint x="1290" y="423" as="sourcePoint" />
            <mxPoint x="1390" y="257" as="targetPoint" />
          </mxGeometry>
        </mxCell>
        <mxCell id="1uEtQ7aiUFXIfoO98c6w-145" style="rounded=0;orthogonalLoop=1;jettySize=auto;html=1;endArrow=none;endFill=0;entryX=0;entryY=1;entryDx=0;entryDy=0;strokeColor=#33FFFF;strokeWidth=2;" edge="1" parent="1" source="1uEtQ7aiUFXIfoO98c6w-97" target="1uEtQ7aiUFXIfoO98c6w-100">
          <mxGeometry relative="1" as="geometry">
            <mxPoint x="1289" y="424" as="sourcePoint" />
            <mxPoint x="1371" y="396" as="targetPoint" />
          </mxGeometry>
        </mxCell>
        <mxCell id="1uEtQ7aiUFXIfoO98c6w-146" style="rounded=0;orthogonalLoop=1;jettySize=auto;html=1;endArrow=none;endFill=0;strokeColor=#33FFFF;strokeWidth=2;" edge="1" parent="1" source="1uEtQ7aiUFXIfoO98c6w-97" target="1uEtQ7aiUFXIfoO98c6w-99">
          <mxGeometry relative="1" as="geometry">
            <mxPoint x="1284" y="496" as="sourcePoint" />
            <mxPoint x="1376" y="404" as="targetPoint" />
          </mxGeometry>
        </mxCell>
        <mxCell id="1uEtQ7aiUFXIfoO98c6w-147" style="rounded=0;orthogonalLoop=1;jettySize=auto;html=1;endArrow=none;endFill=0;strokeColor=#33FFFF;strokeWidth=2;" edge="1" parent="1" source="1uEtQ7aiUFXIfoO98c6w-97" target="1uEtQ7aiUFXIfoO98c6w-98">
          <mxGeometry relative="1" as="geometry">
            <mxPoint x="1280" y="493" as="sourcePoint" />
            <mxPoint x="1380" y="327" as="targetPoint" />
          </mxGeometry>
        </mxCell>
        <mxCell id="1uEtQ7aiUFXIfoO98c6w-148" value="" style="ellipse;whiteSpace=wrap;html=1;aspect=fixed;strokeWidth=2;" vertex="1" parent="1">
          <mxGeometry x="1480" y="280" width="40" height="40" as="geometry" />
        </mxCell>
        <mxCell id="1uEtQ7aiUFXIfoO98c6w-149" style="rounded=0;orthogonalLoop=1;jettySize=auto;html=1;endArrow=none;endFill=0;strokeColor=#CC0066;strokeWidth=2;" edge="1" parent="1" source="1uEtQ7aiUFXIfoO98c6w-148" target="1uEtQ7aiUFXIfoO98c6w-98">
          <mxGeometry relative="1" as="geometry">
            <mxPoint x="1284" y="124" as="sourcePoint" />
            <mxPoint x="1376" y="216" as="targetPoint" />
          </mxGeometry>
        </mxCell>
        <mxCell id="1uEtQ7aiUFXIfoO98c6w-150" style="rounded=0;orthogonalLoop=1;jettySize=auto;html=1;endArrow=none;endFill=0;strokeColor=#CCCCCC;strokeWidth=2;" edge="1" parent="1" source="1uEtQ7aiUFXIfoO98c6w-148" target="1uEtQ7aiUFXIfoO98c6w-99">
          <mxGeometry relative="1" as="geometry">
            <mxPoint x="1500" y="299" as="sourcePoint" />
            <mxPoint x="1407" y="241" as="targetPoint" />
          </mxGeometry>
        </mxCell>
        <mxCell id="1uEtQ7aiUFXIfoO98c6w-151" style="rounded=0;orthogonalLoop=1;jettySize=auto;html=1;endArrow=none;endFill=0;strokeColor=#EA6B66;strokeWidth=2;" edge="1" parent="1" source="1uEtQ7aiUFXIfoO98c6w-148" target="1uEtQ7aiUFXIfoO98c6w-100">
          <mxGeometry relative="1" as="geometry">
            <mxPoint x="1490" y="310" as="sourcePoint" />
            <mxPoint x="1410" y="310" as="targetPoint" />
          </mxGeometry>
        </mxCell>
        <mxCell id="1uEtQ7aiUFXIfoO98c6w-154" value="&lt;font style=&quot;&quot;&gt;&lt;span style=&quot;font-size: 23px;&quot;&gt;[&amp;nbsp;&lt;/span&gt;&lt;font style=&quot;&quot; color=&quot;#ff0000&quot;&gt;&lt;span style=&quot;font-size: 23px;&quot;&gt;W&lt;/span&gt;&lt;sub style=&quot;&quot;&gt;&lt;font style=&quot;font-size: 14px;&quot;&gt;1-6&lt;/font&gt;&lt;/sub&gt;&lt;span style=&quot;font-size: 23px;&quot;&gt;,B&lt;/span&gt;&lt;sub style=&quot;border-color: var(--border-color);&quot;&gt;&lt;font style=&quot;font-size: 14px;&quot;&gt;1-6&lt;/font&gt;&lt;/sub&gt;&lt;span style=&quot;font-size: 23px;&quot;&gt;,&amp;nbsp;&lt;/span&gt;&lt;/font&gt;&lt;font style=&quot;&quot; color=&quot;#00cc00&quot;&gt;&lt;span style=&quot;font-size: 23px;&quot;&gt;W&lt;/span&gt;&lt;sub style=&quot;border-color: var(--border-color);&quot;&gt;&lt;font style=&quot;font-size: 14px;&quot;&gt;1-6&lt;/font&gt;&lt;/sub&gt;&lt;span style=&quot;font-size: 23px;&quot;&gt;,B&lt;/span&gt;&lt;sub style=&quot;&quot;&gt;&lt;font style=&quot;font-size: 14px;&quot;&gt;1-6&lt;/font&gt;&lt;/sub&gt;&lt;span style=&quot;font-size: 23px;&quot;&gt;,&amp;nbsp;&lt;/span&gt;&lt;/font&gt;&lt;font style=&quot;&quot; color=&quot;#0000ff&quot;&gt;&lt;span style=&quot;font-size: 23px;&quot;&gt;W&lt;/span&gt;&lt;sub style=&quot;border-color: var(--border-color);&quot;&gt;&lt;font style=&quot;font-size: 14px;&quot;&gt;1-6&lt;/font&gt;&lt;/sub&gt;&lt;span style=&quot;font-size: 23px;&quot;&gt;,B&lt;/span&gt;&lt;sub style=&quot;border-color: var(--border-color);&quot;&gt;&lt;font style=&quot;font-size: 14px;&quot;&gt;1-6&lt;/font&gt;&lt;/sub&gt;&lt;span style=&quot;font-size: 23px;&quot;&gt;,&amp;nbsp;&lt;/span&gt;&lt;/font&gt;&lt;font color=&quot;#ffff00&quot; style=&quot;border-color: var(--border-color);&quot;&gt;&lt;span style=&quot;font-size: 23px;&quot;&gt;W&lt;/span&gt;&lt;sub style=&quot;border-color: var(--border-color);&quot;&gt;&lt;font style=&quot;font-size: 14px;&quot;&gt;1-6&lt;/font&gt;&lt;/sub&gt;&lt;span style=&quot;font-size: 23px;&quot;&gt;,B&lt;/span&gt;&lt;sub style=&quot;border-color: var(--border-color);&quot;&gt;&lt;font style=&quot;font-size: 14px;&quot;&gt;1-6&lt;/font&gt;&lt;/sub&gt;&lt;span style=&quot;font-size: 23px;&quot;&gt;,&amp;nbsp;&lt;/span&gt;&lt;/font&gt;&lt;font style=&quot;border-color: var(--border-color);&quot;&gt;&lt;span style=&quot;font-size: 23px;&quot;&gt;W&lt;/span&gt;&lt;sub style=&quot;border-color: var(--border-color);&quot;&gt;&lt;font style=&quot;font-size: 14px;&quot;&gt;1-6&lt;/font&gt;&lt;/sub&gt;&lt;span style=&quot;font-size: 23px;&quot;&gt;,B&lt;/span&gt;&lt;sub style=&quot;border-color: var(--border-color);&quot;&gt;&lt;font style=&quot;font-size: 14px;&quot;&gt;1-6&lt;/font&gt;&lt;/sub&gt;&lt;span style=&quot;font-size: 23px;&quot;&gt;,&amp;nbsp;&lt;/span&gt;&lt;/font&gt;&lt;font color=&quot;#ff8000&quot; style=&quot;border-color: var(--border-color);&quot;&gt;&lt;span style=&quot;font-size: 23px;&quot;&gt;W&lt;/span&gt;&lt;sub style=&quot;border-color: var(--border-color);&quot;&gt;&lt;font style=&quot;font-size: 14px;&quot;&gt;1-5&lt;/font&gt;&lt;/sub&gt;&lt;span style=&quot;font-size: 23px;&quot;&gt;,B&lt;/span&gt;&lt;sub style=&quot;border-color: var(--border-color);&quot;&gt;&lt;font style=&quot;font-size: 14px;&quot;&gt;1-5&lt;/font&gt;&lt;/sub&gt;&lt;span style=&quot;font-size: 23px;&quot;&gt;,&amp;nbsp;&lt;/span&gt;&lt;/font&gt;&lt;font color=&quot;#808080&quot; style=&quot;border-color: var(--border-color);&quot;&gt;&lt;span style=&quot;font-size: 23px;&quot;&gt;W&lt;/span&gt;&lt;sub style=&quot;border-color: var(--border-color);&quot;&gt;&lt;font style=&quot;font-size: 14px;&quot;&gt;1-5&lt;/font&gt;&lt;/sub&gt;&lt;span style=&quot;font-size: 23px;&quot;&gt;,B&lt;/span&gt;&lt;sub style=&quot;border-color: var(--border-color);&quot;&gt;&lt;font style=&quot;font-size: 14px;&quot;&gt;1-5&lt;/font&gt;&lt;/sub&gt;&lt;span style=&quot;font-size: 23px;&quot;&gt;,&lt;br&gt;&lt;/span&gt;&lt;/font&gt;&lt;font color=&quot;#990099&quot; style=&quot;border-color: var(--border-color);&quot;&gt;&lt;span style=&quot;font-size: 23px;&quot;&gt;W&lt;/span&gt;&lt;sub style=&quot;border-color: var(--border-color);&quot;&gt;&lt;font style=&quot;font-size: 14px;&quot;&gt;1-5&lt;/font&gt;&lt;/sub&gt;&lt;span style=&quot;font-size: 23px;&quot;&gt;,B&lt;/span&gt;&lt;sub style=&quot;border-color: var(--border-color);&quot;&gt;&lt;font style=&quot;font-size: 14px;&quot;&gt;1-5&lt;/font&gt;&lt;/sub&gt;&lt;span style=&quot;font-size: 23px;&quot;&gt;,&amp;nbsp;&lt;/span&gt;&lt;/font&gt;&lt;font color=&quot;#42858c&quot; style=&quot;border-color: var(--border-color);&quot;&gt;&lt;span style=&quot;font-size: 23px;&quot;&gt;W&lt;/span&gt;&lt;sub style=&quot;border-color: var(--border-color);&quot;&gt;&lt;font style=&quot;font-size: 14px;&quot;&gt;1-5&lt;/font&gt;&lt;/sub&gt;&lt;span style=&quot;font-size: 23px;&quot;&gt;,B&lt;/span&gt;&lt;sub style=&quot;border-color: var(--border-color);&quot;&gt;&lt;font style=&quot;font-size: 14px;&quot;&gt;1-5&lt;/font&gt;&lt;/sub&gt;&lt;span style=&quot;font-size: 23px;&quot;&gt;,&amp;nbsp;&lt;/span&gt;&lt;/font&gt;&lt;font color=&quot;#666600&quot; style=&quot;border-color: var(--border-color);&quot;&gt;&lt;span style=&quot;font-size: 23px;&quot;&gt;W&lt;/span&gt;&lt;sub style=&quot;border-color: var(--border-color);&quot;&gt;&lt;font style=&quot;font-size: 14px;&quot;&gt;1-5&lt;/font&gt;&lt;/sub&gt;&lt;span style=&quot;font-size: 23px;&quot;&gt;,B&lt;/span&gt;&lt;sub style=&quot;border-color: var(--border-color);&quot;&gt;&lt;font style=&quot;font-size: 14px;&quot;&gt;1-5&lt;/font&gt;&lt;/sub&gt;&lt;span style=&quot;font-size: 23px;&quot;&gt;,&amp;nbsp;&lt;/span&gt;&lt;/font&gt;&lt;font color=&quot;#33ffff&quot; style=&quot;border-color: var(--border-color);&quot;&gt;&lt;span style=&quot;font-size: 23px;&quot;&gt;W&lt;/span&gt;&lt;sub style=&quot;border-color: var(--border-color);&quot;&gt;&lt;font style=&quot;font-size: 14px;&quot;&gt;1-5&lt;/font&gt;&lt;/sub&gt;&lt;span style=&quot;font-size: 23px;&quot;&gt;,B&lt;/span&gt;&lt;sub style=&quot;border-color: var(--border-color);&quot;&gt;&lt;font style=&quot;font-size: 14px;&quot;&gt;1-5&lt;/font&gt;&lt;/sub&gt;&lt;span style=&quot;font-size: 23px;&quot;&gt;,&amp;nbsp;&lt;/span&gt;&lt;/font&gt;&lt;font color=&quot;#cc0066&quot; style=&quot;border-color: var(--border-color);&quot;&gt;&lt;span style=&quot;font-size: 23px;&quot;&gt;W&lt;/span&gt;&lt;sub style=&quot;border-color: var(--border-color);&quot;&gt;&lt;font style=&quot;font-size: 14px;&quot;&gt;1&lt;/font&gt;&lt;/sub&gt;&lt;span style=&quot;font-size: 23px;&quot;&gt;,B&lt;/span&gt;&lt;sub style=&quot;border-color: var(--border-color);&quot;&gt;&lt;font style=&quot;font-size: 14px;&quot;&gt;1&lt;/font&gt;&lt;/sub&gt;&lt;span style=&quot;font-size: 23px;&quot;&gt;,&amp;nbsp;&lt;/span&gt;&lt;/font&gt;&lt;font color=&quot;#cccccc&quot; style=&quot;border-color: var(--border-color);&quot;&gt;&lt;span style=&quot;font-size: 23px;&quot;&gt;W&lt;/span&gt;&lt;sub style=&quot;border-color: var(--border-color);&quot;&gt;&lt;font style=&quot;font-size: 14px;&quot;&gt;1&lt;/font&gt;&lt;/sub&gt;&lt;span style=&quot;font-size: 23px;&quot;&gt;,B&lt;/span&gt;&lt;sub style=&quot;border-color: var(--border-color);&quot;&gt;&lt;font style=&quot;font-size: 14px;&quot;&gt;1&lt;/font&gt;&lt;/sub&gt;&lt;span style=&quot;font-size: 23px;&quot;&gt;,&amp;nbsp;&lt;/span&gt;&lt;/font&gt;&lt;font style=&quot;border-color: var(--border-color);&quot;&gt;&lt;font style=&quot;&quot; color=&quot;#ea6b66&quot;&gt;&lt;span style=&quot;font-size: 23px;&quot;&gt;W&lt;/span&gt;&lt;sub style=&quot;border-color: var(--border-color);&quot;&gt;&lt;font style=&quot;font-size: 14px;&quot;&gt;1&lt;/font&gt;&lt;/sub&gt;&lt;span style=&quot;font-size: 23px;&quot;&gt;,B&lt;/span&gt;&lt;sub style=&quot;border-color: var(--border-color);&quot;&gt;&lt;font style=&quot;font-size: 14px;&quot;&gt;1&amp;nbsp;&lt;/font&gt;&lt;/sub&gt;&lt;/font&gt;&lt;span style=&quot;font-size: 23px;&quot;&gt;]&lt;/span&gt;&lt;/font&gt;&lt;br&gt;&lt;/font&gt;" style="text;html=1;strokeColor=none;fillColor=none;align=center;verticalAlign=middle;whiteSpace=wrap;rounded=0;" vertex="1" parent="1">
          <mxGeometry x="1000" y="520" width="789" height="90" as="geometry" />
        </mxCell>
        <mxCell id="1uEtQ7aiUFXIfoO98c6w-158" value="&lt;font style=&quot;&quot;&gt;&lt;span style=&quot;font-size: 23px;&quot;&gt;[&lt;/span&gt;&lt;font style=&quot;&quot; color=&quot;#ff0000&quot;&gt;&lt;span style=&quot;font-size: 23px;&quot;&gt;W&lt;/span&gt;&lt;sub style=&quot;&quot;&gt;&lt;font style=&quot;font-size: 14px;&quot;&gt;1-6&lt;/font&gt;&lt;/sub&gt;&lt;span style=&quot;font-size: 23px;&quot;&gt;,B&lt;/span&gt;&lt;sub style=&quot;border-color: var(--border-color);&quot;&gt;&lt;font style=&quot;font-size: 14px;&quot;&gt;1-6&lt;/font&gt;&lt;/sub&gt;&lt;span style=&quot;font-size: 23px;&quot;&gt;,&amp;nbsp;&lt;/span&gt;&lt;/font&gt;&lt;font style=&quot;&quot; color=&quot;#00cc00&quot;&gt;&lt;span style=&quot;font-size: 23px;&quot;&gt;W&lt;/span&gt;&lt;sub style=&quot;border-color: var(--border-color);&quot;&gt;&lt;font style=&quot;font-size: 14px;&quot;&gt;1-6&lt;/font&gt;&lt;/sub&gt;&lt;span style=&quot;font-size: 23px;&quot;&gt;,B&lt;/span&gt;&lt;sub style=&quot;&quot;&gt;&lt;font style=&quot;font-size: 14px;&quot;&gt;1-6&lt;/font&gt;&lt;/sub&gt;&lt;span style=&quot;font-size: 23px;&quot;&gt;,&amp;nbsp;&lt;/span&gt;&lt;/font&gt;&lt;font style=&quot;&quot; color=&quot;#0000ff&quot;&gt;&lt;span style=&quot;font-size: 23px;&quot;&gt;W&lt;/span&gt;&lt;sub style=&quot;border-color: var(--border-color);&quot;&gt;&lt;font style=&quot;font-size: 14px;&quot;&gt;1-6&lt;/font&gt;&lt;/sub&gt;&lt;span style=&quot;font-size: 23px;&quot;&gt;,B&lt;/span&gt;&lt;sub style=&quot;border-color: var(--border-color);&quot;&gt;&lt;font style=&quot;font-size: 14px;&quot;&gt;1-6&lt;/font&gt;&lt;/sub&gt;&lt;span style=&quot;font-size: 23px;&quot;&gt;,&amp;nbsp;&lt;/span&gt;&lt;/font&gt;&lt;font color=&quot;#ffff00&quot; style=&quot;border-color: var(--border-color);&quot;&gt;&lt;span style=&quot;font-size: 23px;&quot;&gt;W&lt;/span&gt;&lt;sub style=&quot;border-color: var(--border-color);&quot;&gt;&lt;font style=&quot;font-size: 14px;&quot;&gt;1-6&lt;/font&gt;&lt;/sub&gt;&lt;span style=&quot;font-size: 23px;&quot;&gt;,B&lt;/span&gt;&lt;sub style=&quot;border-color: var(--border-color);&quot;&gt;&lt;font style=&quot;font-size: 14px;&quot;&gt;1-6&lt;/font&gt;&lt;/sub&gt;&lt;span style=&quot;font-size: 23px;&quot;&gt;,&amp;nbsp;&lt;/span&gt;&lt;/font&gt;&lt;font style=&quot;border-color: var(--border-color);&quot;&gt;&lt;span style=&quot;font-size: 23px;&quot;&gt;W&lt;/span&gt;&lt;sub style=&quot;border-color: var(--border-color);&quot;&gt;&lt;font style=&quot;font-size: 14px;&quot;&gt;1-6&lt;/font&gt;&lt;/sub&gt;&lt;span style=&quot;font-size: 23px;&quot;&gt;,B&lt;/span&gt;&lt;sub style=&quot;border-color: var(--border-color);&quot;&gt;&lt;font style=&quot;font-size: 14px;&quot;&gt;1-6&lt;/font&gt;&lt;/sub&gt;&lt;span style=&quot;font-size: 23px;&quot;&gt;,&amp;nbsp;&lt;/span&gt;&lt;/font&gt;&lt;font color=&quot;#ff8000&quot; style=&quot;border-color: var(--border-color);&quot;&gt;&lt;span style=&quot;font-size: 23px;&quot;&gt;W&lt;/span&gt;&lt;sub style=&quot;border-color: var(--border-color);&quot;&gt;&lt;font style=&quot;font-size: 14px;&quot;&gt;1-5&lt;/font&gt;&lt;/sub&gt;&lt;span style=&quot;font-size: 23px;&quot;&gt;,B&lt;/span&gt;&lt;sub style=&quot;border-color: var(--border-color);&quot;&gt;&lt;font style=&quot;font-size: 14px;&quot;&gt;1-5&lt;/font&gt;&lt;/sub&gt;&lt;span style=&quot;font-size: 23px;&quot;&gt;,&amp;nbsp;&lt;/span&gt;&lt;/font&gt;&lt;font color=&quot;#808080&quot; style=&quot;border-color: var(--border-color);&quot;&gt;&lt;span style=&quot;font-size: 23px;&quot;&gt;W&lt;/span&gt;&lt;sub style=&quot;border-color: var(--border-color);&quot;&gt;&lt;font style=&quot;font-size: 14px;&quot;&gt;1-5&lt;/font&gt;&lt;/sub&gt;&lt;span style=&quot;font-size: 23px;&quot;&gt;,B&lt;/span&gt;&lt;sub style=&quot;border-color: var(--border-color);&quot;&gt;&lt;font style=&quot;font-size: 14px;&quot;&gt;1-5&lt;/font&gt;&lt;/sub&gt;&lt;span style=&quot;font-size: 23px;&quot;&gt;,&lt;br&gt;&lt;/span&gt;&lt;/font&gt;&lt;font color=&quot;#990099&quot; style=&quot;border-color: var(--border-color);&quot;&gt;&lt;span style=&quot;font-size: 23px;&quot;&gt;W&lt;/span&gt;&lt;sub style=&quot;border-color: var(--border-color);&quot;&gt;&lt;font style=&quot;font-size: 14px;&quot;&gt;1-5&lt;/font&gt;&lt;/sub&gt;&lt;span style=&quot;font-size: 23px;&quot;&gt;,B&lt;/span&gt;&lt;sub style=&quot;border-color: var(--border-color);&quot;&gt;&lt;font style=&quot;font-size: 14px;&quot;&gt;1-5&lt;/font&gt;&lt;/sub&gt;&lt;span style=&quot;font-size: 23px;&quot;&gt;,&amp;nbsp;&lt;/span&gt;&lt;/font&gt;&lt;font color=&quot;#42858c&quot; style=&quot;border-color: var(--border-color);&quot;&gt;&lt;span style=&quot;font-size: 23px;&quot;&gt;W&lt;/span&gt;&lt;sub style=&quot;border-color: var(--border-color);&quot;&gt;&lt;font style=&quot;font-size: 14px;&quot;&gt;1-5&lt;/font&gt;&lt;/sub&gt;&lt;span style=&quot;font-size: 23px;&quot;&gt;,B&lt;/span&gt;&lt;sub style=&quot;border-color: var(--border-color);&quot;&gt;&lt;font style=&quot;font-size: 14px;&quot;&gt;1-5&lt;/font&gt;&lt;/sub&gt;&lt;span style=&quot;font-size: 23px;&quot;&gt;,&amp;nbsp;&lt;/span&gt;&lt;/font&gt;&lt;font color=&quot;#666600&quot; style=&quot;border-color: var(--border-color);&quot;&gt;&lt;span style=&quot;font-size: 23px;&quot;&gt;W&lt;/span&gt;&lt;sub style=&quot;border-color: var(--border-color);&quot;&gt;&lt;font style=&quot;font-size: 14px;&quot;&gt;1-5&lt;/font&gt;&lt;/sub&gt;&lt;span style=&quot;font-size: 23px;&quot;&gt;,B&lt;/span&gt;&lt;sub style=&quot;border-color: var(--border-color);&quot;&gt;&lt;font style=&quot;font-size: 14px;&quot;&gt;1-5&lt;/font&gt;&lt;/sub&gt;&lt;span style=&quot;font-size: 23px;&quot;&gt;,&amp;nbsp;&lt;/span&gt;&lt;/font&gt;&lt;font color=&quot;#33ffff&quot; style=&quot;border-color: var(--border-color);&quot;&gt;&lt;span style=&quot;font-size: 23px;&quot;&gt;W&lt;/span&gt;&lt;sub style=&quot;border-color: var(--border-color);&quot;&gt;&lt;font style=&quot;font-size: 14px;&quot;&gt;1-5&lt;/font&gt;&lt;/sub&gt;&lt;span style=&quot;font-size: 23px;&quot;&gt;,B&lt;/span&gt;&lt;sub style=&quot;border-color: var(--border-color);&quot;&gt;&lt;font style=&quot;font-size: 14px;&quot;&gt;1-5&lt;/font&gt;&lt;/sub&gt;&lt;span style=&quot;font-size: 23px;&quot;&gt;,&amp;nbsp;&lt;/span&gt;&lt;/font&gt;&lt;font color=&quot;#cc0066&quot; style=&quot;border-color: var(--border-color);&quot;&gt;&lt;span style=&quot;font-size: 23px;&quot;&gt;W&lt;/span&gt;&lt;sub style=&quot;border-color: var(--border-color);&quot;&gt;&lt;font style=&quot;font-size: 14px;&quot;&gt;1&lt;/font&gt;&lt;/sub&gt;&lt;span style=&quot;font-size: 23px;&quot;&gt;,B&lt;/span&gt;&lt;sub style=&quot;border-color: var(--border-color);&quot;&gt;&lt;font style=&quot;font-size: 14px;&quot;&gt;1&lt;/font&gt;&lt;/sub&gt;&lt;span style=&quot;font-size: 23px;&quot;&gt;,&amp;nbsp;&lt;/span&gt;&lt;/font&gt;&lt;font color=&quot;#cccccc&quot; style=&quot;border-color: var(--border-color);&quot;&gt;&lt;span style=&quot;font-size: 23px;&quot;&gt;W&lt;/span&gt;&lt;sub style=&quot;border-color: var(--border-color);&quot;&gt;&lt;font style=&quot;font-size: 14px;&quot;&gt;1&lt;/font&gt;&lt;/sub&gt;&lt;span style=&quot;font-size: 23px;&quot;&gt;,B&lt;/span&gt;&lt;sub style=&quot;border-color: var(--border-color);&quot;&gt;&lt;font style=&quot;font-size: 14px;&quot;&gt;1&lt;/font&gt;&lt;/sub&gt;&lt;span style=&quot;font-size: 23px;&quot;&gt;,&amp;nbsp;&lt;/span&gt;&lt;/font&gt;&lt;font style=&quot;border-color: var(--border-color);&quot;&gt;&lt;font style=&quot;&quot; color=&quot;#ea6b66&quot;&gt;&lt;span style=&quot;font-size: 23px;&quot;&gt;W&lt;/span&gt;&lt;sub style=&quot;border-color: var(--border-color);&quot;&gt;&lt;font style=&quot;font-size: 14px;&quot;&gt;1&lt;/font&gt;&lt;/sub&gt;&lt;span style=&quot;font-size: 23px;&quot;&gt;,B&lt;/span&gt;&lt;sub style=&quot;border-color: var(--border-color);&quot;&gt;&lt;font style=&quot;font-size: 14px;&quot;&gt;1&lt;/font&gt;&lt;/sub&gt;&lt;/font&gt;&lt;span style=&quot;font-size: 23px;&quot;&gt;]&lt;/span&gt;&lt;/font&gt;&lt;br&gt;&lt;/font&gt;" style="text;html=1;strokeColor=none;fillColor=none;align=center;verticalAlign=middle;whiteSpace=wrap;rounded=0;" vertex="1" parent="1">
          <mxGeometry x="1000" y="670" width="789" height="90" as="geometry" />
        </mxCell>
        <mxCell id="1uEtQ7aiUFXIfoO98c6w-160" style="edgeStyle=orthogonalEdgeStyle;rounded=0;orthogonalLoop=1;jettySize=auto;html=1;exitX=0.25;exitY=0;exitDx=0;exitDy=0;strokeColor=#FF0000;strokeWidth=2;startArrow=classic;startFill=1;endArrow=none;endFill=0;" edge="1" parent="1" source="1uEtQ7aiUFXIfoO98c6w-159">
          <mxGeometry relative="1" as="geometry">
            <mxPoint x="1120" y="190" as="targetPoint" />
            <Array as="points">
              <mxPoint x="1085" y="190" />
              <mxPoint x="1120" y="190" />
            </Array>
          </mxGeometry>
        </mxCell>
        <mxCell id="1uEtQ7aiUFXIfoO98c6w-159" value="" style="rounded=0;whiteSpace=wrap;html=1;fillColor=none;strokeColor=#FF0000;strokeWidth=2;" vertex="1" parent="1">
          <mxGeometry x="1060" y="536" width="98" height="29" as="geometry" />
        </mxCell>
        <mxCell id="1uEtQ7aiUFXIfoO98c6w-161" style="edgeStyle=orthogonalEdgeStyle;rounded=0;orthogonalLoop=1;jettySize=auto;html=1;strokeColor=#FF8000;exitX=0.25;exitY=0;exitDx=0;exitDy=0;strokeWidth=2;startArrow=classic;startFill=1;endArrow=none;endFill=0;" edge="1" parent="1" source="1uEtQ7aiUFXIfoO98c6w-162">
          <mxGeometry relative="1" as="geometry">
            <mxPoint x="1570" y="480" as="sourcePoint" />
            <mxPoint x="1320" y="130" as="targetPoint" />
            <Array as="points">
              <mxPoint x="1570" y="129" />
              <mxPoint x="1320" y="129" />
            </Array>
          </mxGeometry>
        </mxCell>
        <mxCell id="1uEtQ7aiUFXIfoO98c6w-162" value="" style="rounded=0;whiteSpace=wrap;html=1;fillColor=none;strokeColor=#FF8000;strokeWidth=2;" vertex="1" parent="1">
          <mxGeometry x="1545" y="536" width="98" height="29" as="geometry" />
        </mxCell>
        <mxCell id="1uEtQ7aiUFXIfoO98c6w-164" style="edgeStyle=orthogonalEdgeStyle;rounded=0;orthogonalLoop=1;jettySize=auto;html=1;exitX=0.75;exitY=1;exitDx=0;exitDy=0;strokeColor=#CC0066;strokeWidth=2;startArrow=classic;startFill=1;endArrow=none;endFill=0;" edge="1" parent="1" source="1uEtQ7aiUFXIfoO98c6w-163">
          <mxGeometry relative="1" as="geometry">
            <mxPoint x="1450" y="220" as="targetPoint" />
            <Array as="points">
              <mxPoint x="1531" y="620" />
              <mxPoint x="1760" y="620" />
              <mxPoint x="1760" y="220" />
            </Array>
          </mxGeometry>
        </mxCell>
        <mxCell id="1uEtQ7aiUFXIfoO98c6w-163" value="" style="rounded=0;whiteSpace=wrap;html=1;fillColor=none;strokeColor=#CC0066;strokeWidth=2;" vertex="1" parent="1">
          <mxGeometry x="1477" y="566" width="72" height="29" as="geometry" />
        </mxCell>
        <mxCell id="1uEtQ7aiUFXIfoO98c6w-237" style="rounded=0;orthogonalLoop=1;jettySize=auto;html=1;endArrow=none;endFill=0;strokeWidth=1;strokeColor=#000000;" edge="1" parent="1" source="1uEtQ7aiUFXIfoO98c6w-238" target="1uEtQ7aiUFXIfoO98c6w-244">
          <mxGeometry relative="1" as="geometry" />
        </mxCell>
        <mxCell id="1uEtQ7aiUFXIfoO98c6w-238" value="" style="ellipse;whiteSpace=wrap;html=1;aspect=fixed;strokeWidth=2;" vertex="1" parent="1">
          <mxGeometry x="1960" y="122" width="40" height="40" as="geometry" />
        </mxCell>
        <mxCell id="1uEtQ7aiUFXIfoO98c6w-239" value="" style="ellipse;whiteSpace=wrap;html=1;aspect=fixed;strokeWidth=2;" vertex="1" parent="1">
          <mxGeometry x="1960" y="204" width="40" height="40" as="geometry" />
        </mxCell>
        <mxCell id="1uEtQ7aiUFXIfoO98c6w-240" value="" style="ellipse;whiteSpace=wrap;html=1;aspect=fixed;strokeWidth=2;" vertex="1" parent="1">
          <mxGeometry x="2080" y="162" width="40" height="40" as="geometry" />
        </mxCell>
        <mxCell id="1uEtQ7aiUFXIfoO98c6w-241" value="" style="ellipse;whiteSpace=wrap;html=1;aspect=fixed;strokeWidth=2;" vertex="1" parent="1">
          <mxGeometry x="1960" y="282" width="40" height="40" as="geometry" />
        </mxCell>
        <mxCell id="1uEtQ7aiUFXIfoO98c6w-242" value="" style="ellipse;whiteSpace=wrap;html=1;aspect=fixed;strokeWidth=2;" vertex="1" parent="1">
          <mxGeometry x="1960" y="364" width="40" height="40" as="geometry" />
        </mxCell>
        <mxCell id="1uEtQ7aiUFXIfoO98c6w-243" value="" style="ellipse;whiteSpace=wrap;html=1;aspect=fixed;strokeWidth=2;" vertex="1" parent="1">
          <mxGeometry x="1960" y="442" width="40" height="40" as="geometry" />
        </mxCell>
        <mxCell id="1uEtQ7aiUFXIfoO98c6w-244" value="" style="ellipse;whiteSpace=wrap;html=1;aspect=fixed;strokeWidth=2;" vertex="1" parent="1">
          <mxGeometry x="2080" y="82" width="40" height="40" as="geometry" />
        </mxCell>
        <mxCell id="1uEtQ7aiUFXIfoO98c6w-245" value="" style="ellipse;whiteSpace=wrap;html=1;aspect=fixed;strokeWidth=2;" vertex="1" parent="1">
          <mxGeometry x="2080" y="242" width="40" height="40" as="geometry" />
        </mxCell>
        <mxCell id="1uEtQ7aiUFXIfoO98c6w-246" value="" style="ellipse;whiteSpace=wrap;html=1;aspect=fixed;strokeWidth=2;" vertex="1" parent="1">
          <mxGeometry x="2080" y="322" width="40" height="40" as="geometry" />
        </mxCell>
        <mxCell id="1uEtQ7aiUFXIfoO98c6w-247" value="" style="ellipse;whiteSpace=wrap;html=1;aspect=fixed;strokeWidth=2;" vertex="1" parent="1">
          <mxGeometry x="2080" y="402" width="40" height="40" as="geometry" />
        </mxCell>
        <mxCell id="1uEtQ7aiUFXIfoO98c6w-248" value="" style="ellipse;whiteSpace=wrap;html=1;aspect=fixed;strokeWidth=2;" vertex="1" parent="1">
          <mxGeometry x="2080" y="482" width="40" height="40" as="geometry" />
        </mxCell>
        <mxCell id="1uEtQ7aiUFXIfoO98c6w-249" value="" style="ellipse;whiteSpace=wrap;html=1;aspect=fixed;strokeWidth=2;" vertex="1" parent="1">
          <mxGeometry x="2200" y="202" width="40" height="40" as="geometry" />
        </mxCell>
        <mxCell id="1uEtQ7aiUFXIfoO98c6w-250" value="" style="ellipse;whiteSpace=wrap;html=1;aspect=fixed;strokeWidth=2;" vertex="1" parent="1">
          <mxGeometry x="2200" y="282" width="40" height="40" as="geometry" />
        </mxCell>
        <mxCell id="1uEtQ7aiUFXIfoO98c6w-251" value="" style="ellipse;whiteSpace=wrap;html=1;aspect=fixed;strokeWidth=2;" vertex="1" parent="1">
          <mxGeometry x="2200" y="362" width="40" height="40" as="geometry" />
        </mxCell>
        <mxCell id="1uEtQ7aiUFXIfoO98c6w-252" style="rounded=0;orthogonalLoop=1;jettySize=auto;html=1;endArrow=none;endFill=0;strokeWidth=1;strokeColor=#000000;" edge="1" parent="1" source="1uEtQ7aiUFXIfoO98c6w-238" target="1uEtQ7aiUFXIfoO98c6w-240">
          <mxGeometry relative="1" as="geometry">
            <mxPoint x="2009" y="146" as="sourcePoint" />
            <mxPoint x="2091" y="118" as="targetPoint" />
          </mxGeometry>
        </mxCell>
        <mxCell id="1uEtQ7aiUFXIfoO98c6w-253" style="rounded=0;orthogonalLoop=1;jettySize=auto;html=1;endArrow=none;endFill=0;strokeWidth=1;strokeColor=#000000;" edge="1" parent="1" source="1uEtQ7aiUFXIfoO98c6w-238" target="1uEtQ7aiUFXIfoO98c6w-245">
          <mxGeometry relative="1" as="geometry">
            <mxPoint x="2019" y="156" as="sourcePoint" />
            <mxPoint x="2101" y="128" as="targetPoint" />
          </mxGeometry>
        </mxCell>
        <mxCell id="1uEtQ7aiUFXIfoO98c6w-254" style="rounded=0;orthogonalLoop=1;jettySize=auto;html=1;endArrow=none;endFill=0;strokeWidth=1;strokeColor=#000000;" edge="1" parent="1" source="1uEtQ7aiUFXIfoO98c6w-238" target="1uEtQ7aiUFXIfoO98c6w-246">
          <mxGeometry relative="1" as="geometry">
            <mxPoint x="2029" y="166" as="sourcePoint" />
            <mxPoint x="2111" y="138" as="targetPoint" />
          </mxGeometry>
        </mxCell>
        <mxCell id="1uEtQ7aiUFXIfoO98c6w-255" style="rounded=0;orthogonalLoop=1;jettySize=auto;html=1;endArrow=none;endFill=0;strokeWidth=1;strokeColor=#000000;" edge="1" parent="1" source="1uEtQ7aiUFXIfoO98c6w-238" target="1uEtQ7aiUFXIfoO98c6w-247">
          <mxGeometry relative="1" as="geometry">
            <mxPoint x="2039" y="176" as="sourcePoint" />
            <mxPoint x="2121" y="148" as="targetPoint" />
          </mxGeometry>
        </mxCell>
        <mxCell id="1uEtQ7aiUFXIfoO98c6w-256" style="rounded=0;orthogonalLoop=1;jettySize=auto;html=1;endArrow=none;endFill=0;strokeWidth=1;strokeColor=#000000;" edge="1" parent="1" source="1uEtQ7aiUFXIfoO98c6w-238" target="1uEtQ7aiUFXIfoO98c6w-248">
          <mxGeometry relative="1" as="geometry">
            <mxPoint x="2049" y="186" as="sourcePoint" />
            <mxPoint x="2131" y="158" as="targetPoint" />
          </mxGeometry>
        </mxCell>
        <mxCell id="1uEtQ7aiUFXIfoO98c6w-257" style="rounded=0;orthogonalLoop=1;jettySize=auto;html=1;endArrow=none;endFill=0;strokeColor=#000000;strokeWidth=1;" edge="1" parent="1" source="1uEtQ7aiUFXIfoO98c6w-239" target="1uEtQ7aiUFXIfoO98c6w-244">
          <mxGeometry relative="1" as="geometry">
            <mxPoint x="2059" y="196" as="sourcePoint" />
            <mxPoint x="2141" y="168" as="targetPoint" />
          </mxGeometry>
        </mxCell>
        <mxCell id="1uEtQ7aiUFXIfoO98c6w-258" style="rounded=0;orthogonalLoop=1;jettySize=auto;html=1;endArrow=none;endFill=0;strokeColor=#000000;strokeWidth=1;" edge="1" parent="1" source="1uEtQ7aiUFXIfoO98c6w-239" target="1uEtQ7aiUFXIfoO98c6w-240">
          <mxGeometry relative="1" as="geometry">
            <mxPoint x="2069" y="206" as="sourcePoint" />
            <mxPoint x="2151" y="178" as="targetPoint" />
          </mxGeometry>
        </mxCell>
        <mxCell id="1uEtQ7aiUFXIfoO98c6w-259" style="rounded=0;orthogonalLoop=1;jettySize=auto;html=1;endArrow=none;endFill=0;strokeColor=#000000;strokeWidth=1;" edge="1" parent="1" source="1uEtQ7aiUFXIfoO98c6w-239" target="1uEtQ7aiUFXIfoO98c6w-245">
          <mxGeometry relative="1" as="geometry">
            <mxPoint x="2079" y="216" as="sourcePoint" />
            <mxPoint x="2161" y="188" as="targetPoint" />
          </mxGeometry>
        </mxCell>
        <mxCell id="1uEtQ7aiUFXIfoO98c6w-260" style="rounded=0;orthogonalLoop=1;jettySize=auto;html=1;endArrow=none;endFill=0;strokeColor=#000000;strokeWidth=1;" edge="1" parent="1" source="1uEtQ7aiUFXIfoO98c6w-239" target="1uEtQ7aiUFXIfoO98c6w-246">
          <mxGeometry relative="1" as="geometry">
            <mxPoint x="2089" y="226" as="sourcePoint" />
            <mxPoint x="2030" y="372" as="targetPoint" />
          </mxGeometry>
        </mxCell>
        <mxCell id="1uEtQ7aiUFXIfoO98c6w-261" style="rounded=0;orthogonalLoop=1;jettySize=auto;html=1;endArrow=none;endFill=0;strokeColor=#000000;strokeWidth=1;" edge="1" parent="1" source="1uEtQ7aiUFXIfoO98c6w-239" target="1uEtQ7aiUFXIfoO98c6w-247">
          <mxGeometry relative="1" as="geometry">
            <mxPoint x="2099" y="236" as="sourcePoint" />
            <mxPoint x="2181" y="208" as="targetPoint" />
          </mxGeometry>
        </mxCell>
        <mxCell id="1uEtQ7aiUFXIfoO98c6w-262" style="rounded=0;orthogonalLoop=1;jettySize=auto;html=1;endArrow=none;endFill=0;strokeColor=#000000;strokeWidth=1;" edge="1" parent="1" source="1uEtQ7aiUFXIfoO98c6w-239" target="1uEtQ7aiUFXIfoO98c6w-248">
          <mxGeometry relative="1" as="geometry">
            <mxPoint x="2109" y="246" as="sourcePoint" />
            <mxPoint x="2191" y="218" as="targetPoint" />
          </mxGeometry>
        </mxCell>
        <mxCell id="1uEtQ7aiUFXIfoO98c6w-263" style="rounded=0;orthogonalLoop=1;jettySize=auto;html=1;endArrow=none;endFill=0;strokeColor=#000000;strokeWidth=1;" edge="1" parent="1" source="1uEtQ7aiUFXIfoO98c6w-241" target="1uEtQ7aiUFXIfoO98c6w-244">
          <mxGeometry relative="1" as="geometry">
            <mxPoint x="2119" y="256" as="sourcePoint" />
            <mxPoint x="2201" y="228" as="targetPoint" />
          </mxGeometry>
        </mxCell>
        <mxCell id="1uEtQ7aiUFXIfoO98c6w-264" style="rounded=0;orthogonalLoop=1;jettySize=auto;html=1;endArrow=none;endFill=0;strokeColor=#000000;strokeWidth=1;" edge="1" parent="1" source="1uEtQ7aiUFXIfoO98c6w-241" target="1uEtQ7aiUFXIfoO98c6w-240">
          <mxGeometry relative="1" as="geometry">
            <mxPoint x="2129" y="266" as="sourcePoint" />
            <mxPoint x="2211" y="238" as="targetPoint" />
          </mxGeometry>
        </mxCell>
        <mxCell id="1uEtQ7aiUFXIfoO98c6w-265" style="rounded=0;orthogonalLoop=1;jettySize=auto;html=1;endArrow=none;endFill=0;strokeColor=#000000;strokeWidth=1;" edge="1" parent="1" source="1uEtQ7aiUFXIfoO98c6w-241" target="1uEtQ7aiUFXIfoO98c6w-245">
          <mxGeometry relative="1" as="geometry">
            <mxPoint x="2139" y="276" as="sourcePoint" />
            <mxPoint x="2221" y="248" as="targetPoint" />
          </mxGeometry>
        </mxCell>
        <mxCell id="1uEtQ7aiUFXIfoO98c6w-266" style="rounded=0;orthogonalLoop=1;jettySize=auto;html=1;endArrow=none;endFill=0;strokeColor=#000000;strokeWidth=1;" edge="1" parent="1" source="1uEtQ7aiUFXIfoO98c6w-241" target="1uEtQ7aiUFXIfoO98c6w-246">
          <mxGeometry relative="1" as="geometry">
            <mxPoint x="2149" y="286" as="sourcePoint" />
            <mxPoint x="2231" y="258" as="targetPoint" />
          </mxGeometry>
        </mxCell>
        <mxCell id="1uEtQ7aiUFXIfoO98c6w-267" style="rounded=0;orthogonalLoop=1;jettySize=auto;html=1;endArrow=none;endFill=0;strokeColor=#000000;strokeWidth=1;" edge="1" parent="1" source="1uEtQ7aiUFXIfoO98c6w-241" target="1uEtQ7aiUFXIfoO98c6w-247">
          <mxGeometry relative="1" as="geometry">
            <mxPoint x="2159" y="296" as="sourcePoint" />
            <mxPoint x="2241" y="268" as="targetPoint" />
          </mxGeometry>
        </mxCell>
        <mxCell id="1uEtQ7aiUFXIfoO98c6w-268" style="rounded=0;orthogonalLoop=1;jettySize=auto;html=1;endArrow=none;endFill=0;strokeColor=#000000;strokeWidth=1;" edge="1" parent="1" source="1uEtQ7aiUFXIfoO98c6w-241" target="1uEtQ7aiUFXIfoO98c6w-248">
          <mxGeometry relative="1" as="geometry">
            <mxPoint x="2169" y="306" as="sourcePoint" />
            <mxPoint x="2251" y="278" as="targetPoint" />
          </mxGeometry>
        </mxCell>
        <mxCell id="1uEtQ7aiUFXIfoO98c6w-269" style="rounded=0;orthogonalLoop=1;jettySize=auto;html=1;endArrow=none;endFill=0;strokeColor=#000000;strokeWidth=1;" edge="1" parent="1" source="1uEtQ7aiUFXIfoO98c6w-242" target="1uEtQ7aiUFXIfoO98c6w-244">
          <mxGeometry relative="1" as="geometry">
            <mxPoint x="2179" y="316" as="sourcePoint" />
            <mxPoint x="2261" y="288" as="targetPoint" />
          </mxGeometry>
        </mxCell>
        <mxCell id="1uEtQ7aiUFXIfoO98c6w-270" style="rounded=0;orthogonalLoop=1;jettySize=auto;html=1;endArrow=none;endFill=0;strokeColor=#000000;strokeWidth=1;" edge="1" parent="1" source="1uEtQ7aiUFXIfoO98c6w-242" target="1uEtQ7aiUFXIfoO98c6w-240">
          <mxGeometry relative="1" as="geometry">
            <mxPoint x="2189" y="326" as="sourcePoint" />
            <mxPoint x="2271" y="298" as="targetPoint" />
          </mxGeometry>
        </mxCell>
        <mxCell id="1uEtQ7aiUFXIfoO98c6w-271" style="rounded=0;orthogonalLoop=1;jettySize=auto;html=1;endArrow=none;endFill=0;strokeColor=#000000;strokeWidth=1;" edge="1" parent="1" source="1uEtQ7aiUFXIfoO98c6w-242" target="1uEtQ7aiUFXIfoO98c6w-245">
          <mxGeometry relative="1" as="geometry">
            <mxPoint x="2199" y="336" as="sourcePoint" />
            <mxPoint x="2281" y="308" as="targetPoint" />
          </mxGeometry>
        </mxCell>
        <mxCell id="1uEtQ7aiUFXIfoO98c6w-272" style="rounded=0;orthogonalLoop=1;jettySize=auto;html=1;endArrow=none;endFill=0;strokeColor=#000000;strokeWidth=1;" edge="1" parent="1" source="1uEtQ7aiUFXIfoO98c6w-242" target="1uEtQ7aiUFXIfoO98c6w-246">
          <mxGeometry relative="1" as="geometry">
            <mxPoint x="2209" y="346" as="sourcePoint" />
            <mxPoint x="2291" y="318" as="targetPoint" />
          </mxGeometry>
        </mxCell>
        <mxCell id="1uEtQ7aiUFXIfoO98c6w-273" style="rounded=0;orthogonalLoop=1;jettySize=auto;html=1;endArrow=none;endFill=0;strokeColor=#000000;strokeWidth=1;" edge="1" parent="1" source="1uEtQ7aiUFXIfoO98c6w-242" target="1uEtQ7aiUFXIfoO98c6w-247">
          <mxGeometry relative="1" as="geometry">
            <mxPoint x="2219" y="356" as="sourcePoint" />
            <mxPoint x="2301" y="328" as="targetPoint" />
          </mxGeometry>
        </mxCell>
        <mxCell id="1uEtQ7aiUFXIfoO98c6w-274" style="rounded=0;orthogonalLoop=1;jettySize=auto;html=1;endArrow=none;endFill=0;strokeColor=#000000;strokeWidth=1;" edge="1" parent="1" source="1uEtQ7aiUFXIfoO98c6w-242" target="1uEtQ7aiUFXIfoO98c6w-248">
          <mxGeometry relative="1" as="geometry">
            <mxPoint x="2229" y="366" as="sourcePoint" />
            <mxPoint x="2311" y="338" as="targetPoint" />
          </mxGeometry>
        </mxCell>
        <mxCell id="1uEtQ7aiUFXIfoO98c6w-275" style="rounded=0;orthogonalLoop=1;jettySize=auto;html=1;endArrow=none;endFill=0;strokeWidth=1;strokeColor=#000000;" edge="1" parent="1" source="1uEtQ7aiUFXIfoO98c6w-243" target="1uEtQ7aiUFXIfoO98c6w-248">
          <mxGeometry relative="1" as="geometry">
            <mxPoint x="2004" y="408" as="sourcePoint" />
            <mxPoint x="2096" y="498" as="targetPoint" />
          </mxGeometry>
        </mxCell>
        <mxCell id="1uEtQ7aiUFXIfoO98c6w-276" style="rounded=0;orthogonalLoop=1;jettySize=auto;html=1;endArrow=none;endFill=0;strokeWidth=1;strokeColor=#000000;" edge="1" parent="1" source="1uEtQ7aiUFXIfoO98c6w-243" target="1uEtQ7aiUFXIfoO98c6w-247">
          <mxGeometry relative="1" as="geometry">
            <mxPoint x="2014" y="418" as="sourcePoint" />
            <mxPoint x="2106" y="508" as="targetPoint" />
          </mxGeometry>
        </mxCell>
        <mxCell id="1uEtQ7aiUFXIfoO98c6w-277" style="rounded=0;orthogonalLoop=1;jettySize=auto;html=1;endArrow=none;endFill=0;strokeWidth=1;strokeColor=#000000;" edge="1" parent="1" source="1uEtQ7aiUFXIfoO98c6w-243" target="1uEtQ7aiUFXIfoO98c6w-246">
          <mxGeometry relative="1" as="geometry">
            <mxPoint x="2024" y="428" as="sourcePoint" />
            <mxPoint x="2116" y="518" as="targetPoint" />
          </mxGeometry>
        </mxCell>
        <mxCell id="1uEtQ7aiUFXIfoO98c6w-278" style="rounded=0;orthogonalLoop=1;jettySize=auto;html=1;endArrow=none;endFill=0;strokeWidth=1;strokeColor=#000000;" edge="1" parent="1" source="1uEtQ7aiUFXIfoO98c6w-243" target="1uEtQ7aiUFXIfoO98c6w-245">
          <mxGeometry relative="1" as="geometry">
            <mxPoint x="2034" y="438" as="sourcePoint" />
            <mxPoint x="2126" y="528" as="targetPoint" />
          </mxGeometry>
        </mxCell>
        <mxCell id="1uEtQ7aiUFXIfoO98c6w-279" style="rounded=0;orthogonalLoop=1;jettySize=auto;html=1;endArrow=none;endFill=0;strokeWidth=1;strokeColor=#000000;" edge="1" parent="1" source="1uEtQ7aiUFXIfoO98c6w-243" target="1uEtQ7aiUFXIfoO98c6w-240">
          <mxGeometry relative="1" as="geometry">
            <mxPoint x="2044" y="448" as="sourcePoint" />
            <mxPoint x="2136" y="538" as="targetPoint" />
          </mxGeometry>
        </mxCell>
        <mxCell id="1uEtQ7aiUFXIfoO98c6w-280" style="rounded=0;orthogonalLoop=1;jettySize=auto;html=1;endArrow=none;endFill=0;strokeWidth=1;strokeColor=#000000;" edge="1" parent="1" source="1uEtQ7aiUFXIfoO98c6w-243" target="1uEtQ7aiUFXIfoO98c6w-244">
          <mxGeometry relative="1" as="geometry">
            <mxPoint x="2054" y="458" as="sourcePoint" />
            <mxPoint x="2146" y="548" as="targetPoint" />
          </mxGeometry>
        </mxCell>
        <mxCell id="1uEtQ7aiUFXIfoO98c6w-281" style="rounded=0;orthogonalLoop=1;jettySize=auto;html=1;endArrow=none;endFill=0;strokeColor=#FF8000;strokeWidth=2;" edge="1" parent="1" source="1uEtQ7aiUFXIfoO98c6w-244" target="1uEtQ7aiUFXIfoO98c6w-249">
          <mxGeometry relative="1" as="geometry">
            <mxPoint x="2064" y="468" as="sourcePoint" />
            <mxPoint x="2156" y="558" as="targetPoint" />
          </mxGeometry>
        </mxCell>
        <mxCell id="1uEtQ7aiUFXIfoO98c6w-282" style="rounded=0;orthogonalLoop=1;jettySize=auto;html=1;endArrow=none;endFill=0;strokeColor=#FF8000;strokeWidth=2;" edge="1" parent="1" source="1uEtQ7aiUFXIfoO98c6w-244" target="1uEtQ7aiUFXIfoO98c6w-250">
          <mxGeometry relative="1" as="geometry">
            <mxPoint x="2124" y="126" as="sourcePoint" />
            <mxPoint x="2216" y="218" as="targetPoint" />
          </mxGeometry>
        </mxCell>
        <mxCell id="1uEtQ7aiUFXIfoO98c6w-283" style="rounded=0;orthogonalLoop=1;jettySize=auto;html=1;endArrow=none;endFill=0;strokeColor=#808080;strokeWidth=2;" edge="1" parent="1" source="1uEtQ7aiUFXIfoO98c6w-240" target="1uEtQ7aiUFXIfoO98c6w-251">
          <mxGeometry relative="1" as="geometry">
            <mxPoint x="2134" y="136" as="sourcePoint" />
            <mxPoint x="2226" y="228" as="targetPoint" />
          </mxGeometry>
        </mxCell>
        <mxCell id="1uEtQ7aiUFXIfoO98c6w-284" style="rounded=0;orthogonalLoop=1;jettySize=auto;html=1;endArrow=none;endFill=0;strokeColor=#FF8000;strokeWidth=2;" edge="1" parent="1" source="1uEtQ7aiUFXIfoO98c6w-244" target="1uEtQ7aiUFXIfoO98c6w-251">
          <mxGeometry relative="1" as="geometry">
            <mxPoint x="2110" y="199" as="sourcePoint" />
            <mxPoint x="2210" y="365" as="targetPoint" />
          </mxGeometry>
        </mxCell>
        <mxCell id="1uEtQ7aiUFXIfoO98c6w-285" style="rounded=0;orthogonalLoop=1;jettySize=auto;html=1;endArrow=none;endFill=0;strokeColor=#808080;strokeWidth=2;" edge="1" parent="1" source="1uEtQ7aiUFXIfoO98c6w-240" target="1uEtQ7aiUFXIfoO98c6w-250">
          <mxGeometry relative="1" as="geometry">
            <mxPoint x="2120" y="209" as="sourcePoint" />
            <mxPoint x="2220" y="375" as="targetPoint" />
          </mxGeometry>
        </mxCell>
        <mxCell id="1uEtQ7aiUFXIfoO98c6w-286" style="rounded=0;orthogonalLoop=1;jettySize=auto;html=1;endArrow=none;endFill=0;strokeColor=#808080;strokeWidth=2;" edge="1" parent="1" source="1uEtQ7aiUFXIfoO98c6w-240" target="1uEtQ7aiUFXIfoO98c6w-249">
          <mxGeometry relative="1" as="geometry">
            <mxPoint x="2130" y="219" as="sourcePoint" />
            <mxPoint x="2230" y="385" as="targetPoint" />
          </mxGeometry>
        </mxCell>
        <mxCell id="1uEtQ7aiUFXIfoO98c6w-287" style="rounded=0;orthogonalLoop=1;jettySize=auto;html=1;endArrow=none;endFill=0;strokeColor=#990099;strokeWidth=2;" edge="1" parent="1" source="1uEtQ7aiUFXIfoO98c6w-245" target="1uEtQ7aiUFXIfoO98c6w-249">
          <mxGeometry relative="1" as="geometry">
            <mxPoint x="2140" y="229" as="sourcePoint" />
            <mxPoint x="2240" y="395" as="targetPoint" />
          </mxGeometry>
        </mxCell>
        <mxCell id="1uEtQ7aiUFXIfoO98c6w-288" style="rounded=0;orthogonalLoop=1;jettySize=auto;html=1;endArrow=none;endFill=0;strokeColor=#990099;strokeWidth=2;" edge="1" parent="1" source="1uEtQ7aiUFXIfoO98c6w-245" target="1uEtQ7aiUFXIfoO98c6w-250">
          <mxGeometry relative="1" as="geometry">
            <mxPoint x="2150" y="239" as="sourcePoint" />
            <mxPoint x="2250" y="405" as="targetPoint" />
          </mxGeometry>
        </mxCell>
        <mxCell id="1uEtQ7aiUFXIfoO98c6w-289" style="rounded=0;orthogonalLoop=1;jettySize=auto;html=1;endArrow=none;endFill=0;strokeColor=#990099;strokeWidth=2;" edge="1" parent="1" source="1uEtQ7aiUFXIfoO98c6w-245" target="1uEtQ7aiUFXIfoO98c6w-251">
          <mxGeometry relative="1" as="geometry">
            <mxPoint x="2129" y="278" as="sourcePoint" />
            <mxPoint x="2211" y="306" as="targetPoint" />
          </mxGeometry>
        </mxCell>
        <mxCell id="1uEtQ7aiUFXIfoO98c6w-290" style="rounded=0;orthogonalLoop=1;jettySize=auto;html=1;endArrow=none;endFill=0;strokeColor=#42858C;strokeWidth=2;" edge="1" parent="1" source="1uEtQ7aiUFXIfoO98c6w-246" target="1uEtQ7aiUFXIfoO98c6w-249">
          <mxGeometry relative="1" as="geometry">
            <mxPoint x="2139" y="288" as="sourcePoint" />
            <mxPoint x="2221" y="316" as="targetPoint" />
          </mxGeometry>
        </mxCell>
        <mxCell id="1uEtQ7aiUFXIfoO98c6w-291" style="rounded=0;orthogonalLoop=1;jettySize=auto;html=1;endArrow=none;endFill=0;strokeColor=#42858C;strokeWidth=2;" edge="1" parent="1" source="1uEtQ7aiUFXIfoO98c6w-246" target="1uEtQ7aiUFXIfoO98c6w-250">
          <mxGeometry relative="1" as="geometry">
            <mxPoint x="2124" y="338" as="sourcePoint" />
            <mxPoint x="2216" y="246" as="targetPoint" />
          </mxGeometry>
        </mxCell>
        <mxCell id="1uEtQ7aiUFXIfoO98c6w-292" style="rounded=0;orthogonalLoop=1;jettySize=auto;html=1;endArrow=none;endFill=0;strokeColor=#42858C;strokeWidth=2;" edge="1" parent="1" source="1uEtQ7aiUFXIfoO98c6w-246" target="1uEtQ7aiUFXIfoO98c6w-251">
          <mxGeometry relative="1" as="geometry">
            <mxPoint x="2134" y="348" as="sourcePoint" />
            <mxPoint x="2226" y="256" as="targetPoint" />
          </mxGeometry>
        </mxCell>
        <mxCell id="1uEtQ7aiUFXIfoO98c6w-293" style="rounded=0;orthogonalLoop=1;jettySize=auto;html=1;endArrow=none;endFill=0;strokeColor=#666600;strokeWidth=2;" edge="1" parent="1" source="1uEtQ7aiUFXIfoO98c6w-247" target="1uEtQ7aiUFXIfoO98c6w-249">
          <mxGeometry relative="1" as="geometry">
            <mxPoint x="2144" y="358" as="sourcePoint" />
            <mxPoint x="2236" y="266" as="targetPoint" />
          </mxGeometry>
        </mxCell>
        <mxCell id="1uEtQ7aiUFXIfoO98c6w-294" style="rounded=0;orthogonalLoop=1;jettySize=auto;html=1;endArrow=none;endFill=0;strokeColor=#666600;strokeWidth=2;" edge="1" parent="1" source="1uEtQ7aiUFXIfoO98c6w-247" target="1uEtQ7aiUFXIfoO98c6w-250">
          <mxGeometry relative="1" as="geometry">
            <mxPoint x="2120" y="415" as="sourcePoint" />
            <mxPoint x="2220" y="249" as="targetPoint" />
          </mxGeometry>
        </mxCell>
        <mxCell id="1uEtQ7aiUFXIfoO98c6w-295" style="rounded=0;orthogonalLoop=1;jettySize=auto;html=1;endArrow=none;endFill=0;strokeColor=#666600;strokeWidth=2;" edge="1" parent="1" source="1uEtQ7aiUFXIfoO98c6w-247" target="1uEtQ7aiUFXIfoO98c6w-251">
          <mxGeometry relative="1" as="geometry">
            <mxPoint x="2130" y="425" as="sourcePoint" />
            <mxPoint x="2230" y="259" as="targetPoint" />
          </mxGeometry>
        </mxCell>
        <mxCell id="1uEtQ7aiUFXIfoO98c6w-296" style="rounded=0;orthogonalLoop=1;jettySize=auto;html=1;endArrow=none;endFill=0;entryX=0;entryY=1;entryDx=0;entryDy=0;strokeColor=#33FFFF;strokeWidth=2;" edge="1" parent="1" source="1uEtQ7aiUFXIfoO98c6w-248" target="1uEtQ7aiUFXIfoO98c6w-251">
          <mxGeometry relative="1" as="geometry">
            <mxPoint x="2129" y="426" as="sourcePoint" />
            <mxPoint x="2211" y="398" as="targetPoint" />
          </mxGeometry>
        </mxCell>
        <mxCell id="1uEtQ7aiUFXIfoO98c6w-297" style="rounded=0;orthogonalLoop=1;jettySize=auto;html=1;endArrow=none;endFill=0;strokeColor=#33FFFF;strokeWidth=2;" edge="1" parent="1" source="1uEtQ7aiUFXIfoO98c6w-248" target="1uEtQ7aiUFXIfoO98c6w-250">
          <mxGeometry relative="1" as="geometry">
            <mxPoint x="2124" y="498" as="sourcePoint" />
            <mxPoint x="2216" y="406" as="targetPoint" />
          </mxGeometry>
        </mxCell>
        <mxCell id="1uEtQ7aiUFXIfoO98c6w-298" style="rounded=0;orthogonalLoop=1;jettySize=auto;html=1;endArrow=none;endFill=0;strokeColor=#33FFFF;strokeWidth=2;" edge="1" parent="1" source="1uEtQ7aiUFXIfoO98c6w-248" target="1uEtQ7aiUFXIfoO98c6w-249">
          <mxGeometry relative="1" as="geometry">
            <mxPoint x="2120" y="495" as="sourcePoint" />
            <mxPoint x="2220" y="329" as="targetPoint" />
          </mxGeometry>
        </mxCell>
        <mxCell id="1uEtQ7aiUFXIfoO98c6w-299" value="" style="ellipse;whiteSpace=wrap;html=1;aspect=fixed;strokeWidth=2;" vertex="1" parent="1">
          <mxGeometry x="2320" y="282" width="40" height="40" as="geometry" />
        </mxCell>
        <mxCell id="1uEtQ7aiUFXIfoO98c6w-300" style="rounded=0;orthogonalLoop=1;jettySize=auto;html=1;endArrow=none;endFill=0;strokeColor=#CC0066;strokeWidth=2;" edge="1" parent="1" source="1uEtQ7aiUFXIfoO98c6w-299" target="1uEtQ7aiUFXIfoO98c6w-249">
          <mxGeometry relative="1" as="geometry">
            <mxPoint x="2124" y="126" as="sourcePoint" />
            <mxPoint x="2216" y="218" as="targetPoint" />
          </mxGeometry>
        </mxCell>
        <mxCell id="1uEtQ7aiUFXIfoO98c6w-301" style="rounded=0;orthogonalLoop=1;jettySize=auto;html=1;endArrow=none;endFill=0;strokeColor=#3333FF;strokeWidth=2;" edge="1" parent="1" source="1uEtQ7aiUFXIfoO98c6w-299" target="1uEtQ7aiUFXIfoO98c6w-250">
          <mxGeometry relative="1" as="geometry">
            <mxPoint x="2340" y="301" as="sourcePoint" />
            <mxPoint x="2247" y="243" as="targetPoint" />
          </mxGeometry>
        </mxCell>
        <mxCell id="1uEtQ7aiUFXIfoO98c6w-302" style="rounded=0;orthogonalLoop=1;jettySize=auto;html=1;endArrow=none;endFill=0;strokeColor=#EA6B66;strokeWidth=2;" edge="1" parent="1" source="1uEtQ7aiUFXIfoO98c6w-299" target="1uEtQ7aiUFXIfoO98c6w-251">
          <mxGeometry relative="1" as="geometry">
            <mxPoint x="2330" y="312" as="sourcePoint" />
            <mxPoint x="2250" y="312" as="targetPoint" />
          </mxGeometry>
        </mxCell>
        <mxCell id="1uEtQ7aiUFXIfoO98c6w-303" value="&lt;font style=&quot;&quot;&gt;&lt;span style=&quot;font-size: 23px;&quot;&gt;[&lt;/span&gt;&lt;font style=&quot;border-color: var(--border-color);&quot;&gt;&lt;span style=&quot;font-size: 23px;&quot;&gt;&amp;nbsp;&lt;/span&gt;&lt;/font&gt;&lt;font color=&quot;#ff8000&quot; style=&quot;border-color: var(--border-color);&quot;&gt;&lt;span style=&quot;font-size: 23px;&quot;&gt;W&lt;/span&gt;&lt;sub style=&quot;border-color: var(--border-color);&quot;&gt;&lt;font style=&quot;font-size: 14px;&quot;&gt;1-3&lt;/font&gt;&lt;/sub&gt;&lt;span style=&quot;font-size: 23px;&quot;&gt;,B&lt;/span&gt;&lt;sub style=&quot;border-color: var(--border-color);&quot;&gt;&lt;font style=&quot;font-size: 14px;&quot;&gt;1-3&lt;/font&gt;&lt;/sub&gt;&lt;span style=&quot;font-size: 23px;&quot;&gt;,&amp;nbsp;&lt;/span&gt;&lt;/font&gt;&lt;font color=&quot;#808080&quot; style=&quot;border-color: var(--border-color);&quot;&gt;&lt;span style=&quot;font-size: 23px;&quot;&gt;W&lt;/span&gt;&lt;sub style=&quot;border-color: var(--border-color);&quot;&gt;&lt;font style=&quot;font-size: 14px;&quot;&gt;1-3&lt;/font&gt;&lt;/sub&gt;&lt;span style=&quot;font-size: 23px;&quot;&gt;,B&lt;/span&gt;&lt;sub style=&quot;border-color: var(--border-color);&quot;&gt;&lt;font style=&quot;font-size: 14px;&quot;&gt;1-3&lt;/font&gt;&lt;/sub&gt;&lt;span style=&quot;font-size: 23px;&quot;&gt;,&amp;nbsp;&lt;/span&gt;&lt;/font&gt;&lt;font color=&quot;#990099&quot; style=&quot;border-color: var(--border-color);&quot;&gt;&lt;span style=&quot;font-size: 23px;&quot;&gt;W&lt;/span&gt;&lt;sub style=&quot;border-color: var(--border-color);&quot;&gt;&lt;font style=&quot;font-size: 14px;&quot;&gt;1-3&lt;/font&gt;&lt;/sub&gt;&lt;span style=&quot;font-size: 23px;&quot;&gt;,B&lt;/span&gt;&lt;sub style=&quot;border-color: var(--border-color);&quot;&gt;&lt;font style=&quot;font-size: 14px;&quot;&gt;1-3&lt;/font&gt;&lt;/sub&gt;&lt;span style=&quot;font-size: 23px;&quot;&gt;,&amp;nbsp;&lt;/span&gt;&lt;/font&gt;&lt;font color=&quot;#42858c&quot; style=&quot;border-color: var(--border-color);&quot;&gt;&lt;span style=&quot;font-size: 23px;&quot;&gt;W&lt;/span&gt;&lt;sub style=&quot;border-color: var(--border-color);&quot;&gt;&lt;font style=&quot;font-size: 14px;&quot;&gt;1-3&lt;/font&gt;&lt;/sub&gt;&lt;span style=&quot;font-size: 23px;&quot;&gt;,B&lt;/span&gt;&lt;sub style=&quot;border-color: var(--border-color);&quot;&gt;&lt;font style=&quot;font-size: 14px;&quot;&gt;1-3&lt;/font&gt;&lt;/sub&gt;&lt;span style=&quot;font-size: 23px;&quot;&gt;,&lt;br&gt;&lt;/span&gt;&lt;/font&gt;&lt;font color=&quot;#666600&quot; style=&quot;border-color: var(--border-color);&quot;&gt;&lt;span style=&quot;font-size: 23px;&quot;&gt;W&lt;/span&gt;&lt;sub style=&quot;border-color: var(--border-color);&quot;&gt;&lt;font style=&quot;font-size: 14px;&quot;&gt;1-3&lt;/font&gt;&lt;/sub&gt;&lt;span style=&quot;font-size: 23px;&quot;&gt;,B&lt;/span&gt;&lt;sub style=&quot;border-color: var(--border-color);&quot;&gt;&lt;font style=&quot;font-size: 14px;&quot;&gt;1-3&lt;/font&gt;&lt;/sub&gt;&lt;span style=&quot;font-size: 23px;&quot;&gt;,&amp;nbsp;&lt;/span&gt;&lt;/font&gt;&lt;font color=&quot;#33ffff&quot; style=&quot;border-color: var(--border-color);&quot;&gt;&lt;span style=&quot;font-size: 23px;&quot;&gt;W&lt;/span&gt;&lt;sub style=&quot;border-color: var(--border-color);&quot;&gt;&lt;font style=&quot;font-size: 14px;&quot;&gt;1-3&lt;/font&gt;&lt;/sub&gt;&lt;span style=&quot;font-size: 23px;&quot;&gt;,B&lt;/span&gt;&lt;sub style=&quot;border-color: var(--border-color);&quot;&gt;&lt;font style=&quot;font-size: 14px;&quot;&gt;1-3&lt;/font&gt;&lt;/sub&gt;&lt;span style=&quot;font-size: 23px;&quot;&gt;,&amp;nbsp;&lt;/span&gt;&lt;/font&gt;&lt;font color=&quot;#cc0066&quot; style=&quot;border-color: var(--border-color);&quot;&gt;&lt;span style=&quot;font-size: 23px;&quot;&gt;W&lt;/span&gt;&lt;sub style=&quot;border-color: var(--border-color);&quot;&gt;&lt;font style=&quot;font-size: 14px;&quot;&gt;1&lt;/font&gt;&lt;/sub&gt;&lt;span style=&quot;font-size: 23px;&quot;&gt;,B&lt;/span&gt;&lt;sub style=&quot;border-color: var(--border-color);&quot;&gt;&lt;font style=&quot;font-size: 14px;&quot;&gt;1&lt;/font&gt;&lt;/sub&gt;&lt;span style=&quot;font-size: 23px;&quot;&gt;,&amp;nbsp;&lt;/span&gt;&lt;/font&gt;&lt;font style=&quot;border-color: var(--border-color);&quot;&gt;&lt;font color=&quot;#3333ff&quot;&gt;&lt;span style=&quot;font-size: 23px;&quot;&gt;W&lt;/span&gt;&lt;sub style=&quot;border-color: var(--border-color);&quot;&gt;&lt;font style=&quot;font-size: 14px;&quot;&gt;1&lt;/font&gt;&lt;/sub&gt;&lt;span style=&quot;font-size: 23px;&quot;&gt;,B&lt;/span&gt;&lt;sub style=&quot;border-color: var(--border-color);&quot;&gt;&lt;font style=&quot;font-size: 14px;&quot;&gt;1&lt;/font&gt;&lt;/sub&gt;&lt;/font&gt;&lt;span style=&quot;font-size: 23px;&quot;&gt;&lt;font color=&quot;#3333ff&quot;&gt;,&lt;/font&gt;&lt;font color=&quot;#cccccc&quot;&gt;&amp;nbsp;&lt;/font&gt;&lt;/span&gt;&lt;/font&gt;&lt;font style=&quot;border-color: var(--border-color);&quot;&gt;&lt;font style=&quot;&quot; color=&quot;#ea6b66&quot;&gt;&lt;span style=&quot;font-size: 23px;&quot;&gt;W&lt;/span&gt;&lt;sub style=&quot;border-color: var(--border-color);&quot;&gt;&lt;font style=&quot;font-size: 14px;&quot;&gt;1&lt;/font&gt;&lt;/sub&gt;&lt;span style=&quot;font-size: 23px;&quot;&gt;,B&lt;/span&gt;&lt;sub style=&quot;border-color: var(--border-color);&quot;&gt;&lt;font style=&quot;font-size: 14px;&quot;&gt;1&amp;nbsp;&lt;/font&gt;&lt;/sub&gt;&lt;/font&gt;&lt;span style=&quot;font-size: 23px;&quot;&gt;]&lt;/span&gt;&lt;/font&gt;&lt;br&gt;&lt;/font&gt;" style="text;html=1;strokeColor=none;fillColor=none;align=center;verticalAlign=middle;whiteSpace=wrap;rounded=0;" vertex="1" parent="1">
          <mxGeometry x="1905" y="535.5" width="480" height="90" as="geometry" />
        </mxCell>
        <mxCell id="1uEtQ7aiUFXIfoO98c6w-306" style="edgeStyle=orthogonalEdgeStyle;rounded=0;orthogonalLoop=1;jettySize=auto;html=1;strokeColor=#FF8000;exitX=0.25;exitY=0;exitDx=0;exitDy=0;strokeWidth=2;startArrow=classic;startFill=1;endArrow=none;endFill=0;" edge="1" parent="1" source="1uEtQ7aiUFXIfoO98c6w-307">
          <mxGeometry relative="1" as="geometry">
            <mxPoint x="2410" y="482" as="sourcePoint" />
            <mxPoint x="2160" y="130" as="targetPoint" />
            <Array as="points">
              <mxPoint x="1984" y="530" />
              <mxPoint x="2409" y="530" />
              <mxPoint x="2409" y="130" />
              <mxPoint x="2160" y="130" />
            </Array>
          </mxGeometry>
        </mxCell>
        <mxCell id="1uEtQ7aiUFXIfoO98c6w-307" value="" style="rounded=0;whiteSpace=wrap;html=1;fillColor=none;strokeColor=#FF8000;strokeWidth=2;" vertex="1" parent="1">
          <mxGeometry x="1960" y="553" width="95" height="29" as="geometry" />
        </mxCell>
        <mxCell id="1uEtQ7aiUFXIfoO98c6w-308" style="edgeStyle=orthogonalEdgeStyle;rounded=0;orthogonalLoop=1;jettySize=auto;html=1;exitX=0.5;exitY=1;exitDx=0;exitDy=0;strokeColor=#CC0066;strokeWidth=2;startArrow=classic;startFill=1;endArrow=none;endFill=0;" edge="1" parent="1" source="1uEtQ7aiUFXIfoO98c6w-309">
          <mxGeometry relative="1" as="geometry">
            <Array as="points">
              <mxPoint x="2167" y="640" />
              <mxPoint x="2382" y="640" />
              <mxPoint x="2382" y="220" />
            </Array>
            <mxPoint x="2280" y="220" as="targetPoint" />
          </mxGeometry>
        </mxCell>
        <mxCell id="1uEtQ7aiUFXIfoO98c6w-309" value="" style="rounded=0;whiteSpace=wrap;html=1;fillColor=none;strokeColor=#CC0066;strokeWidth=2;" vertex="1" parent="1">
          <mxGeometry x="2131" y="582" width="72" height="29" as="geometry" />
        </mxCell>
        <mxCell id="1uEtQ7aiUFXIfoO98c6w-311" value="" style="endArrow=none;html=1;rounded=0;startArrow=none;startFill=0;strokeWidth=2;strokeColor=#CC0066;" edge="1" parent="1">
          <mxGeometry width="50" height="50" relative="1" as="geometry">
            <mxPoint x="2255" y="246" as="sourcePoint" />
            <mxPoint x="2281" y="220" as="targetPoint" />
          </mxGeometry>
        </mxCell>
        <mxCell id="1uEtQ7aiUFXIfoO98c6w-312" value="" style="endArrow=none;html=1;rounded=0;startArrow=none;startFill=0;strokeWidth=2;strokeColor=#FF8000;" edge="1" parent="1">
          <mxGeometry width="50" height="50" relative="1" as="geometry">
            <mxPoint x="2131" y="133" as="sourcePoint" />
            <mxPoint x="2161" y="130" as="targetPoint" />
          </mxGeometry>
        </mxCell>
        <mxCell id="1uEtQ7aiUFXIfoO98c6w-313" value="" style="endArrow=none;html=1;rounded=0;startArrow=none;startFill=0;strokeWidth=2;strokeColor=#FF8000;" edge="1" parent="1">
          <mxGeometry width="50" height="50" relative="1" as="geometry">
            <mxPoint x="2127" y="148" as="sourcePoint" />
            <mxPoint x="2160" y="130" as="targetPoint" />
          </mxGeometry>
        </mxCell>
        <mxCell id="1uEtQ7aiUFXIfoO98c6w-314" value="" style="endArrow=none;html=1;rounded=0;startArrow=none;startFill=0;strokeWidth=2;strokeColor=#FF8000;" edge="1" parent="1">
          <mxGeometry width="50" height="50" relative="1" as="geometry">
            <mxPoint x="2126" y="162" as="sourcePoint" />
            <mxPoint x="2160" y="130" as="targetPoint" />
          </mxGeometry>
        </mxCell>
        <mxCell id="1uEtQ7aiUFXIfoO98c6w-315" value="INPUTS" style="text;html=1;strokeColor=none;fillColor=default;align=center;verticalAlign=middle;whiteSpace=wrap;rounded=0;" vertex="1" parent="1">
          <mxGeometry x="2008" y="40" width="60" height="30" as="geometry" />
        </mxCell>
        <mxCell id="1uEtQ7aiUFXIfoO98c6w-321" value="ACTIVATIONS&lt;br&gt;&lt;font style=&quot;font-size: 10px;&quot;&gt;hidden layer 1&lt;/font&gt;" style="text;html=1;strokeColor=none;fillColor=default;align=center;verticalAlign=middle;whiteSpace=wrap;rounded=0;" vertex="1" parent="1">
          <mxGeometry x="2110" y="40" width="103" height="30" as="geometry" />
        </mxCell>
        <mxCell id="1uEtQ7aiUFXIfoO98c6w-322" value="ACTIVATIONS&lt;br&gt;&lt;font style=&quot;font-size: 10px;&quot;&gt;hidden layer 2&lt;/font&gt;" style="text;html=1;strokeColor=none;fillColor=default;align=center;verticalAlign=middle;whiteSpace=wrap;rounded=0;" vertex="1" parent="1">
          <mxGeometry x="2230" y="40" width="103" height="30" as="geometry" />
        </mxCell>
        <mxCell id="1uEtQ7aiUFXIfoO98c6w-325" value="" style="endArrow=none;html=1;rounded=0;startArrow=none;startFill=0;strokeWidth=2;strokeColor=#CC0066;" edge="1" parent="1">
          <mxGeometry width="50" height="50" relative="1" as="geometry">
            <mxPoint x="1423" y="249" as="sourcePoint" />
            <mxPoint x="1451" y="220" as="targetPoint" />
          </mxGeometry>
        </mxCell>
        <mxCell id="1uEtQ7aiUFXIfoO98c6w-327" value="" style="endArrow=none;html=1;rounded=0;startArrow=none;startFill=0;strokeWidth=2;strokeColor=#FF8000;" edge="1" parent="1">
          <mxGeometry width="50" height="50" relative="1" as="geometry">
            <mxPoint x="1292" y="132" as="sourcePoint" />
            <mxPoint x="1322" y="129" as="targetPoint" />
          </mxGeometry>
        </mxCell>
        <mxCell id="1uEtQ7aiUFXIfoO98c6w-328" value="" style="endArrow=none;html=1;rounded=0;startArrow=none;startFill=0;strokeWidth=2;strokeColor=#FF8000;" edge="1" parent="1">
          <mxGeometry width="50" height="50" relative="1" as="geometry">
            <mxPoint x="1288" y="147" as="sourcePoint" />
            <mxPoint x="1321" y="129" as="targetPoint" />
          </mxGeometry>
        </mxCell>
        <mxCell id="1uEtQ7aiUFXIfoO98c6w-329" value="" style="endArrow=none;html=1;rounded=0;startArrow=none;startFill=0;strokeWidth=2;strokeColor=#FF8000;" edge="1" parent="1">
          <mxGeometry width="50" height="50" relative="1" as="geometry">
            <mxPoint x="1287" y="161" as="sourcePoint" />
            <mxPoint x="1321" y="129" as="targetPoint" />
          </mxGeometry>
        </mxCell>
        <mxCell id="1uEtQ7aiUFXIfoO98c6w-330" value="" style="endArrow=none;html=1;rounded=0;startArrow=none;startFill=0;strokeWidth=2;strokeColor=#FF0000;" edge="1" parent="1">
          <mxGeometry width="50" height="50" relative="1" as="geometry">
            <mxPoint x="1153" y="180" as="sourcePoint" />
            <mxPoint x="1120" y="190" as="targetPoint" />
          </mxGeometry>
        </mxCell>
        <mxCell id="1uEtQ7aiUFXIfoO98c6w-331" value="" style="endArrow=none;html=1;rounded=0;startArrow=none;startFill=0;strokeWidth=2;strokeColor=#FF0000;" edge="1" parent="1">
          <mxGeometry width="50" height="50" relative="1" as="geometry">
            <mxPoint x="1158" y="183" as="sourcePoint" />
            <mxPoint x="1119" y="190" as="targetPoint" />
          </mxGeometry>
        </mxCell>
        <mxCell id="1uEtQ7aiUFXIfoO98c6w-332" value="" style="endArrow=none;html=1;rounded=0;startArrow=none;startFill=0;strokeWidth=2;strokeColor=#FF0000;" edge="1" parent="1">
          <mxGeometry width="50" height="50" relative="1" as="geometry">
            <mxPoint x="1120" y="190" as="sourcePoint" />
            <mxPoint x="1159" y="173" as="targetPoint" />
          </mxGeometry>
        </mxCell>
        <mxCell id="1uEtQ7aiUFXIfoO98c6w-333" value="" style="endArrow=none;html=1;rounded=0;startArrow=none;startFill=0;strokeWidth=2;strokeColor=#FF0000;" edge="1" parent="1">
          <mxGeometry width="50" height="50" relative="1" as="geometry">
            <mxPoint x="1120" y="190" as="sourcePoint" />
            <mxPoint x="1165" y="165" as="targetPoint" />
          </mxGeometry>
        </mxCell>
        <mxCell id="1uEtQ7aiUFXIfoO98c6w-334" value="" style="endArrow=none;html=1;rounded=0;startArrow=none;startFill=0;strokeWidth=2;strokeColor=#FF0000;" edge="1" parent="1">
          <mxGeometry width="50" height="50" relative="1" as="geometry">
            <mxPoint x="1120" y="190" as="sourcePoint" />
            <mxPoint x="1175" y="152" as="targetPoint" />
          </mxGeometry>
        </mxCell>
        <mxCell id="1uEtQ7aiUFXIfoO98c6w-335" value="" style="endArrow=none;html=1;rounded=0;startArrow=none;startFill=0;strokeWidth=2;strokeColor=#FF0000;" edge="1" parent="1">
          <mxGeometry width="50" height="50" relative="1" as="geometry">
            <mxPoint x="1120" y="190" as="sourcePoint" />
            <mxPoint x="1210" y="117" as="targetPoint" />
          </mxGeometry>
        </mxCell>
      </root>
    </mxGraphModel>
  </diagram>
</mxfile>
